<?xml version="1.0" encoding="UTF-8"?>
<svg version="1.1" xmlns="http://www.w3.org/2000/svg" width="512" height="512">
<path d="M0 0 C1.47050116 -0.00461417 2.94099769 -0.01097055 4.41148466 -0.01890898 C8.43479254 -0.03555449 12.45771923 -0.02737791 16.4810282 -0.0149641 C20.82669273 -0.00589635 25.17229272 -0.01989183 29.51794434 -0.03088379 C38.02387118 -0.04865476 46.5296567 -0.0448355 55.03558905 -0.03323323 C61.94893351 -0.02419417 68.86223841 -0.02297695 75.77558708 -0.02732849 C77.2523362 -0.02824789 77.2523362 -0.02824789 78.75891862 -0.02918586 C80.75899098 -0.03046478 82.75906332 -0.03176163 84.75913566 -0.03307623 C103.50611219 -0.0444777 122.25301043 -0.03137479 140.99997412 -0.00987476 C157.08257707 0.00799861 173.16506454 0.0048893 189.24766541 -0.0135498 C207.92979583 -0.03495934 226.61185768 -0.04338204 245.29399866 -0.03110075 C247.28634575 -0.02982657 249.27869285 -0.02856908 251.27103996 -0.02732849 C252.74140397 -0.02640284 252.74140397 -0.02640284 254.24147229 -0.02545848 C261.14629962 -0.02200605 268.05108342 -0.02783159 274.95590401 -0.0372467 C283.37081113 -0.04846885 291.78556902 -0.04542195 300.20045907 -0.02412373 C304.49313608 -0.01361666 308.78556432 -0.00948562 313.07823944 -0.02272034 C317.00938809 -0.03465709 320.94005785 -0.02806088 324.87116318 -0.00681013 C326.2916145 -0.0023495 327.71210644 -0.00459828 329.13253153 -0.01431328 C338.25737999 -0.0719256 344.26767952 0.56817615 351.66343689 6.18371582 C352.19324158 6.72383301 352.72304626 7.2639502 353.26890564 7.82043457 C353.81160095 8.35281738 354.35429626 8.8852002 354.91343689 9.43371582 C359.8329102 16.04698247 359.88968649 22.23888374 359.85081482 30.21601868 C359.85690592 31.39100707 359.86299703 32.56599547 359.86927271 33.77658957 C359.88301145 37.02522389 359.88336302 40.27353595 359.87789774 43.52218449 C359.8752223 47.03083637 359.88976902 50.53942415 359.9019928 54.04804993 C359.9230278 60.91724278 359.92758874 67.78635119 359.92580491 74.65557245 C359.92449623 80.24076139 359.92830683 85.82592403 359.93572998 91.41110802 C359.93782923 93.02118593 359.93992683 94.63126385 359.9420228 96.24134177 C359.94358809 97.44349893 359.94358809 97.44349893 359.94518501 98.6699421 C359.96407983 113.82118062 359.9630396 128.9723707 359.95621568 144.12361612 C359.95064162 157.97425774 359.97146111 171.8247143 360.00457615 185.67531268 C360.03833736 199.90697468 360.0534784 214.1385481 360.04885912 228.37025088 C360.04661677 236.35629069 360.05182303 244.34215951 360.07675171 252.32816505 C360.09779638 259.12766564 360.10132569 265.92690148 360.08245212 272.72641305 C360.07331329 276.19310902 360.07209322 279.6593118 360.09280777 283.12596893 C360.11099168 286.89072817 360.09825449 290.65417959 360.0778656 294.41889954 C360.09038345 295.50558939 360.1029013 296.59227925 360.11579847 297.7118991 C360.02395975 305.63766445 358.31596288 312.67935174 352.52523947 318.4236024 C344.28396783 325.31913738 334.96060783 325.95298226 324.59288025 325.94030762 C323.33335541 325.95049927 322.07383057 325.96069092 320.77613831 325.97119141 C317.34907109 325.99859286 313.92216977 326.00802273 310.49500728 326.01404548 C306.90350666 326.02347345 303.31212783 326.04968013 299.72070312 326.0740509 C292.93178627 326.11759862 286.14289321 326.14621737 279.35387951 326.16937429 C271.61976917 326.19648913 263.88578207 326.24039656 256.15175998 326.28566301 C240.25337204 326.37834114 224.35496085 326.45009859 208.45640564 326.50793457 C209.23227967 328.11730823 210.01482042 329.723469 210.80015564 331.32824707 C211.23521423 332.22301758 211.67027283 333.11778809 212.11851501 334.03967285 C213.79949334 337.14089382 215.77589959 339.22950442 218.45640564 341.50793457 C219.17828064 342.18855957 219.90015564 342.86918457 220.64390564 343.57043457 C226.08326893 347.3175515 232.02969509 349.36389948 238.51890564 350.44543457 C247.0169695 351.9553107 254.84608276 356.91174311 260.08140564 363.75793457 C264.99595029 371.05247883 267.69130496 380.00266136 266.01890564 388.81262207 C264.49719169 393.39505611 262.34678342 396.54786452 258.45640564 399.50793457 C251.78323137 402.59890486 245.40450575 402.92556951 238.15342712 402.84851074 C237.05971298 402.84894882 235.96599884 402.8493869 234.83914185 402.84983826 C231.25174121 402.84776109 227.66481761 402.82448017 224.07749939 402.80090332 C221.57929744 402.79530357 219.08109218 402.79103526 216.58288574 402.78804016 C210.69697004 402.77778619 204.8112283 402.7541821 198.92538363 402.72399169 C191.56010344 402.68704064 184.1948018 402.67102908 176.82945251 402.65441895 C163.70501792 402.62230706 150.58072253 402.57172841 137.45640564 402.50793457 C137.78640564 403.49793457 138.11640564 404.48793457 138.45640564 405.50793457 C138.55672098 407.89775904 138.59474282 410.29033204 138.60166931 412.68225098 C138.60670723 413.77313019 138.60670723 413.77313019 138.61184692 414.88604736 C138.62135566 417.29388127 138.62330044 419.70164554 138.62437439 422.10949707 C138.6275886 423.78758777 138.6309528 425.4656782 138.63446045 427.14376831 C138.64045264 430.66604257 138.64230041 434.18829229 138.64170837 437.71057129 C138.64160711 442.20600649 138.65522206 446.70128248 138.67248058 451.19668007 C138.68364947 454.66613474 138.68562603 458.13555163 138.68509865 461.60502243 C138.68627284 463.26107707 138.69066286 464.91713287 138.69843102 466.57316971 C138.75554171 480.0137036 138.4094637 493.28587494 128.45640564 503.50793457 C119.93218267 510.12475715 112.23018831 512.96741899 101.52626038 512.89561462 C100.55459517 512.90100016 99.58292997 512.9063857 98.58182037 512.91193444 C95.34082891 512.92618949 92.1002473 512.9191162 88.85923767 512.9119873 C86.52948174 512.91769216 84.1997286 512.92465687 81.86997986 512.93278503 C75.55176149 512.95071924 69.23368198 512.94954743 62.9154458 512.94384265 C56.96889384 512.94035961 51.02236304 512.94831597 45.07581566 512.9552033 C32.57799787 512.96891729 20.08024276 512.96349858 7.58242641 512.95201809 C-3.83672395 512.94208845 -15.25571221 512.95502361 -26.67483757 512.97895228 C-38.41598482 513.00336929 -50.15705665 513.01294468 -61.89822876 513.00629956 C-68.48359881 513.00293084 -75.06883497 513.00533958 -81.65418625 513.02255058 C-87.84800494 513.03803192 -94.04151451 513.03405053 -100.23532104 513.01524544 C-102.50483263 513.01156283 -104.77436717 513.0146584 -107.04385757 513.02513123 C-110.14941998 513.03836494 -113.2539626 513.02677177 -116.35948181 513.00914001 C-117.25094213 513.01874502 -118.14240246 513.02835003 -119.06087673 513.0382461 C-129.53527485 512.9164502 -137.30657036 508.87960087 -144.54359436 501.50793457 C-154.04627659 491.74128895 -153.13704646 479.25566357 -153.07484436 466.58996582 C-153.07754457 464.64478868 -153.08143138 462.69961287 -153.08644104 460.75444031 C-153.09231817 456.68703297 -153.08383557 452.61997841 -153.06507874 448.5526123 C-153.0423667 443.37954016 -153.05537457 438.20730191 -153.07936859 433.03426075 C-153.09394034 429.0180808 -153.08916764 425.00209288 -153.07885742 420.9859066 C-153.07621745 419.08082667 -153.07936197 417.17572844 -153.08877563 415.27066994 C-153.17081841 393.9931848 -148.68256504 376.1013476 -134.54359436 359.50793457 C-133.82171936 358.51793457 -133.09984436 357.52793457 -132.35609436 356.50793457 C-121.49325891 343.77584496 -104.5916895 336.68679048 -88.54359436 333.50793457 C-87.49582825 333.46418701 -87.49582825 333.46418701 -86.42689514 333.41955566 C-79.42505224 333.10955041 -75.43258661 330.16423837 -70.04359436 325.88293457 C-69.25339905 325.27836426 -68.46320374 324.67379395 -67.64906311 324.05090332 C-66.05816756 322.82974127 -64.48105664 321.59040784 -62.91835022 320.33337402 C-60.54359436 318.50793457 -60.54359436 318.50793457 -57.98329163 316.92272949 C-54.35042408 314.56900522 -51.96389171 312.97961718 -50.74427795 308.70910645 C-50.43513476 305.46082611 -50.39786852 302.33172625 -50.48109436 299.07043457 C-50.47400452 297.9573291 -50.46691467 296.84422363 -50.45960999 295.6973877 C-50.44788278 292.96494985 -50.4769733 290.23939798 -50.54359436 287.50793457 C-51.31469543 287.21676758 -52.08579651 286.92560059 -52.88026428 286.62561035 C-58.15579743 284.41171442 -62.26514579 280.23121069 -66.54359436 276.50793457 C-67.26160217 275.88789551 -67.97960999 275.26785645 -68.71937561 274.62902832 C-81.55020652 262.72386857 -89.23496233 245.43925826 -92.54359436 228.50793457 C-92.60582518 226.17543124 -92.62431524 223.83987123 -92.54359436 221.50793457 C-93.10046936 221.36098145 -93.65734436 221.21402832 -94.23109436 221.06262207 C-103.48477278 218.34279091 -110.84424867 213.08874573 -115.54359436 204.50793457 C-118.77083284 196.8153755 -120.07628914 188.54940151 -121.54359436 180.38293457 C-121.67332642 179.66706177 -121.80305847 178.95118896 -121.9367218 178.21362305 C-134.81029207 106.49029532 -134.81029207 106.49029532 -119.01234436 82.14855957 C-110.93744275 71.2107383 -100.72010599 63.80034863 -87.23109436 61.13293457 C-81.74188115 59.92417 -79.69684376 58.01659018 -76.36390686 53.62902832 C-67.86302755 43.72349728 -52.02368261 38.65786574 -39.54359436 36.50793457 C-37.54408456 36.46365638 -35.5428095 36.45190937 -33.54359436 36.50793457 C-33.59000061 35.45734863 -33.63640686 34.4067627 -33.68421936 33.32434082 C-33.93492643 25.29310244 -34.14521376 18.44620183 -29.54359436 11.50793457 C-29.1194928 10.86340332 -28.69539124 10.21887207 -28.25843811 9.55480957 C-21.07810428 0.03436694 -11.09385564 -0.07600643 0 0 Z M43.45640564 316.50793457 C52.68823798 325.73976691 61.41481073 334.27644198 74.94078064 335.17199707 C84.00684252 336.03830965 93.05689843 339.6404025 100.52671814 344.78527832 C102.52185697 345.73871674 102.52185697 345.73871674 104.94078064 344.90246582 C111.02826799 341.52788044 116.00114629 334.95299036 118.45640564 328.50793457 C118.45640564 327.51793457 118.45640564 326.52793457 118.45640564 325.50793457 C117.82857681 325.50206833 117.20074799 325.49620209 116.55389404 325.49015808 C110.01613744 325.42619683 103.47887184 325.34176974 96.94151306 325.2454834 C94.50212581 325.2122404 92.06266176 325.18420656 89.62315369 325.16149902 C86.11541532 325.1279424 82.60838039 325.07562408 79.10093689 325.01965332 C78.01118057 325.0132634 76.92142426 325.00687347 75.79864502 325.00028992 C65.97465341 324.8097723 65.97465341 324.8097723 62.45640564 321.50793457 C61.79640564 319.85793457 61.13640564 318.20793457 60.45640564 316.50793457 C54.84640564 316.50793457 49.23640564 316.50793457 43.45640564 316.50793457 Z " fill="#373738" transform="translate(152.54359436035156,-0.5079345703125)"/>
<path d="M0 0 C1.43135494 -0.00576123 2.86270248 -0.01370236 4.29403454 -0.02363622 C8.22770126 -0.04453343 12.16076246 -0.0341817 16.09443152 -0.01870513 C20.33653049 -0.00740704 24.57852425 -0.02484671 28.82060242 -0.03860474 C37.13125188 -0.0608588 45.4416758 -0.05602617 53.75233417 -0.04154153 C60.50609221 -0.03025704 67.25978696 -0.02871497 74.01355171 -0.03416061 C75.45451256 -0.03530986 75.45451256 -0.03530986 76.92458372 -0.03648233 C78.87602068 -0.03808093 80.82745763 -0.039702 82.77889455 -0.04134528 C101.08563873 -0.05560933 119.39225781 -0.03920017 137.69898147 -0.01234345 C153.41047274 0.00999236 169.12177929 0.00611891 184.83326721 -0.01693726 C203.0722176 -0.04368982 221.31105826 -0.05423222 239.55002552 -0.03887594 C241.49465468 -0.03728317 243.43928385 -0.03571132 245.38391304 -0.03416061 C246.34074009 -0.03338924 247.29756714 -0.03261786 248.28338895 -0.03182311 C255.02931974 -0.02750421 261.77518098 -0.03479682 268.521101 -0.04655838 C276.74186121 -0.06057604 284.9623827 -0.05679909 293.18311553 -0.03015466 C297.37835426 -0.01700596 301.57319485 -0.01188175 305.76843071 -0.02840042 C309.60845174 -0.04329183 313.44770534 -0.03512609 317.28765667 -0.00851266 C318.67723367 -0.00292409 320.0668754 -0.00577677 321.45641082 -0.0178916 C333.10403855 -0.11165833 333.10403855 -0.11165833 337.08687878 2.56044483 C340.16547881 6.90468991 340.08504749 10.24888365 339.98716736 15.46141052 C339.99230347 16.45558487 339.99743958 17.44975922 340.00273132 18.47406006 C340.01267202 21.81975598 339.97951257 25.16365429 339.9467926 28.50918579 C339.94495486 30.942785 339.94575509 33.3763874 339.94898415 35.80998516 C339.95034017 42.3342755 339.91553568 48.85790718 339.87332153 55.38204193 C339.83918193 61.50130823 339.83754452 67.62041336 339.83326721 73.73977661 C339.80176822 91.64241125 339.71800144 109.54492302 339.64064026 127.44741821 C339.51689026 167.43929321 339.39314026 207.43116821 339.26564026 248.63491821 C246.53564026 248.63491821 153.80564026 248.63491821 58.26564026 248.63491821 C59.69078999 245.07204388 61.1424639 242.01823728 63.03297424 238.72476196 C68.40871143 229.26165628 72.74573006 218.78185271 73.54298401 207.82241821 C74.26564026 204.63491821 74.26564026 204.63491821 76.74220276 202.88491821 C78.30067932 202.26616821 78.30067932 202.26616821 79.89064026 201.63491821 C88.80422031 197.63333477 93.56593767 192.61360515 97.26564026 183.63491821 C98.30419201 180.25611642 99.05441382 176.84593749 99.76564026 173.38491821 C99.97285706 172.40635864 100.18007385 171.42779907 100.39356995 170.41958618 C102.94703548 157.92402858 104.66117884 145.28258672 106.26564026 132.63491821 C106.36876526 131.82699829 106.47189026 131.01907837 106.57814026 130.18667603 C107.3672215 123.6042299 107.61645161 117.01382297 107.87110901 110.39273071 C107.90849182 109.53421509 107.94587463 108.67569946 107.98439026 107.79116821 C108.01468323 107.01579712 108.0449762 106.24042603 108.07618713 105.44155884 C108.26564026 103.63491821 108.26564026 103.63491821 109.26564026 102.63491821 C111.95602306 102.52419268 114.62506972 102.47329467 117.31642151 102.45913696 C118.98114764 102.43593459 120.64586122 102.41181709 122.31056213 102.38687134 C124.94402907 102.35176499 127.57703628 102.32242384 130.21070862 102.30899048 C132.74651815 102.29351225 135.28097049 102.25329907 137.81642151 102.20913696 C138.99474297 102.21199959 138.99474297 102.21199959 140.1968689 102.21492004 C143.73482953 102.13578104 145.86232207 101.92890482 148.75856018 99.81777954 C150.99150497 96.58357261 150.88105856 94.46418764 150.26564026 90.63491821 C147.48116136 87.5761351 145.25199264 86.39787054 141.20973206 86.08901978 C139.62849774 86.04801593 138.04662304 86.0279562 136.46485901 86.02554321 C135.62848404 86.00900696 134.79210907 85.9924707 133.9303894 85.97543335 C131.2712311 85.92702881 128.61264434 85.90559977 125.95314026 85.88491821 C124.14516891 85.85675213 122.3372241 85.8268238 120.52931213 85.79507446 C116.10813525 85.72127216 111.68727423 85.67165169 107.26564026 85.63491821 C106.61600003 83.740386 105.97108911 81.84423172 105.32814026 79.94741821 C104.7886676 78.36380493 104.7886676 78.36380493 104.23829651 76.74819946 C103.39232248 74.04040306 102.79549749 71.41615327 102.26564026 68.63491821 C103.89056145 68.62611885 103.89056145 68.62611885 105.54830933 68.61714172 C115.74581 68.55998559 125.94309596 68.48726146 136.140378 68.3992033 C141.38320702 68.35443194 146.62595712 68.31519083 151.86891174 68.28848267 C156.92649563 68.26251709 161.98377688 68.22216283 167.04117393 68.17173195 C168.97287933 68.15501747 170.90463713 68.14353181 172.8364048 68.13730431 C175.53750638 68.12771287 178.23782563 68.09971385 180.93873596 68.06729126 C181.74146439 68.06872635 182.54419281 68.07016144 183.37124634 68.07164001 C187.53256968 68.02791042 187.53256968 68.02791042 191.23138428 66.32273865 C192.97531361 63.47678985 193.1501199 60.92724837 193.26564026 57.63491821 C191.57285106 54.41861874 190.75383894 53.79765111 187.26564026 52.63491821 C185.8622027 52.54341353 184.45484687 52.50598537 183.0484314 52.50361633 C181.75960052 52.49760406 181.75960052 52.49760406 180.44473267 52.49147034 C179.03507484 52.49226341 179.03507484 52.49226341 177.59693909 52.49307251 C176.60473358 52.48959808 175.61252808 52.48612366 174.59025574 52.48254395 C172.43277358 52.47518614 170.27528385 52.46984089 168.11779213 52.46625328 C164.70019006 52.45908984 161.28273174 52.44342326 157.86517334 52.4249115 C148.14703869 52.37244184 138.42898182 52.32447982 128.71070862 52.30899048 C122.76783463 52.29889701 116.82532088 52.26953539 110.88258934 52.22767067 C108.62007563 52.21537337 106.35751101 52.21023708 104.09496498 52.2124691 C100.92335856 52.2148276 97.75278121 52.19261205 94.58131409 52.16494751 C93.65166336 52.17154892 92.72201263 52.17815033 91.76419067 52.18495178 C86.4088143 52.10849757 82.65122854 51.30245692 78.00431347 48.58741474 C75.23508703 47.07035072 72.268015 46.56216224 69.20314026 45.88491821 C63.25262477 44.27410988 60.63831978 42.57957389 57.00782776 37.72085571 C50.38657014 29.79316162 39.75350942 26.6687638 30.26564026 23.63491821 C29.31044495 23.29202759 28.35524963 22.94913696 27.37110901 22.59585571 C23.58809845 21.42526377 19.79259678 20.698597 15.89064026 20.07241821 C15.08715149 19.94310913 14.28366272 19.81380005 13.45582581 19.68057251 C2.7936915 18.1017079 -7.97320224 17.88498491 -18.73435974 17.63491821 C-18.87027995 15.74109657 -18.96676915 13.84442117 -19.04685974 11.94741821 C-19.10486755 10.89167603 -19.16287537 9.83593384 -19.22264099 8.74819946 C-18.72073714 5.54806049 -18.04539293 3.89737523 -15.66989887 1.68086362 C-11.00445679 -0.84029322 -5.17215218 -0.04501553 0 0 Z " fill="#447FC4" transform="translate(155.73435974121094,16.365081787109375)"/>
<path d="M0 0 C2.26953125 2.16015625 2.26953125 2.16015625 4.8125 5.0625 C5.78028106 6.14800005 6.74908964 7.23258461 7.71875 8.31640625 C8.24082031 8.90437988 8.76289062 9.49235352 9.30078125 10.09814453 C12.43159708 13.60231915 15.61774442 17.05417997 18.8125 20.5 C19.74509644 21.52299194 19.74509644 21.52299194 20.6965332 22.56665039 C26.97551776 29.42590556 26.97551776 29.42590556 35.5 32.4375 C45.47314906 31.19085637 50.99638801 23.22705105 57.1640625 16.0546875 C59.75053962 13.16003438 62.51328795 10.46158947 65.30078125 7.76171875 C67.19089136 5.90690694 67.19089136 5.90690694 69 3 C72.70296419 4.51294925 74.7200164 6.6805874 77.3125 9.6875 C80.53052574 13.35847208 83.81822674 16.86014723 87.30859375 20.26953125 C89.79929807 22.81775761 92.06043401 25.55074203 94.32421875 28.30078125 C97.34320157 31.3619876 99.59407449 31.96071689 103.875 32.375 C112.63709222 32.05286426 118.38347536 23.93004675 124 18 C125.78226352 16.00357447 127.53166588 13.98429626 129.26953125 11.94921875 C131.81341929 9.0837557 134.54939805 6.42661446 137.30078125 3.76171875 C139.19089136 1.90690694 139.19089136 1.90690694 141 -1 C153.63605311 -2.27605462 168.6034722 5.40512084 178.1875 13.1875 C189.1218542 23.36003444 197.49849915 38.04937275 198.28707886 53.1444397 C198.44931273 58.10230293 198.44448057 63.05955383 198.43359375 68.01953125 C198.4381627 69.85031832 198.44347038 71.68110368 198.44947815 73.5118866 C198.45836603 77.32855246 198.45603232 81.14500853 198.44604492 84.96166992 C198.43450828 89.84524306 198.45486015 94.72809813 198.48396206 99.61157703 C198.50231906 103.38374902 198.5020335 107.15574827 198.49632454 110.92795372 C198.49617154 112.72883811 198.50219788 114.52973436 198.51461601 116.33057594 C198.52953058 118.84559909 198.51884976 121.35928567 198.50170898 123.87426758 C198.51137695 124.61152573 198.52104492 125.34878387 198.53100586 126.10838318 C198.44735013 131.98415944 196.45089689 135.53151294 192.3671875 139.64453125 C186.95983197 143.87699016 183.73714955 144.14856387 176.99224854 144.14717102 C176.04738893 144.15084771 175.10252933 144.1545244 174.12903762 144.1583125 C170.94311603 144.16938068 167.75722703 144.17319848 164.57128906 144.17700195 C162.29504288 144.18326422 160.01879773 144.1899108 157.74255371 144.19691467 C151.54412341 144.21434603 145.34570084 144.22488216 139.14725208 144.2331202 C135.2773837 144.23826562 131.40751774 144.24434154 127.53765106 144.25063133 C116.8249294 144.26750392 106.11221148 144.28213894 95.39947891 144.28938007 C92.61885832 144.29129 89.83823774 144.29321033 87.05761719 144.29516602 C86.36649943 144.29564976 85.67538166 144.2961335 84.96332094 144.2966319 C73.7674265 144.30493235 62.57163889 144.33026898 51.3757911 144.36274669 C39.88346569 144.39581286 28.39121063 144.41349563 16.8988359 144.41702431 C10.44538731 144.41937855 3.99210754 144.42838772 -2.46129608 144.45348549 C-8.5318819 144.47671246 -14.60218711 144.48102097 -20.67280579 144.47072411 C-22.90207602 144.47022733 -25.13135982 144.47658917 -27.36058807 144.49028015 C-30.40216875 144.50791638 -33.44273338 144.50093324 -36.48431396 144.48774719 C-37.36817268 144.49871644 -38.2520314 144.50968568 -39.16267371 144.52098733 C-45.43124415 144.45529859 -49.01460565 142.83647919 -53.64453125 138.4375 C-57.9649367 133.1200779 -58.15052979 129.17685413 -58.16113281 122.50024414 C-58.16858017 121.37489258 -58.16858017 121.37489258 -58.17617798 120.22680664 C-58.19077146 117.74624709 -58.19760001 115.26575168 -58.203125 112.78515625 C-58.20888261 111.05081685 -58.21464026 109.31647746 -58.22039795 107.58213806 C-58.23090262 103.94139308 -58.23674751 100.30067011 -58.24023438 96.65991211 C-58.24569134 92.02695183 -58.26966117 87.39428957 -58.29820633 82.76142216 C-58.31697318 79.1742828 -58.32204591 75.58721288 -58.32357025 72.00002861 C-58.32657018 70.29423853 -58.33450712 68.58844887 -58.34775543 66.8827076 C-58.48787239 47.44063811 -55.16248084 31.69366694 -41.2421875 17.2109375 C-40.50226562 16.48132813 -39.76234375 15.75171875 -39 15 C-38.36320312 14.35289062 -37.72640625 13.70578125 -37.0703125 13.0390625 C-29.55028895 5.89347996 -10.87529359 -5.15265482 0 0 Z " fill="#37679A" transform="translate(75,351)"/>
<path d="M0 0 C2.0703125 1.57421875 2.0703125 1.57421875 4.125 3.6875 C13.78692356 12.74054612 25.9682813 15.52786345 38.9296875 15.24609375 C50.76845668 14.29718477 63.14157897 9.90303276 71.3046875 1.00390625 C73 0 73 0 75.859375 0.15234375 C86.03358108 2.89836703 93.89281449 10.67300404 99.49609375 19.3046875 C102.75317133 25.20028788 104.01146468 31.07452044 105.03125 37.703125 C106.25244251 41.85911885 107.91299066 43.97235622 111 47 C114.36216004 48.89933651 114.36216004 48.89933651 118 50.375 C123.071358 52.71365654 126.84741501 54.80383752 129.36328125 59.96484375 C131.26662831 66.04854817 130.17566894 70.53899685 127.36328125 76.140625 C124.12874858 80.55219391 119.84076799 82.66150886 114.9375 84.8125 C109.19315905 87.61983772 109.19315905 87.61983772 105.578125 92.78125 C104.82560829 95.66928712 104.48530256 98.53751225 104.125 101.5 C101.88944222 119.79269454 91.85338134 135.19829299 78 147 C74.81080762 149.39313812 71.58352421 151.260324 68 153 C66.906875 153.53367187 65.81375 154.06734375 64.6875 154.6171875 C47.52329599 162.48411434 29.87507363 163.30999867 12 157 C4.13577688 153.76288799 -2.62783653 149.61908961 -9 144 C-9.75023437 143.34386719 -10.50046875 142.68773437 -11.2734375 142.01171875 C-22.87643636 131.18093313 -30.00439572 116.83584826 -32 101.125 C-32.77266801 95.50435308 -33.74404225 90.98046048 -38 87 C-40.71904177 85.49540829 -43.46057226 84.30315309 -46.33984375 83.13671875 C-51.31595423 81.01036317 -54.16765756 78.47047164 -56.875 73.6875 C-58.62100393 67.96448713 -59.05470252 63.41453639 -56.4375 58 C-53.27278423 53.31732463 -48.42338823 51.20632674 -43.43334961 48.87695312 C-39.21537721 46.87401424 -36.50919939 45.10703862 -34 41 C-32.84571262 37.55187258 -32.84571262 37.55187258 -32.0625 33.8125 C-28.89671116 20.87700179 -23.5285456 11.35634893 -12.1875 4.0625 C-4.62789177 -0.51497312 -4.62789177 -0.51497312 0 0 Z " fill="#F8D5BC" transform="translate(109,121)"/>
<path d="M0 0 C2.375 2.5625 2.375 2.5625 4 5 C7.41613842 9.68399992 7.41613842 9.68399992 12.6875 11.359375 C13.780625 11.48828125 14.87375 11.6171875 16 11.75 C25.97413783 13.27856137 32.82996775 16.69673376 39.30859375 24.5234375 C41.9691263 28.41899787 43.62582801 32.50482723 45 37 C45.1750708 37.57089355 45.3501416 38.14178711 45.53051758 38.72998047 C46.67991629 44.28749958 46.24162444 50.15448546 46.25 55.8125 C46.25233643 56.5230957 46.25467285 57.23369141 46.25708008 57.96582031 C46.27302174 70.82928865 45.13292158 83.3040382 43 96 C42.26910156 95.69578125 41.53820312 95.3915625 40.78515625 95.078125 C38.1118653 93.9768891 38.1118653 93.9768891 35.68359375 93.421875 C32.9706469 92.61035003 31.19903228 91.80901523 29 90 C27.56208674 86.62402974 26.76800504 83.30765407 25.94140625 79.734375 C22.37567865 65.58982899 12.91300993 54.07997199 1 46 C-2.25330823 44.11423284 -5.54922723 42.49010642 -9 41 C-9.99 40.566875 -10.98 40.13375 -12 39.6875 C-16.45174917 38.66730748 -20.48063113 38.08068739 -25 39 C-28.07228151 40.94540453 -30.44617274 43.43072621 -33 46 C-34.35094881 47.13346652 -35.72575887 48.23921845 -37.125 49.3125 C-37.72570312 49.78300781 -38.32640625 50.25351563 -38.9453125 50.73828125 C-46.84058894 55.58652135 -57.07455634 54.93014601 -66 54 C-73.37680349 52.1146135 -78.11329463 47.36351793 -83.1875 41.890625 C-85.86716492 39.09545728 -87.84413354 38.7059301 -91.625 38.4375 C-103.00288464 38.52732541 -114.91672419 46.4724494 -123 54 C-123.598125 54.54527344 -124.19625 55.09054688 -124.8125 55.65234375 C-132.3174775 63.30809089 -137.52651572 74.28447533 -139.4375 84.75 C-140.4346219 89.5596468 -140.4346219 89.5596468 -142.99609375 91.5546875 C-145.3164602 92.5986619 -147.54984424 93.32437565 -150 94 C-151.67273565 94.65128923 -153.34112487 95.3141753 -155 96 C-155.320632 94.27232273 -155.63085147 92.54271394 -155.9375 90.8125 C-156.11152344 89.84957031 -156.28554687 88.88664062 -156.46484375 87.89453125 C-157.91030048 77.37540455 -158.18195895 66.85557578 -158.1875 56.25 C-158.19974609 55.00089844 -158.21199219 53.75179687 -158.22460938 52.46484375 C-158.24388941 40.29271649 -156.82961568 30.46939233 -148.33203125 21.17578125 C-141.27774309 14.76719452 -134.47267682 12.59019658 -125.05078125 11.6875 C-121.42623389 10.8707006 -119.66661623 9.54904056 -117 7 C-116.4225 6.05125 -115.845 5.1025 -115.25 4.125 C-107.61793366 -6.47509213 -92.99347138 -10.11382221 -80.8359375 -12.421875 C-55.04867421 -16.30834645 -21.83087445 -16.49346627 0 0 Z " fill="#715751" transform="translate(201,65)"/>
<path d="M0 0 C12.12598968 7.66729244 20.59514222 18.87539948 24.20703125 32.9140625 C26.65247428 48.2792355 23.54316872 62.26107277 14.65625 75.1875 C8.62708761 82.69462827 1.60696815 88.15564763 -7.3515625 91.6875 C-7.98908447 91.94499023 -8.62660645 92.20248047 -9.28344727 92.46777344 C-15.28856451 94.70861807 -20.78219098 95.2307895 -27.1640625 95.1875 C-28.61655396 95.18000732 -28.61655396 95.18000732 -30.09838867 95.17236328 C-37.71830193 94.98693282 -43.75646849 93.66120017 -50.3515625 89.6875 C-51.18945312 89.19507813 -52.02734375 88.70265625 -52.890625 88.1953125 C-57.22998802 85.46730904 -60.90555205 82.50605212 -64.3515625 78.6875 C-64.83238281 78.19894531 -65.31320312 77.71039063 -65.80859375 77.20703125 C-76.09547713 66.24303656 -78.03319412 52.34495473 -77.72265625 37.9375 C-77.06658809 24.86283213 -69.99542274 13.86894991 -60.7265625 4.9375 C-42.90716106 -9.70616653 -19.86655083 -11.08830744 0 0 Z " fill="#373838" transform="translate(453.3515625,41.3125)"/>
<path d="M0 0 C1.23104668 -0.00427212 2.46209336 -0.00854425 3.73044449 -0.01294583 C7.13564123 -0.0197446 10.53939291 -0.00417251 13.9444145 0.02094448 C17.62053486 0.04257685 21.29661219 0.0352271 24.97277832 0.03143311 C31.33794111 0.02881386 37.70284724 0.04447479 44.06794548 0.0726223 C53.27071503 0.11329192 62.47336073 0.12628304 71.67621041 0.13256226 C86.60786477 0.14350002 101.53938239 0.17676013 116.47096252 0.22407532 C130.97388526 0.26998434 145.47677084 0.30536967 159.97975159 0.32661438 C160.8740112 0.327928 161.7682708 0.32924161 162.68962919 0.33059504 C167.17595589 0.33712032 171.66228286 0.34343884 176.14861 0.34965456 C213.3555226 0.40147142 250.56227976 0.48952258 287.76905823 0.60127258 C287.82728353 3.68452617 287.86272957 6.76763763 287.89405823 9.85127258 C287.91081604 10.7239679 287.92757385 11.59666321 287.94483948 12.49580383 C287.95128479 13.34013977 287.9577301 14.18447571 287.96437073 15.05439758 C287.97484436 15.82944641 287.98531799 16.60449524 287.99610901 17.4030304 C287.73513596 19.92969849 287.13351587 21.46417025 285.76905823 23.60127258 C282.58640864 25.72303898 281.82349272 25.85093935 278.18157387 25.84901905 C277.23468402 25.85340105 276.28779416 25.85778305 275.31221068 25.86229783 C274.26991281 25.8569525 273.22761495 25.85160717 272.1537323 25.84609985 C271.04805416 25.84836443 269.94237603 25.850629 268.8031925 25.8529622 C265.079029 25.85828116 261.35503001 25.84940842 257.63087463 25.84077454 C254.96862254 25.84188679 252.30638379 25.84381726 249.64413452 25.84687805 C243.90161125 25.85210469 238.15912171 25.85060315 232.41659927 25.84510231 C223.3416238 25.83689608 214.26672126 25.8481101 205.1917572 25.86230469 C202.08781641 25.86690593 198.98387541 25.87135626 195.87993431 25.87574291 C194.71634848 25.87739012 194.71634848 25.87739012 193.52925587 25.87907061 C184.69740898 25.89124708 175.86555975 25.89879751 167.03370667 25.90473938 C166.22625812 25.90528744 165.41880957 25.9058355 164.58689289 25.90640017 C151.49897182 25.91486126 138.41107131 25.91152055 125.32315011 25.90558503 C111.89052845 25.89997054 98.45801051 25.91348709 85.02542055 25.94313782 C76.73741862 25.96069452 68.44971622 25.96229417 60.16171561 25.94349267 C54.48307153 25.93190014 48.80462984 25.93831268 43.1260121 25.95896188 C39.84827949 25.97029926 36.57117675 25.97069912 33.29344749 25.9547863 C29.74126049 25.93876358 26.19047437 25.95324698 22.63835144 25.97549438 C21.60051502 25.96345689 20.5626786 25.95141939 19.49339259 25.93901712 C14.7683027 25.99958905 12.51358606 26.03953534 8.6522274 28.95288372 C6.63490845 31.51698533 6.63490845 31.51698533 5.76905823 34.60127258 C2.54019814 34.71795134 -0.68811622 34.78867804 -3.91844177 34.85127258 C-5.28645935 34.90154602 -5.28645935 34.90154602 -6.68211365 34.95283508 C-10.64493286 35.01047609 -13.62410322 34.84385495 -17.32859802 33.36299133 C-20.54554476 28.69280376 -20.03109371 23.68988968 -19.98094177 18.16377258 C-20.01703552 17.03133118 -20.05312927 15.89888977 -20.09031677 14.73213196 C-20.09031677 13.63836243 -20.09031677 12.5445929 -20.09031677 11.41767883 C-20.09756775 9.92409851 -20.09756775 9.92409851 -20.10496521 8.40034485 C-19.04479578 5.00513744 -17.41758688 3.62488041 -14.50811756 1.65620863 C-9.90473857 -0.47637616 -4.98252328 -0.06327216 0 0 Z " fill="#C3DCEF" transform="translate(207.23094177246094,281.3987274169922)"/>
<path d="M0 0 C14.33433517 -0.11699597 28.66859591 -0.2047346 43.00331116 -0.25906086 C49.65978848 -0.28513696 56.31585936 -0.32049958 62.97216797 -0.37719727 C69.39773712 -0.43158605 75.82299769 -0.46143555 82.2487793 -0.47438622 C84.69837297 -0.48361358 87.14795006 -0.50163258 89.59741211 -0.52865028 C93.03275848 -0.56503001 96.46683526 -0.56994135 99.90234375 -0.56762695 C100.91151352 -0.58560333 101.92068329 -0.60357971 102.96043396 -0.62210083 C109.4696824 -0.57475517 114.04450228 0.62655311 119 5 C122.19578433 8.95543766 123 11.79981297 123 17 C84.72 17 46.44 17 7 17 C5.68 13.7 4.36 10.4 3 7 C2.02065076 5.32111559 1.03013277 3.64821244 0 2 C0 1.34 0 0.68 0 0 Z " fill="#C3DCEF" transform="translate(278,367)"/>
<path d="M0 0 C17.49 0 34.98 0 53 0 C54.32 4.29 55.64 8.58 57 13 C59.27932338 17.04073134 59.27932338 17.04073134 61.73046875 20.9765625 C63 23 63 23 64 26 C39.25 26 14.5 26 -11 26 C-8.69 22.04 -6.38 18.08 -4 14 C-1.90082773 9.10193136 -0.88459211 5.30755267 0 0 Z " fill="#A0BACB" transform="translate(289,324)"/>
<path d="M0 0 C3.3775222 1.06923422 4.88096885 2.93897912 7.09765625 5.6640625 C7.58289087 8.53791722 7.76418715 10.81409275 7.71289062 13.6796875 C7.71843964 14.47217896 7.72398865 15.26467041 7.72970581 16.08117676 C7.74148706 18.69275977 7.71724395 21.30260166 7.69140625 23.9140625 C7.68969465 25.73339763 7.68976133 27.55273523 7.69152832 29.37207031 C7.68987595 33.1818812 7.67119338 36.99110304 7.63964844 40.80078125 C7.59997104 45.68008413 7.5956037 50.55861572 7.60311127 55.43804932 C7.6061833 59.19391932 7.59405216 62.94961647 7.57698059 66.70544434 C7.56995776 68.50434281 7.56682519 70.30326087 7.56767273 72.10217285 C7.56587156 74.61795337 7.54446317 77.13281605 7.51757812 79.6484375 C7.52050873 80.38936646 7.52343933 81.13029541 7.52645874 81.89367676 C7.45381056 86.30774685 6.82033271 89.15329209 4.09765625 92.6640625 C0.9636474 94.23106692 -2.5338947 94.51570811 -5.90234375 93.6640625 C-8.89068284 90.77696407 -9.8423545 89.10324839 -10.41027832 84.94543457 C-10.4339147 83.48269068 -10.43570876 82.01949029 -10.41992188 80.55664062 C-10.42693115 79.7543956 -10.43394043 78.95215057 -10.44116211 78.12559509 C-10.45872342 75.48181228 -10.44712643 72.83910562 -10.43359375 70.1953125 C-10.43628921 68.35355423 -10.44017208 66.51179735 -10.44519043 64.67004395 C-10.45108294 60.81325713 -10.44253055 56.9568413 -10.42382812 53.10009766 C-10.40103865 48.16017375 -10.41416307 43.22111914 -10.43811798 38.28122711 C-10.45258268 34.47903919 -10.4479669 30.67705684 -10.43760681 26.87486267 C-10.43494138 25.05362342 -10.43820283 23.23236541 -10.44752502 21.41114807 C-10.45770183 18.8640917 -10.44217479 16.31843656 -10.41992188 13.77148438 C-10.4280188 13.02120468 -10.43611572 12.27092499 -10.44445801 11.49790955 C-10.38659107 7.91679881 -9.97721526 5.78845266 -8.11608887 2.69641113 C-5.47270933 0.26963275 -3.54618869 0.07050077 0 0 Z " fill="#373738" transform="translate(470.90234375,153.3359375)"/>
<path d="M0 0 C3.5872727 1.24251904 5.47135478 3.41413576 7.09765625 6.7265625 C7.83559954 11.51972516 7.75337143 16.29977735 7.69140625 21.13671875 C7.68969335 22.55105996 7.68976265 23.96540434 7.69152832 25.37974548 C7.68987913 28.33623855 7.67125504 31.29196962 7.63964844 34.24829102 C7.59993464 38.03016504 7.59560968 41.81104415 7.60311127 45.5930872 C7.60618621 48.51086986 7.59404261 51.4284305 7.57698059 54.34615898 C7.56997051 55.74034672 7.56682363 57.13455962 7.56767273 58.52876472 C7.56586737 60.47896393 7.54217327 62.42910544 7.51757812 64.37915039 C7.50915894 65.48690323 7.50073975 66.59465607 7.49206543 67.73597717 C7.04761803 71.1059745 6.10530312 73.00686168 4.09765625 75.7265625 C0.9636474 77.29356692 -2.5338947 77.57820811 -5.90234375 76.7265625 C-9.68017262 72.91313575 -10.40545157 70.37875574 -10.41992188 65.07202148 C-10.42693115 64.42422729 -10.43394043 63.77643311 -10.44116211 63.10900879 C-10.458687 60.97978131 -10.44714228 58.85189588 -10.43359375 56.72265625 C-10.43628997 55.23722581 -10.44017347 53.75179709 -10.44519043 52.26637268 C-10.45107766 49.15861143 -10.44254697 46.05131107 -10.42382812 42.94360352 C-10.40101831 38.96308764 -10.41417818 34.9836494 -10.43811798 31.00317287 C-10.45258043 27.93789058 -10.44796845 24.87286335 -10.43760681 21.80757332 C-10.43494175 20.33997532 -10.43820158 18.87235405 -10.44752502 17.40478325 C-10.4577012 15.35313534 -10.44217997 13.30322745 -10.41992188 11.25170898 C-10.4167395 10.08542465 -10.41355713 8.91914032 -10.41027832 7.71751404 C-9.37121849 1.59905355 -5.84884601 0.30232604 0 0 Z " fill="#373839" transform="translate(436.90234375,170.2734375)"/>
<path d="M0 0 C2.68711853 1.61561584 2.68711853 1.61561584 5 4 C5.62818909 6.99095154 5.62818909 6.99095154 5.63110352 10.52514648 C5.63825882 11.17118835 5.64541412 11.81723022 5.65278625 12.48284912 C5.66965965 14.61298917 5.65028115 16.74101986 5.62890625 18.87109375 C5.6297352 20.35555698 5.63219557 21.84002013 5.63621521 23.32447815 C5.63907236 26.43412948 5.62438345 29.54306023 5.59692383 32.65258789 C5.56286961 36.63195039 5.56884942 40.61002211 5.5875864 44.58944607 C5.59817386 47.65479725 5.5892025 50.71984996 5.57420158 53.78517342 C5.56903003 55.25193456 5.56948912 56.71872702 5.57574654 58.18548393 C5.58121922 60.23948619 5.56076243 62.29166477 5.53344727 64.34545898 C5.52724869 65.51253891 5.52105011 66.67961884 5.5146637 67.88206482 C4.89527522 71.63444356 3.64443907 73.31543492 1 76 C-1.74448951 76.8630133 -4.20676192 76.6366518 -7 76 C-9.43119623 74.12984906 -10.64069173 72.71861655 -12 70 C-12.10172168 67.9891308 -12.13841392 65.97485453 -12.14526367 63.96142578 C-12.15164352 62.69315948 -12.15802338 61.42489319 -12.16459656 60.11819458 C-12.16612533 58.72723427 -12.16723924 57.33627346 -12.16796875 55.9453125 C-12.17118127 54.52285732 -12.17454534 53.10040248 -12.17805481 51.677948 C-12.1840478 48.69365676 -12.18589457 45.70939449 -12.18530273 42.72509766 C-12.18520118 38.9028526 -12.19884539 35.08079359 -12.21607494 31.25859261 C-12.22720006 28.31947987 -12.22922177 25.380412 -12.22869301 22.44128036 C-12.22987266 21.03228998 -12.23429363 19.62329843 -12.24202538 18.21432877 C-12.2518336 16.2420313 -12.24768081 14.26967939 -12.24291992 12.29736328 C-12.24434494 11.17532501 -12.24576996 10.05328674 -12.24723816 8.89724731 C-11.99986165 5.99837877 -11.6195567 4.39194964 -10 2 C-6.2626144 -0.4915904 -4.42668417 -0.45793285 0 0 Z " fill="#373839" transform="translate(336,171)"/>
<path d="M0 0 C0.63019043 0.14147461 1.26038086 0.28294922 1.90966797 0.42871094 C9.69617461 2.0267352 17.19298952 2.30100971 25.125 2.25 C26.94064453 2.26160156 26.94064453 2.26160156 28.79296875 2.2734375 C34.7899192 2.26038647 40.33106649 2.03040698 46.12841797 0.42871094 C48 0 48 0 52 0 C53.18293184 5.71404503 54.11976653 11.41291792 52 17 C47.4446991 22.3992907 41.17518009 26.02502531 35.17431641 29.62744141 C32.7982333 31.04890536 32.7982333 31.04890536 30.19921875 33.44921875 C28 35 28 35 25.62817383 34.7878418 C22.73964476 33.92195389 21.08748277 32.83315448 18.75 30.9453125 C17.9765625 30.33042969 17.203125 29.71554687 16.40625 29.08203125 C15.6121875 28.43621094 14.818125 27.79039062 14 27.125 C12.41866287 25.85428266 10.83538393 24.58597733 9.25 23.3203125 C8.14531372 22.42421265 8.14531372 22.42421265 7.01831055 21.51000977 C4.93440607 19.84130531 4.93440607 19.84130531 1.95703125 18.59765625 C0 17 0 17 -0.37744141 15.18652344 C-0.49412068 12.87247017 -0.43585865 10.62594911 -0.3125 8.3125 C-0.28994141 7.51521484 -0.26738281 6.71792969 -0.24414062 5.89648438 C-0.18526944 3.93018666 -0.09558755 1.96485509 0 0 Z " fill="#E5BEA7" transform="translate(119,295)"/>
<path d="M0 0 C4.08187671 0.57289498 5.68033728 1.61783728 8.5625 4.5 C9.73945075 6.8539015 9.71380768 8.32066577 9.75537109 10.94628906 C9.77946548 12.32847626 9.77946548 12.32847626 9.80404663 13.73858643 C9.84851715 17.95966877 9.88957146 22.18059354 9.91259766 26.40185547 C9.92914675 28.62689684 9.95642273 30.85188528 9.99462891 33.07666016 C10.04945683 36.28576218 10.07128236 39.49361736 10.0859375 42.703125 C10.10860687 43.69395081 10.13127625 44.68477661 10.15463257 45.70562744 C10.14074363 50.2575669 10.08178906 53.49104288 7.16088867 57.12939453 C4.5625 59.5 4.5625 59.5 2.46484375 60.2265625 C-0.84910667 60.05526486 -3.00206228 59.8387218 -5.65124512 57.7779541 C-7.77217849 55.07319516 -7.94286111 53.82545568 -7.95507812 50.42773438 C-7.96768677 49.41988892 -7.98029541 48.41204346 -7.99328613 47.37365723 C-7.98518921 46.29128784 -7.97709229 45.20891846 -7.96875 44.09375 C-7.9725769 42.97689819 -7.97640381 41.86004639 -7.98034668 40.70935059 C-7.98306756 38.34903054 -7.9756942 35.98868043 -7.95898438 33.62841797 C-7.93757884 30.01331425 -7.95878178 26.40019807 -7.984375 22.78515625 C-7.98173176 20.49218311 -7.97660686 18.1992112 -7.96875 15.90625 C-7.97684692 14.82388062 -7.98494385 13.74151123 -7.99328613 12.62634277 C-7.98067749 11.61849731 -7.96806885 10.61065186 -7.95507812 9.57226562 C-7.95189575 8.68720337 -7.94871338 7.80214111 -7.94543457 6.89025879 C-6.97171923 2.30811023 -4.46644969 0.64966541 0 0 Z " fill="#37383A" transform="translate(400.4375,187.5)"/>
<path d="M0 0 C2.86852894 0.92888039 4.63978021 2.1130106 6.99145508 3.9909668 C7.78745117 4.61938477 8.58344727 5.24780273 9.40356445 5.89526367 C10.22018555 6.55461914 11.03680664 7.21397461 11.87817383 7.89331055 C12.71413086 8.5565332 13.55008789 9.21975586 14.41137695 9.90307617 C16.46936719 11.53770842 18.52034223 13.18038699 20.56567383 14.83081055 C16.97674713 19.82396289 13.30308502 24.31018496 8.87817383 28.58081055 C5.83357555 31.52855438 2.99587755 34.35212428 0.56567383 37.83081055 C-3.47858549 36.25856922 -5.94010266 33.37918032 -8.74682617 30.20581055 C-9.22740479 29.67181641 -9.7079834 29.13782227 -10.203125 28.58764648 C-11.62077491 27.00831184 -13.02924723 25.42133137 -14.43432617 23.83081055 C-15.18456055 22.98260742 -15.93479492 22.1344043 -16.70776367 21.26049805 C-18.29124412 19.45726929 -19.86772823 17.64870577 -21.43432617 15.83081055 C-17.64711932 11.91449437 -13.67159322 8.37821854 -9.43432617 4.95581055 C-8.83104492 4.4453418 -8.22776367 3.93487305 -7.60620117 3.40893555 C-3.10018625 -0.21546776 -3.10018625 -0.21546776 0 0 Z " fill="#E0EDFB" transform="translate(111.434326171875,327.169189453125)"/>
<path d="M0 0 C4.14924367 1.43550906 7.42431386 4.40960287 10.88183594 7.05004883 C11.67460937 7.63206055 12.46738281 8.21407227 13.28417969 8.8137207 C14.033125 9.3828418 14.78207031 9.95196289 15.55371094 10.53833008 C16.24045898 11.05564697 16.92720703 11.57296387 17.63476562 12.10595703 C19.13183594 13.73754883 19.13183594 13.73754883 19.13183594 17.73754883 C17.33153921 19.80685541 15.56617377 21.62840358 13.56933594 23.48754883 C12.4644011 24.54789572 11.36153154 25.61039896 10.26074219 26.67504883 C9.72336426 27.19325195 9.18598633 27.71145508 8.63232422 28.24536133 C6.05105926 30.81234659 3.73783864 33.59288881 1.43652344 36.40942383 C1.00597656 36.84770508 0.57542969 37.28598633 0.13183594 37.73754883 C-0.52816406 37.73754883 -1.18816406 37.73754883 -1.86816406 37.73754883 C-3.31347656 36.26879883 -3.31347656 36.26879883 -4.99316406 34.23754883 C-8.10249473 30.56465197 -11.38516855 27.19964208 -14.87597656 23.88989258 C-17.52270172 21.03039148 -19.6469435 17.93871963 -21.86816406 14.73754883 C-18.91201759 12.42224219 -15.95288347 10.11078576 -12.99316406 7.80004883 C-12.15140625 7.14069336 -11.30964844 6.48133789 -10.44238281 5.80200195 C-9.63671875 5.17358398 -8.83105469 4.54516602 -8.00097656 3.89770508 C-7.25734863 3.31641846 -6.5137207 2.73513184 -5.74755859 2.13623047 C-2.4202558 -0.34001241 -2.4202558 -0.34001241 0 0 Z " fill="#E1EDFB" transform="translate(179.8681640625,327.262451171875)"/>
<path d="M0 0 C2.45910528 1.65739586 3.79136065 2.94409306 4.37771606 5.91159058 C4.54784413 8.34429187 4.58046262 10.74493547 4.56640625 13.18359375 C4.57570412 14.52237328 4.57570412 14.52237328 4.58518982 15.88819885 C4.59228534 17.77351797 4.58911861 19.65889978 4.57641602 21.54418945 C4.56256244 24.42451725 4.59660782 27.30158784 4.63476562 30.18164062 C4.63571698 32.01562579 4.63385711 33.84961502 4.62890625 35.68359375 C4.64216446 36.54206406 4.65542267 37.40053436 4.66908264 38.28501892 C4.60138361 42.64715942 4.40053734 44.47249287 1.68334961 48.05102539 C-1.81505131 50.59198932 -3.76336971 50.61623713 -8 50 C-11.1850357 48.23984869 -11.83296972 47.50109084 -13 44 C-13.13319965 41.1092919 -13.21228972 38.24351389 -13.23828125 35.3515625 C-13.246353 34.50201996 -13.25442474 33.65247742 -13.26274109 32.77719116 C-13.27656548 30.98006217 -13.28729499 29.18290711 -13.29516602 27.38574219 C-13.31239281 24.64207154 -13.356294 21.89960192 -13.40039062 19.15625 C-13.41051689 17.40886301 -13.4190332 15.6614658 -13.42578125 13.9140625 C-13.44328934 13.0962027 -13.46079742 12.2783429 -13.47883606 11.43569946 C-13.463609 7.42408876 -13.30248033 5.47634147 -11.09838867 2.00537109 C-7.30473248 -1.62011953 -5.0461452 -1.13103255 0 0 Z " fill="#373839" transform="translate(303,197)"/>
<path d="M0 0 C3.19121652 23.57572575 3.19121652 23.57572575 -1.96289062 32.33642578 C-7.19765671 38.73207823 -13.39968073 44.05414906 -20 49 C-23.75063872 45.41940735 -24.87246478 42.55692352 -25.30078125 37.328125 C-25.46228129 26.21176495 -24.41477841 17.94431539 -17.16796875 9.15234375 C-12.38830472 4.40712775 -6.86792394 0 0 0 Z " fill="#64CAA8" transform="translate(418,53)"/>
<path d="M0 0 C-1.14637365 7.97022304 -5.13712334 14.04431407 -11.578125 18.97265625 C-14.01352904 20.45650272 -16.41791439 21.79109532 -19 23 C-19.7528125 23.37253906 -20.505625 23.74507812 -21.28125 24.12890625 C-24.95171843 25.30493277 -28.49559742 25.38167948 -32.3125 25.375 C-33.06781006 25.37628906 -33.82312012 25.37757812 -34.60131836 25.37890625 C-40.33253589 25.26984643 -44.1933518 24.27261154 -49 21 C-48.63140869 20.58097412 -48.26281738 20.16194824 -47.88305664 19.73022461 C-45.21345209 16.66075243 -42.69181629 13.5964854 -40.37109375 10.25390625 C-29.91775912 -3.49627723 -15.73375236 -1.43263104 0 0 Z " fill="#FBE16D" transform="translate(459,94)"/>
<path d="M0 0 C4.12225299 0.73611661 5.62661181 1.60197192 8.5 4.625 C8.99801067 7.3961356 9.18051101 9.54697107 9.12890625 12.3125 C9.13131821 13.05201904 9.13373016 13.79153809 9.13621521 14.5534668 C9.13523782 16.11349868 9.12186956 17.67356571 9.09692383 19.23339844 C9.06260453 21.61773797 9.07626742 23.99837127 9.09570312 26.3828125 C9.08880438 27.9010574 9.07913172 29.41929276 9.06640625 30.9375 C9.07136612 31.64801514 9.07632599 32.35853027 9.08143616 33.09057617 C9.00192662 36.44185886 8.71304353 38.33431433 6.71069336 41.06640625 C4.06182303 42.93392566 1.80429919 43.18581157 -1.40234375 43.3515625 C-4.06707618 42.42858255 -5.76498924 41.1064766 -7.4855957 38.87646484 C-9.62690148 34.12384826 -9.23152384 28.81031073 -9.15185547 23.68457031 C-9.12505196 21.6289846 -9.15164679 19.57885567 -9.18359375 17.5234375 C-9.12925563 6.50366702 -9.12925563 6.50366702 -6.1796875 2.7265625 C-3.5 0.625 -3.5 0.625 0 0 Z " fill="#37383A" transform="translate(366.5,204.375)"/>
<path d="M0 0 C8.57750382 1.42958397 14.38674809 5.48144968 19.78125 12.26953125 C22.62177936 16.30271877 24 19.03869327 24 24 C16.08 24 8.16 24 0 24 C0 16.08 0 8.16 0 0 Z " fill="#73DFC0" transform="translate(435,53)"/>
<path d="M0 0 C3.50677532 2.70931621 4.84992515 4.18783024 5.6640625 8.59375 C5.64472656 10.52734375 5.64472656 10.52734375 5.625 12.5 C5.63789063 13.7890625 5.65078125 15.078125 5.6640625 16.40625 C4.8498711 20.8124623 3.51493808 22.29856287 0 25 C-3.80595431 25.53416903 -5.99445927 25.55569356 -9.375 23.6875 C-13.27042866 19.64224716 -12.38869662 13.59814797 -12.33984375 8.34375 C-12 5 -12 5 -9.9375 1.625 C-6.20282869 -0.44098839 -4.20689051 -0.75123045 0 0 Z " fill="#373839" transform="translate(268,222)"/>
</svg>
