<?xml version="1.0" encoding="UTF-8"?>
<svg version="1.1" xmlns="http://www.w3.org/2000/svg" width="512" height="512">
<path d="M0 0 C53.46 0 106.92 0 162 0 C162 9.57 162 19.14 162 29 C164.15490967 28.97381592 166.30981934 28.94763184 168.5300293 28.9206543 C175.65450813 28.83775885 182.77900842 28.78255798 189.90384197 28.74093914 C194.2231824 28.71485918 198.54202822 28.6794913 202.86108398 28.62280273 C207.0302751 28.56842443 211.19899088 28.53856741 215.36850929 28.52561378 C216.9581634 28.51638421 218.54779186 28.49836043 220.13724327 28.47134972 C222.36639725 28.43497905 224.59359448 28.43005755 226.82299805 28.43237305 C228.09096725 28.42126999 229.35893646 28.41016693 230.66532898 28.39872742 C235.02637972 29.18506593 236.27209609 30.54332247 239 34 C239.49235729 36.82418532 239.67635341 39.04558806 239.63250732 41.86341858 C239.64015743 42.64891049 239.64780755 43.43440241 239.65568948 44.24369711 C239.67527639 46.87265491 239.6593329 49.50018481 239.64355469 52.12915039 C239.65037048 54.01500839 239.65939237 55.90085952 239.67045593 57.78669739 C239.69436536 62.90647789 239.68773633 68.02582346 239.67596722 73.14562917 C239.66912303 78.50098573 239.69121932 83.85621777 239.71051025 89.21153259 C239.74282953 99.35684928 239.75062489 109.50202375 239.74893594 119.64738601 C239.74747606 134.54358886 239.78097521 149.43972171 239.81666946 164.33587551 C239.82189449 166.53197669 239.82711683 168.72807788 239.83233643 170.92417908 C239.83494138 171.99618118 239.83754633 173.06818329 239.84023023 174.1726703 C239.85488374 180.55329266 239.86181335 186.9338659 239.86198473 193.31450474 C239.86263087 197.27966029 239.86697652 201.24480682 239.87195778 205.20995903 C239.87332103 207.05143565 239.87294176 208.89291449 239.87071037 210.73439026 C239.86780978 213.24414168 239.87091268 215.75381768 239.87542725 218.26356506 C239.87299475 218.99556517 239.87056226 219.72756528 239.86805606 220.48174721 C239.87993108 223.82774664 240.12259833 226.77601212 241 230 C240.67 230.33 240.34 230.66 240 231 C239.90222217 233.57979267 239.87005112 236.13279328 239.87974548 238.71302795 C239.87889106 239.53059285 239.87803663 240.34815775 239.87715632 241.19049734 C239.87549901 243.95132011 239.88102696 246.71208315 239.88647461 249.47290039 C239.88675645 251.44346617 239.8865988 253.41403206 239.8860321 255.38459778 C239.88574402 260.75214509 239.8916425 266.11967027 239.89860606 271.48721242 C239.9048378 277.08997947 239.90544326 282.69274698 239.90663147 288.29551697 C239.90974532 298.91319558 239.91795943 309.53086396 239.92798096 320.14853805 C239.93914043 332.23297324 239.94465213 344.31740891 239.94967639 356.40184796 C239.960142 381.26790433 239.97774247 406.13395159 240 431 C240.639375 430.814375 241.27875 430.62875 241.9375 430.4375 C242.618125 430.293125 243.29875 430.14875 244 430 C244.33 430.33 244.66 430.66 245 431 C244.60918594 435.98287932 243.44012039 439.65022018 241 444 C240.34 444 239.68 444 239 444 C239.02618408 445.00377686 239.05236816 446.00755371 239.0793457 447.04174805 C239.17008168 450.77817352 239.22733262 454.51450235 239.2746582 458.25170898 C239.29974959 459.86678461 239.33383126 461.48174726 239.37719727 463.09643555 C239.43809286 465.42264706 239.46626124 467.74735359 239.48828125 470.07421875 C239.51408768 470.79212082 239.5398941 471.51002289 239.56648254 472.24967957 C239.56841343 475.72807556 239.14528393 477.78065582 237.2162981 480.69296551 C232.33127893 484.19696525 227.84375351 483.6752155 221.97160339 483.60127258 C220.73818201 483.60554471 219.50476062 483.60981683 218.23396283 483.61421841 C214.81285174 483.62103175 211.39317021 483.60540407 207.97223198 483.58032811 C204.28244255 483.55873867 200.59269738 483.56604245 196.90286255 483.56983948 C190.51092756 483.57246144 184.11924774 483.55677212 177.72737694 483.52865028 C168.48584629 483.48801747 159.24443905 483.47499331 150.00282875 483.46871033 C135.00905873 483.45776678 120.0154247 483.424491 105.02172852 483.37719727 C90.45663127 483.3313032 75.89157097 483.29591055 61.32641602 483.2746582 C60.42864396 483.27334459 59.53087191 483.27203097 58.60589465 483.27067754 C54.1020426 483.26415236 49.5981903 483.25783382 45.09433782 483.25161803 C7.72946252 483.19978317 -29.63525815 483.11171628 -67 483 C-67 483.99 -67 484.98 -67 486 C-82.51 486 -98.02 486 -114 486 C-117.37644292 476.99615221 -117.37644292 476.99615221 -118.47045898 472.83520508 C-118.7175914 471.90255325 -118.96472382 470.96990143 -119.21934509 470.00898743 C-119.47567215 469.02246689 -119.73199921 468.03594635 -119.99609375 467.01953125 C-120.2709108 465.97085373 -120.54572784 464.92217621 -120.82887268 463.84172058 C-121.40838322 461.62430338 -121.98564627 459.40629773 -122.56079102 457.18774414 C-123.42365348 453.86580774 -124.29827258 450.54712569 -125.17382812 447.22851562 C-128.65917804 433.89928114 -131.62789736 420.57195067 -134 407 C-134.16072998 408.15113281 -134.32145996 409.30226563 -134.48706055 410.48828125 C-136.07367141 421.40380492 -138.28409067 431.98175354 -141.16918945 442.625 C-141.81175716 444.99725757 -142.43920419 447.37312557 -143.06445312 449.75 C-146.03669973 460.94470132 -149.43054332 471.98241586 -153 483 C-159.6752034 483.02526945 -166.35039457 483.04283268 -173.02563477 483.05493164 C-175.29842591 483.05997325 -177.5712138 483.06680637 -179.84399414 483.07543945 C-183.10303551 483.08751261 -186.36203417 483.09322987 -189.62109375 483.09765625 C-190.64400009 483.10281754 -191.66690643 483.10797882 -192.72080994 483.11329651 C-193.66170975 483.11337204 -194.60260956 483.11344757 -195.57202148 483.11352539 C-196.40475082 483.115746 -197.23748016 483.11796661 -198.09544373 483.12025452 C-200 483 -200 483 -201 482 C-201.10961712 480.25807146 -201.14910283 478.51169012 -201.16113281 476.76635742 C-201.17062454 475.64019012 -201.18011627 474.51402283 -201.18989563 473.35372925 C-201.19426132 472.11680328 -201.19862701 470.87987732 -201.203125 469.60546875 C-201.2098674 468.32648712 -201.2166098 467.04750549 -201.22355652 465.72976685 C-201.23928925 462.26489943 -201.24554375 458.80007859 -201.24818039 455.33517838 C-201.24999227 453.19662248 -201.2540058 451.05807776 -201.25808716 448.91952515 C-201.28586446 428.04829011 -200.63577758 407.40722531 -198.16186523 386.66137695 C-197.82747804 383.89550404 -197.82747804 383.89550404 -199 381 C-198.71801758 378.90405273 -198.71801758 378.90405273 -198.14453125 376.43359375 C-197.93594482 375.48863037 -197.7273584 374.54366699 -197.51245117 373.57006836 C-197.28146729 372.5363208 -197.0504834 371.50257324 -196.8125 370.4375 C-194.47508877 359.48710246 -192.94083676 348.55580055 -191.6875 337.4375 C-191.60078033 336.66832245 -191.51406067 335.8991449 -191.42471313 335.10665894 C-190.93582331 330.73923151 -190.46175208 326.37039136 -190 322 C-191.88332031 321.80277344 -191.88332031 321.80277344 -193.8046875 321.6015625 C-200.26593795 320.92492231 -204.5952585 317.06756056 -208.61328125 312.1953125 C-220.71497486 293.03713838 -216.369995 259.4590968 -211.65039062 238.47558594 C-210.24990997 233.14492758 -208.15881098 228.54327725 -205 224 C-204.56042969 223.33613281 -204.12085938 222.67226562 -203.66796875 221.98828125 C-195.76670173 211.49120893 -183.02012607 207.98688403 -171 204.5625 C-169.48523868 204.11410858 -167.97091173 203.66424705 -166.45703125 203.21289062 C-165.01340951 202.7877405 -163.56941204 202.36386362 -162.125 201.94140625 C-161.45315674 201.74462784 -160.78131348 201.54784943 -160.08911133 201.34510803 C-157.28365741 200.54778967 -154.93418024 200 -152 200 C-152.07135175 196.60106233 -152.27930875 193.32789784 -153 190 C-155.2094183 187.89816542 -155.2094183 187.89816542 -158 186 C-161.96717434 180.62481175 -164.70771326 175.7225951 -165 169 C-165.5775 168.95875 -166.155 168.9175 -166.75 168.875 C-170.29672174 167.49571932 -171.25436586 165.31068543 -173 162 C-173.89773235 158.46431567 -174.30544565 155.16521859 -173.3671875 151.5859375 C-172.89049968 148.22883819 -173.77567122 146.67890475 -175.3125 143.6875 C-180.05981031 133.77089624 -182.03275161 123.57420925 -179.1015625 112.65234375 C-178.15484297 110.05054363 -177.15081414 107.51740592 -176 105 C-177.04329468 104.60627197 -177.04329468 104.60627197 -178.10766602 104.20458984 C-181.27855788 102.88398712 -184.2484546 101.34695219 -187.27734375 99.7265625 C-187.87685852 99.40661316 -188.47637329 99.08666382 -189.09405518 98.75701904 C-191.04331434 97.71568728 -192.99046227 96.67047856 -194.9375 95.625 C-196.28875388 94.90173499 -197.6400728 94.17859148 -198.99145508 93.45556641 C-209.52847698 87.81242835 -220.0327483 82.10985134 -230.51318359 76.36230469 C-235.00515747 73.90155324 -239.50283838 71.45125403 -244 69 C-244 68.34 -244 67.68 -244 67 C-243.41847168 66.69932617 -242.83694336 66.39865234 -242.23779297 66.08886719 C-230.6346058 60.08181705 -219.08178233 53.99856964 -207.62646484 47.71386719 C-200.1102232 43.5938139 -192.55964072 39.53965303 -185 35.5 C-176.44252043 30.92479146 -167.8942861 26.33355677 -159.375 21.6875 C-158.49489258 21.20764648 -157.61478516 20.72779297 -156.70800781 20.23339844 C-152.36207584 17.85770913 -148.02891152 15.4613169 -143.7109375 13.03515625 C-142.45531006 12.33096558 -142.45531006 12.33096558 -141.17431641 11.61254883 C-139.59881836 10.72706498 -138.02544552 9.83778537 -136.45458984 8.9440918 C-131.22024226 6 -131.22024226 6 -129 6 C-129 32.07 -129 58.14 -129 85 C-123.555 85.99 -123.555 85.99 -118 87 C-107.89319667 90.78877126 -99.03812415 96.20224335 -93.625 105.8125 C-88.13717397 118.34913369 -89.6256364 131.01426479 -94.19702148 143.53393555 C-95.90577394 148.31781994 -96.49613273 152.65339805 -96.765625 157.69140625 C-97.18464881 161.8187908 -98.95741979 164.74890374 -101.5625 167.875 C-103 169 -103 169 -105 169 C-105.061875 169.804375 -105.12375 170.60875 -105.1875 171.4375 C-106.65879894 177.88857998 -109.42775501 183.06793469 -114.8125 187 C-117.05279193 188.70480752 -117.92048099 189.42222425 -118.3112793 192.26171875 C-118.27429932 193.06222656 -118.23731934 193.86273438 -118.19921875 194.6875 C-118.17045654 195.49574219 -118.14169434 196.30398437 -118.11206055 197.13671875 C-118.07508057 197.75160156 -118.03810059 198.36648437 -118 199 C-116.97116699 199.25692627 -115.94233398 199.51385254 -114.88232422 199.77856445 C-111.04507939 200.7387973 -107.21021244 201.70824828 -103.37597656 202.68041992 C-101.72003016 203.09893273 -100.06345949 203.51498385 -98.40625 203.9284668 C-96.01652098 204.52518099 -93.62921911 205.13087827 -91.2421875 205.73828125 C-90.14026566 206.01035149 -90.14026566 206.01035149 -89.01608276 206.28791809 C-88.31580963 206.46787827 -87.6155365 206.64783844 -86.89404297 206.83325195 C-85.98137161 207.06308525 -85.98137161 207.06308525 -85.05026245 207.29756165 C-82.25608608 208.2548716 -79.64179695 209.67910152 -77 211 C-77 165.46 -77 119.92 -77 73 C-78.98 73 -80.96 73 -83 73 C-83.33 71.35 -83.66 69.7 -84 68 C-79.25 66.875 -79.25 66.875 -77 68 C-77.02618408 66.99622314 -77.05236816 65.99244629 -77.0793457 64.95825195 C-77.17008168 61.22182648 -77.22733262 57.48549765 -77.2746582 53.74829102 C-77.29974959 52.13321539 -77.33383126 50.51825274 -77.37719727 48.90356445 C-77.43809286 46.57735294 -77.46626124 44.25264641 -77.48828125 41.92578125 C-77.52699089 40.84892815 -77.52699089 40.84892815 -77.56648254 39.75032043 C-77.5685283 36.06497887 -77.18901674 34.24409871 -74.91308594 31.30493164 C-71.26777998 28.42064288 -69.43009465 28.39203069 -64.82299805 28.43237305 C-63.76851723 28.43127785 -63.76851723 28.43127785 -62.69273376 28.43016052 C-60.38159556 28.43362909 -58.07250238 28.47244991 -55.76171875 28.51171875 C-54.15461834 28.52104962 -52.54750366 28.52816444 -50.94038391 28.53315735 C-46.71992406 28.55220599 -42.5003309 28.60128726 -38.2802124 28.65667725 C-33.97013065 28.70791648 -29.65990821 28.7306813 -25.34960938 28.75585938 C-16.89929841 28.80940937 -8.44985703 28.89732667 0 29 C0 19.43 0 9.86 0 0 Z " fill="#FEFEFE" transform="translate(247,13)"/>
<path d="M0 0 C53.46 0 106.92 0 162 0 C162 9.57 162 19.14 162 29 C164.15490967 28.97381592 166.30981934 28.94763184 168.5300293 28.9206543 C175.65450813 28.83775885 182.77900842 28.78255798 189.90384197 28.74093914 C194.2231824 28.71485918 198.54202822 28.6794913 202.86108398 28.62280273 C207.0302751 28.56842443 211.19899088 28.53856741 215.36850929 28.52561378 C216.9581634 28.51638421 218.54779186 28.49836043 220.13724327 28.47134972 C222.36639725 28.43497905 224.59359448 28.43005755 226.82299805 28.43237305 C228.09096725 28.42126999 229.35893646 28.41016693 230.66532898 28.39872742 C235.02637972 29.18506593 236.27209609 30.54332247 239 34 C239.49235729 36.82418532 239.67635341 39.04558806 239.63250732 41.86341858 C239.64015743 42.64891049 239.64780755 43.43440241 239.65568948 44.24369711 C239.67527639 46.87265491 239.6593329 49.50018481 239.64355469 52.12915039 C239.65037048 54.01500839 239.65939237 55.90085952 239.67045593 57.78669739 C239.69436536 62.90647789 239.68773633 68.02582346 239.67596722 73.14562917 C239.66912303 78.50098573 239.69121932 83.85621777 239.71051025 89.21153259 C239.74282953 99.35684928 239.75062489 109.50202375 239.74893594 119.64738601 C239.74747606 134.54358886 239.78097521 149.43972171 239.81666946 164.33587551 C239.82189449 166.53197669 239.82711683 168.72807788 239.83233643 170.92417908 C239.83494138 171.99618118 239.83754633 173.06818329 239.84023023 174.1726703 C239.85488374 180.55329266 239.86181335 186.9338659 239.86198473 193.31450474 C239.86263087 197.27966029 239.86697652 201.24480682 239.87195778 205.20995903 C239.87332103 207.05143565 239.87294176 208.89291449 239.87071037 210.73439026 C239.86780978 213.24414168 239.87091268 215.75381768 239.87542725 218.26356506 C239.87299475 218.99556517 239.87056226 219.72756528 239.86805606 220.48174721 C239.87993108 223.82774664 240.12259833 226.77601212 241 230 C240.67 230.33 240.34 230.66 240 231 C239.90222217 233.57979267 239.87005112 236.13279328 239.87974548 238.71302795 C239.87889106 239.53059285 239.87803663 240.34815775 239.87715632 241.19049734 C239.87549901 243.95132011 239.88102696 246.71208315 239.88647461 249.47290039 C239.88675645 251.44346617 239.8865988 253.41403206 239.8860321 255.38459778 C239.88574402 260.75214509 239.8916425 266.11967027 239.89860606 271.48721242 C239.9048378 277.08997947 239.90544326 282.69274698 239.90663147 288.29551697 C239.90974532 298.91319558 239.91795943 309.53086396 239.92798096 320.14853805 C239.93914043 332.23297324 239.94465213 344.31740891 239.94967639 356.40184796 C239.960142 381.26790433 239.97774247 406.13395159 240 431 C240.639375 430.814375 241.27875 430.62875 241.9375 430.4375 C242.618125 430.293125 243.29875 430.14875 244 430 C244.33 430.33 244.66 430.66 245 431 C244.60918594 435.98287932 243.44012039 439.65022018 241 444 C240.34 444 239.68 444 239 444 C239.02618408 445.00377686 239.05236816 446.00755371 239.0793457 447.04174805 C239.17008168 450.77817352 239.22733262 454.51450235 239.2746582 458.25170898 C239.29974959 459.86678461 239.33383126 461.48174726 239.37719727 463.09643555 C239.43809286 465.42264706 239.46626124 467.74735359 239.48828125 470.07421875 C239.51408768 470.79212082 239.5398941 471.51002289 239.56648254 472.24967957 C239.56841343 475.72807556 239.14528393 477.78065582 237.2162981 480.69296551 C232.33127893 484.19696525 227.84375351 483.6752155 221.97160339 483.60127258 C220.73818201 483.60554471 219.50476062 483.60981683 218.23396283 483.61421841 C214.81285174 483.62103175 211.39317021 483.60540407 207.97223198 483.58032811 C204.28244255 483.55873867 200.59269738 483.56604245 196.90286255 483.56983948 C190.51092756 483.57246144 184.11924774 483.55677212 177.72737694 483.52865028 C168.48584629 483.48801747 159.24443905 483.47499331 150.00282875 483.46871033 C135.00905873 483.45776678 120.0154247 483.424491 105.02172852 483.37719727 C90.45663127 483.3313032 75.89157097 483.29591055 61.32641602 483.2746582 C60.42864396 483.27334459 59.53087191 483.27203097 58.60589465 483.27067754 C54.1020426 483.26415236 49.5981903 483.25783382 45.09433782 483.25161803 C7.72946252 483.19978317 -29.63525815 483.11171628 -67 483 C-67 483.99 -67 484.98 -67 486 C-82.51 486 -98.02 486 -114 486 C-117.37644292 476.99615221 -117.37644292 476.99615221 -118.47045898 472.83520508 C-118.7175914 471.90255325 -118.96472382 470.96990143 -119.21934509 470.00898743 C-119.47567215 469.02246689 -119.73199921 468.03594635 -119.99609375 467.01953125 C-120.2709108 465.97085373 -120.54572784 464.92217621 -120.82887268 463.84172058 C-121.40838322 461.62430338 -121.98564627 459.40629773 -122.56079102 457.18774414 C-123.42365348 453.86580774 -124.29827258 450.54712569 -125.17382812 447.22851562 C-128.65917804 433.89928114 -131.62789736 420.57195067 -134 407 C-134.16072998 408.15113281 -134.32145996 409.30226563 -134.48706055 410.48828125 C-136.07367141 421.40380492 -138.28409067 431.98175354 -141.16918945 442.625 C-141.81175716 444.99725757 -142.43920419 447.37312557 -143.06445312 449.75 C-146.03669973 460.94470132 -149.43054332 471.98241586 -153 483 C-159.6752034 483.02526945 -166.35039457 483.04283268 -173.02563477 483.05493164 C-175.29842591 483.05997325 -177.5712138 483.06680637 -179.84399414 483.07543945 C-183.10303551 483.08751261 -186.36203417 483.09322987 -189.62109375 483.09765625 C-190.64400009 483.10281754 -191.66690643 483.10797882 -192.72080994 483.11329651 C-193.66170975 483.11337204 -194.60260956 483.11344757 -195.57202148 483.11352539 C-196.40475082 483.115746 -197.23748016 483.11796661 -198.09544373 483.12025452 C-200 483 -200 483 -201 482 C-201.10961712 480.25807146 -201.14910283 478.51169012 -201.16113281 476.76635742 C-201.17062454 475.64019012 -201.18011627 474.51402283 -201.18989563 473.35372925 C-201.19426132 472.11680328 -201.19862701 470.87987732 -201.203125 469.60546875 C-201.2098674 468.32648712 -201.2166098 467.04750549 -201.22355652 465.72976685 C-201.23928925 462.26489943 -201.24554375 458.80007859 -201.24818039 455.33517838 C-201.24999227 453.19662248 -201.2540058 451.05807776 -201.25808716 448.91952515 C-201.28586446 428.04829011 -200.63577758 407.40722531 -198.16186523 386.66137695 C-197.82747804 383.89550404 -197.82747804 383.89550404 -199 381 C-198.71801758 378.90405273 -198.71801758 378.90405273 -198.14453125 376.43359375 C-197.93594482 375.48863037 -197.7273584 374.54366699 -197.51245117 373.57006836 C-197.28146729 372.5363208 -197.0504834 371.50257324 -196.8125 370.4375 C-194.47508877 359.48710246 -192.94083676 348.55580055 -191.6875 337.4375 C-191.60078033 336.66832245 -191.51406067 335.8991449 -191.42471313 335.10665894 C-190.93582331 330.73923151 -190.46175208 326.37039136 -190 322 C-191.88332031 321.80277344 -191.88332031 321.80277344 -193.8046875 321.6015625 C-200.26593795 320.92492231 -204.5952585 317.06756056 -208.61328125 312.1953125 C-220.71497486 293.03713838 -216.369995 259.4590968 -211.65039062 238.47558594 C-210.24990997 233.14492758 -208.15881098 228.54327725 -205 224 C-204.56042969 223.33613281 -204.12085938 222.67226562 -203.66796875 221.98828125 C-195.76670173 211.49120893 -183.02012607 207.98688403 -171 204.5625 C-169.48523868 204.11410858 -167.97091173 203.66424705 -166.45703125 203.21289062 C-165.01340951 202.7877405 -163.56941204 202.36386362 -162.125 201.94140625 C-161.45315674 201.74462784 -160.78131348 201.54784943 -160.08911133 201.34510803 C-157.28365741 200.54778967 -154.93418024 200 -152 200 C-152.07135175 196.60106233 -152.27930875 193.32789784 -153 190 C-155.2094183 187.89816542 -155.2094183 187.89816542 -158 186 C-161.96717434 180.62481175 -164.70771326 175.7225951 -165 169 C-165.5775 168.95875 -166.155 168.9175 -166.75 168.875 C-170.29672174 167.49571932 -171.25436586 165.31068543 -173 162 C-173.89773235 158.46431567 -174.30544565 155.16521859 -173.3671875 151.5859375 C-172.89049968 148.22883819 -173.77567122 146.67890475 -175.3125 143.6875 C-180.05981031 133.77089624 -182.03275161 123.57420925 -179.1015625 112.65234375 C-178.15484297 110.05054363 -177.15081414 107.51740592 -176 105 C-177.04329468 104.60627197 -177.04329468 104.60627197 -178.10766602 104.20458984 C-181.27855788 102.88398712 -184.2484546 101.34695219 -187.27734375 99.7265625 C-187.87685852 99.40661316 -188.47637329 99.08666382 -189.09405518 98.75701904 C-191.04331434 97.71568728 -192.99046227 96.67047856 -194.9375 95.625 C-196.28875388 94.90173499 -197.6400728 94.17859148 -198.99145508 93.45556641 C-209.52847698 87.81242835 -220.0327483 82.10985134 -230.51318359 76.36230469 C-235.00515747 73.90155324 -239.50283838 71.45125403 -244 69 C-244 68.34 -244 67.68 -244 67 C-243.41847168 66.69932617 -242.83694336 66.39865234 -242.23779297 66.08886719 C-230.6346058 60.08181705 -219.08178233 53.99856964 -207.62646484 47.71386719 C-200.1102232 43.5938139 -192.55964072 39.53965303 -185 35.5 C-176.44252043 30.92479146 -167.8942861 26.33355677 -159.375 21.6875 C-158.49489258 21.20764648 -157.61478516 20.72779297 -156.70800781 20.23339844 C-152.36207584 17.85770913 -148.02891152 15.4613169 -143.7109375 13.03515625 C-142.45531006 12.33096558 -142.45531006 12.33096558 -141.17431641 11.61254883 C-139.59881836 10.72706498 -138.02544552 9.83778537 -136.45458984 8.9440918 C-131.22024226 6 -131.22024226 6 -129 6 C-129 32.07 -129 58.14 -129 85 C-123.555 85.99 -123.555 85.99 -118 87 C-107.89319667 90.78877126 -99.03812415 96.20224335 -93.625 105.8125 C-88.13717397 118.34913369 -89.6256364 131.01426479 -94.19702148 143.53393555 C-95.90577394 148.31781994 -96.49613273 152.65339805 -96.765625 157.69140625 C-97.18464881 161.8187908 -98.95741979 164.74890374 -101.5625 167.875 C-103 169 -103 169 -105 169 C-105.061875 169.804375 -105.12375 170.60875 -105.1875 171.4375 C-106.65879894 177.88857998 -109.42775501 183.06793469 -114.8125 187 C-117.05279193 188.70480752 -117.92048099 189.42222425 -118.3112793 192.26171875 C-118.27429932 193.06222656 -118.23731934 193.86273438 -118.19921875 194.6875 C-118.17045654 195.49574219 -118.14169434 196.30398437 -118.11206055 197.13671875 C-118.07508057 197.75160156 -118.03810059 198.36648437 -118 199 C-116.97116699 199.25692627 -115.94233398 199.51385254 -114.88232422 199.77856445 C-111.04507939 200.7387973 -107.21021244 201.70824828 -103.37597656 202.68041992 C-101.72003016 203.09893273 -100.06345949 203.51498385 -98.40625 203.9284668 C-96.01652098 204.52518099 -93.62921911 205.13087827 -91.2421875 205.73828125 C-90.14026566 206.01035149 -90.14026566 206.01035149 -89.01608276 206.28791809 C-88.31580963 206.46787827 -87.6155365 206.64783844 -86.89404297 206.83325195 C-85.98137161 207.06308525 -85.98137161 207.06308525 -85.05026245 207.29756165 C-82.25608608 208.2548716 -79.64179695 209.67910152 -77 211 C-77 165.46 -77 119.92 -77 73 C-78.98 73 -80.96 73 -83 73 C-83.33 71.35 -83.66 69.7 -84 68 C-79.25 66.875 -79.25 66.875 -77 68 C-77.02618408 66.99622314 -77.05236816 65.99244629 -77.0793457 64.95825195 C-77.17008168 61.22182648 -77.22733262 57.48549765 -77.2746582 53.74829102 C-77.29974959 52.13321539 -77.33383126 50.51825274 -77.37719727 48.90356445 C-77.43809286 46.57735294 -77.46626124 44.25264641 -77.48828125 41.92578125 C-77.52699089 40.84892815 -77.52699089 40.84892815 -77.56648254 39.75032043 C-77.5685283 36.06497887 -77.18901674 34.24409871 -74.91308594 31.30493164 C-71.26777998 28.42064288 -69.43009465 28.39203069 -64.82299805 28.43237305 C-63.76851723 28.43127785 -63.76851723 28.43127785 -62.69273376 28.43016052 C-60.38159556 28.43362909 -58.07250238 28.47244991 -55.76171875 28.51171875 C-54.15461834 28.52104962 -52.54750366 28.52816444 -50.94038391 28.53315735 C-46.71992406 28.55220599 -42.5003309 28.60128726 -38.2802124 28.65667725 C-33.97013065 28.70791648 -29.65990821 28.7306813 -25.34960938 28.75585938 C-16.89929841 28.80940937 -8.44985703 28.89732667 0 29 C0 19.43 0 9.86 0 0 Z M-63 43 C-63.09031952 66.72207502 -63.16399327 90.44401066 -63.20724869 114.16621399 C-63.2278674 125.18102172 -63.25597491 136.19571497 -63.30175781 147.21044922 C-63.34164658 156.81172068 -63.36743783 166.41290923 -63.37635398 176.01426125 C-63.38156524 181.09738047 -63.39379941 186.18026251 -63.42292023 191.26330566 C-63.45012146 196.05018337 -63.45843544 200.83672674 -63.45243073 205.62367439 C-63.45352885 207.37802003 -63.46145466 209.13237714 -63.4768219 210.88665581 C-63.70146599 223.01981814 -63.70146599 223.01981814 -59 234 C-57.95092773 237.17700195 -57.95092773 237.17700195 -57.18359375 240.23828125 C-56.89564941 241.37910156 -56.60770508 242.51992187 -56.31103516 243.6953125 C-55.87863525 245.48582031 -55.87863525 245.48582031 -55.4375 247.3125 C-55.13376465 248.55128906 -54.8300293 249.79007813 -54.51708984 251.06640625 C-42.26533103 302.11209183 -42.26533103 302.11209183 -52.54793644 321.13562584 C-54.31594782 323.40566059 -56.01984588 324.12264813 -58.58848572 325.38467407 C-61.58876962 327.33887297 -62.7948058 328.30597367 -63.8206501 331.77567673 C-64.11062634 335.38961249 -64.11282273 338.90799853 -64.02172852 342.53271484 C-64.01918774 343.91289096 -64.020619 345.29307923 -64.02571106 346.67324829 C-64.02828819 350.40938414 -63.97547283 354.14290696 -63.91254544 357.87843657 C-63.85618992 361.78606036 -63.85098975 365.69374762 -63.84031677 369.60171509 C-63.81237012 376.99694563 -63.73855392 384.39097528 -63.64817137 391.78567755 C-63.54748922 400.20628446 -63.49806961 408.62694947 -63.45291245 417.04800868 C-63.35889978 434.36603317 -63.20065191 451.68288952 -63 469 C-48.6648467 470.0031833 -34.38184676 470.14735144 -20.015625 470.1328125 C-17.62457265 470.13348872 -15.23352038 470.13446137 -12.84246826 470.13571167 C-7.85021302 470.13717712 -2.85797579 470.13507374 2.13427734 470.13037109 C8.43982275 470.124712 14.7453252 470.1279359 21.05086899 470.13394356 C25.98804021 470.13761269 30.92520179 470.13638135 35.86237335 470.13381577 C38.18209081 470.13316194 40.50180924 470.13391885 42.82152557 470.13629532 C60.57980336 470.15048672 78.23468011 469.59217733 96 469 C96 426.1 96 383.2 96 339 C109.53 339 123.06 339 137 339 C137 381.9 137 424.8 137 469 C146.9 469 156.8 469 167 469 C167 433.03 167 397.06 167 360 C170.96 360.33 174.92 360.66 179 361 C188.24 361 197.48 361 207 361 C207 396.64 207 432.28 207 469 C212.94 469 218.88 469 225 469 C225 328.42 225 187.84 225 43 C204.21 43 183.42 43 162 43 C162 47.95 162 52.9 162 58 C108.54 58 55.08 58 0 58 C0 53.05 0 48.1 0 43 C-20.79 43 -41.58 43 -63 43 Z " fill="#855ACA" transform="translate(247,13)"/>
<path d="M0 0 C53.46 0 106.92 0 162 0 C162 13.86 162 27.72 162 42 C183.12 42 204.24 42 226 42 C226 183.24 226 324.48 226 470 C173.2 470 120.4 470 66 470 C66 469.67 66 469.34 66 469 C75.9 469 85.8 469 96 469 C96 426.1 96 383.2 96 339 C109.53 339 123.06 339 137 339 C137 381.9 137 424.8 137 469 C146.9 469 156.8 469 167 469 C167 433.03 167 397.06 167 360 C186.8 360.495 186.8 360.495 207 361 C207 396.64 207 432.28 207 469 C212.94 469 218.88 469 225 469 C225 328.42 225 187.84 225 43 C204.21 43 183.42 43 162 43 C162 47.95 162 52.9 162 58 C108.54 58 55.08 58 0 58 C0 53.05 0 48.1 0 43 C-20.79 43 -41.58 43 -63 43 C-63 42.67 -63 42.34 -63 42 C-42.21 42 -21.42 42 0 42 C0 28.14 0 14.28 0 0 Z " fill="#67CBAD" transform="translate(247,13)"/>
<path d="M0 0 C9.30117534 -0.11591576 18.60210158 -0.20472589 27.90384197 -0.25906086 C32.2231824 -0.28514082 36.54202822 -0.3205087 40.86108398 -0.37719727 C45.0302751 -0.43157557 49.19899088 -0.46143259 53.36850929 -0.47438622 C54.9581634 -0.48361579 56.54779186 -0.50163957 58.13724327 -0.52865028 C60.36639725 -0.56502095 62.59359448 -0.56994245 64.82299805 -0.56762695 C66.09096725 -0.57873001 67.35893646 -0.58983307 68.66532898 -0.60127258 C73.02637972 0.18506593 74.27209609 1.54332247 77 5 C77.49235729 7.82418532 77.67635341 10.04558806 77.63250732 12.86341858 C77.64015743 13.64891049 77.64780755 14.43440241 77.65568948 15.24369711 C77.67527639 17.87265491 77.6593329 20.50018481 77.64355469 23.12915039 C77.65037048 25.01500839 77.65939237 26.90085952 77.67045593 28.78669739 C77.69436536 33.90647789 77.68773633 39.02582346 77.67596722 44.14562917 C77.66912303 49.50098573 77.69121932 54.85621777 77.71051025 60.21153259 C77.74282953 70.35684928 77.75062489 80.50202375 77.74893594 90.64738601 C77.74747606 105.54358886 77.78097521 120.43972171 77.81666946 135.33587551 C77.82189449 137.53197669 77.82711683 139.72807788 77.83233643 141.92417908 C77.83494138 142.99618118 77.83754633 144.06818329 77.84023023 145.1726703 C77.85488374 151.55329266 77.86181335 157.9338659 77.86198473 164.31450474 C77.86263087 168.27966029 77.86697652 172.24480682 77.87195778 176.20995903 C77.87332103 178.05143565 77.87294176 179.89291449 77.87071037 181.73439026 C77.86780978 184.24414168 77.87091268 186.75381768 77.87542725 189.26356506 C77.87299475 189.99556517 77.87056226 190.72756528 77.86805606 191.48174721 C77.87993108 194.82774664 78.12259833 197.77601212 79 201 C78.67 201.33 78.34 201.66 78 202 C77.90222217 204.57979267 77.87005112 207.13279328 77.87974548 209.71302795 C77.87889106 210.53059285 77.87803663 211.34815775 77.87715632 212.19049734 C77.87549901 214.95132011 77.88102696 217.71208315 77.88647461 220.47290039 C77.88675645 222.44346617 77.8865988 224.41403206 77.8860321 226.38459778 C77.88574402 231.75214509 77.8916425 237.11967027 77.89860606 242.48721242 C77.9048378 248.08997947 77.90544326 253.69274698 77.90663147 259.29551697 C77.90974532 269.91319558 77.91795943 280.53086396 77.92798096 291.14853805 C77.93914043 303.23297324 77.94465213 315.31740891 77.94967639 327.40184796 C77.960142 352.26790433 77.97774247 377.13395159 78 402 C78.639375 401.814375 79.27875 401.62875 79.9375 401.4375 C80.618125 401.293125 81.29875 401.14875 82 401 C82.33 401.33 82.66 401.66 83 402 C82.60918594 406.98287932 81.44012039 410.65022018 79 415 C78.34 415 77.68 415 77 415 C77.02618408 416.00377686 77.05236816 417.00755371 77.0793457 418.04174805 C77.17008168 421.77817352 77.22733262 425.51450235 77.2746582 429.25170898 C77.29974959 430.86678461 77.33383126 432.48174726 77.37719727 434.09643555 C77.43809286 436.42264706 77.46626124 438.74735359 77.48828125 441.07421875 C77.51408768 441.79212082 77.5398941 442.51002289 77.56648254 443.24967957 C77.56841343 446.72807556 77.14528393 448.78065582 75.2162981 451.69296551 C70.33127893 455.19696525 65.84375351 454.6752155 59.97160339 454.60127258 C58.73818201 454.60554471 57.50476062 454.60981683 56.23396283 454.61421841 C52.81285174 454.62103175 49.39317021 454.60540407 45.97223198 454.58032811 C42.28244255 454.55873867 38.59269738 454.56604245 34.90286255 454.56983948 C28.51092756 454.57246144 22.11924774 454.55677212 15.72737694 454.52865028 C6.48584629 454.48801747 -2.75556095 454.47499331 -11.99717125 454.46871033 C-26.99094127 454.45776678 -41.9845753 454.424491 -56.97827148 454.37719727 C-71.54336873 454.3313032 -86.10842903 454.29591055 -100.67358398 454.2746582 C-101.57135604 454.27334459 -102.46912809 454.27203097 -103.39410535 454.27067754 C-107.8979574 454.26415236 -112.4018097 454.25783382 -116.90566218 454.25161803 C-154.27053748 454.19978317 -191.63525815 454.11171628 -229 454 C-229 454.99 -229 455.98 -229 457 C-244.51 457 -260.02 457 -276 457 C-279.37638846 447.99629744 -279.37638846 447.99629744 -280.48632812 443.77172852 C-280.86186829 442.35338463 -280.86186829 442.35338463 -281.24499512 440.90638733 C-281.50445923 439.90731857 -281.76392334 438.90824982 -282.03125 437.87890625 C-282.30843872 436.82074203 -282.58562744 435.76257782 -282.87121582 434.67234802 C-283.45491537 432.4381441 -284.03637602 430.20335419 -284.61572266 427.96801758 C-285.4896983 424.60217376 -286.37525995 421.23952766 -287.26171875 417.87695312 C-291.59796683 401.2960442 -295.73854903 385.26016445 -295 368 C-293.69289063 367.97421875 -292.38578125 367.9484375 -291.0390625 367.921875 C-269.94988591 367.32767374 -251.28104256 362.42764117 -232 354 C-232.37353821 347.80441803 -233.16926608 341.8285555 -234.4375 335.75 C-236.91855862 323.75821665 -238.27532539 312.25197988 -238 300 C-234.04 300 -230.08 300 -226 300 C-226 346.53 -226 393.06 -226 441 C-130.3 441 -34.6 441 64 441 C64 299.76 64 158.52 64 13 C42.88 13 21.76 13 0 13 C0 8.71 0 4.42 0 0 Z " fill="#131C46" transform="translate(409,42)"/>
<path d="M0 0 C0 26.07 0 52.14 0 79 C5.445 79.99 5.445 79.99 11 81 C21.10680333 84.78877126 29.96187585 90.20224335 35.375 99.8125 C41.23383991 113.19669429 38.97358605 126.70227082 34.25390625 139.98046875 C33 143 33 143 31 145 C30.34 144.34 29.68 143.68 29 143 C26.41645782 142.83312552 26.41645782 142.83312552 24 143 C23.94392578 141.15535156 23.94392578 141.15535156 23.88671875 139.2734375 C23.82102972 137.64059599 23.75458341 136.00778482 23.6875 134.375 C23.65366211 133.16263672 23.65366211 133.16263672 23.61914062 131.92578125 C23.39727745 126.96411383 22.84879915 123.23734427 20 119 C17.05529538 116.85448453 14.52075354 116.75304934 10.9375 116.8125 C10.08027344 116.81894531 9.22304687 116.82539063 8.33984375 116.83203125 C5.84522032 116.91409966 5.84522032 116.91409966 3 118 C0.19785534 118.09701927 -2.57359348 118.13919632 -5.375 118.125 C-6.13039063 118.12886719 -6.88578125 118.13273437 -7.6640625 118.13671875 C-11.59669374 118.12984352 -15.14890537 117.86682714 -19 117 C-23.89602849 116.53334728 -27.71763998 116.26722285 -32.0625 118.75 C-34.89427893 122.03851746 -35.10455063 125.09101269 -35.31640625 129.328125 C-35.35830078 130.12734375 -35.40019531 130.9265625 -35.44335938 131.75 C-35.48267578 132.575 -35.52199219 133.4 -35.5625 134.25 C-35.62727539 135.51070313 -35.62727539 135.51070313 -35.69335938 136.796875 C-35.79908543 138.86440671 -35.90001295 140.93218281 -36 143 C-38.64 143 -41.28 143 -44 143 C-49.70256388 131.15956202 -53.67118517 119.95306822 -50.1015625 106.65234375 C-49.15484297 104.05054363 -48.15081414 101.51740592 -47 99 C-48.04329468 98.60627197 -48.04329468 98.60627197 -49.10766602 98.20458984 C-52.27855788 96.88398712 -55.2484546 95.34695219 -58.27734375 93.7265625 C-58.87685852 93.40661316 -59.47637329 93.08666382 -60.09405518 92.75701904 C-62.04331434 91.71568728 -63.99046227 90.67047856 -65.9375 89.625 C-67.28875388 88.90173499 -68.6400728 88.17859148 -69.99145508 87.45556641 C-80.52847698 81.81242835 -91.0327483 76.10985134 -101.51318359 70.36230469 C-106.00515747 67.90155324 -110.50283838 65.45125403 -115 63 C-115 62.34 -115 61.68 -115 61 C-114.41847168 60.69932617 -113.83694336 60.39865234 -113.23779297 60.08886719 C-101.6346058 54.08181705 -90.08178233 47.99856964 -78.62646484 41.71386719 C-71.1102232 37.5938139 -63.55964072 33.53965303 -56 29.5 C-47.44252043 24.92479146 -38.8942861 20.33355677 -30.375 15.6875 C-29.49489258 15.20764648 -28.61478516 14.72779297 -27.70800781 14.23339844 C-23.36207584 11.85770913 -19.02891152 9.4613169 -14.7109375 7.03515625 C-13.45531006 6.33096558 -13.45531006 6.33096558 -12.17431641 5.61254883 C-10.59881836 4.72706498 -9.02544552 3.83778537 -7.45458984 2.9440918 C-2.22024226 0 -2.22024226 0 0 0 Z " fill="#F854AF" transform="translate(118,19)"/>
<path d="M0 0 C13.53 0 27.06 0 41 0 C41 42.9 41 85.8 41 130 C50.9 130 60.8 130 71 130 C71 130.33 71 130.66 71 131 C37.67 131 4.34 131 -30 131 C-30 130.67 -30 130.34 -30 130 C-20.1 130 -10.2 130 0 130 C0 87.1 0 44.2 0 0 Z " fill="#64CDAD" transform="translate(343,352)"/>
<path d="M0 0 C3.22987079 0.49336112 6.17902256 1.37842614 9.23828125 2.48828125 C25.70119358 8.44466237 42.21750611 11.57743851 59.67944336 12.74072266 C62 13 62 13 63 14 C63.47961038 20.0180818 62.77678513 25.94524913 61.80078125 31.875 C61.66851639 32.69162109 61.53625153 33.50824219 61.39997864 34.34960938 C60.00553521 42.56373043 58.0093912 50.58812759 55.83081055 58.625 C55.18824284 60.99725757 54.56079581 63.37312557 53.93554688 65.75 C50.96330027 76.94470132 47.56945668 87.98241586 44 99 C37.3247966 99.02526945 30.64960543 99.04283268 23.97436523 99.05493164 C21.70157409 99.05997325 19.4287862 99.06680637 17.15600586 99.07543945 C13.89696449 99.08751261 10.63796583 99.09322987 7.37890625 99.09765625 C6.35599991 99.10281754 5.33309357 99.10797882 4.27919006 99.11329651 C3.33829025 99.11337204 2.39739044 99.11344757 1.42797852 99.11352539 C0.59524918 99.115746 -0.23748016 99.11796661 -1.09544373 99.12025452 C-3 99 -3 99 -4 98 C-4.10962559 96.24217921 -4.14910338 94.47994476 -4.16113281 92.71875 C-4.17061447 91.58302048 -4.18009613 90.44729095 -4.18986511 89.27714539 C-4.19424088 88.03068741 -4.19861664 86.78422943 -4.203125 85.5 C-4.20995804 84.2128157 -4.21679108 82.92563141 -4.22383118 81.59944153 C-4.24304408 77.39962652 -4.24724242 73.19985282 -4.25 69 C-4.251031 68.29280697 -4.252062 67.58561394 -4.25312424 66.85699081 C-4.3273732 12.98211959 -4.3273732 12.98211959 0 0 Z " fill="#131C46" transform="translate(50,397)"/>
<path d="M0 0 C3.79371671 0.67939053 7.50589005 0.63296899 11.3515625 0.61328125 C12.49625 0.61908203 12.49625 0.61908203 13.6640625 0.625 C16.94007612 0.61925261 19.59793926 0.53115566 22.7265625 -0.51171875 C27.26205704 -0.91145725 31.38236221 -1.02651886 35.6640625 0.61328125 C39.39067296 4.00110894 40.84171974 7.8530384 41.23828125 12.79296875 C41.31048549 14.31582186 41.36886226 15.83938756 41.4140625 17.36328125 C41.44822266 18.14703125 41.48238281 18.93078125 41.51757812 19.73828125 C41.59936662 21.65446873 41.6646571 23.5713484 41.7265625 25.48828125 C42.5103125 25.61203125 43.2940625 25.73578125 44.1015625 25.86328125 C46.7265625 26.48828125 46.7265625 26.48828125 48.7265625 28.48828125 C49.59262375 34.11205559 48.82606751 38.66682902 45.7265625 43.48828125 C44.1640625 45.36328125 44.1640625 45.36328125 42.7265625 46.48828125 C42.0665625 46.48828125 41.4065625 46.48828125 40.7265625 46.48828125 C40.63375 47.69484375 40.63375 47.69484375 40.5390625 48.92578125 C39.06637338 55.38295661 36.43929691 60.26142471 31.0859375 64.18359375 C28.94996997 65.95264318 27.88072305 66.92177046 27.14697266 69.61816406 C26.99332829 72.05503515 27.00183149 74.42370727 27.1015625 76.86328125 C27.32777468 83.9889649 26.58186217 88.9781336 21.7265625 94.48828125 C16.98234482 97.8893095 12.61524247 99.34481652 6.7265625 98.48828125 C1.98170908 96.6163665 -1.75115793 93.97233382 -4.2734375 89.48828125 C-5.69463484 83.70931616 -6.2522759 77.9151649 -6.5859375 71.98828125 C-6.87785953 68.22563721 -6.87785953 68.22563721 -9.4609375 65.48828125 C-10.3890625 64.82828125 -11.3171875 64.16828125 -12.2734375 63.48828125 C-16.24061184 58.113093 -18.98115076 53.21087635 -19.2734375 46.48828125 C-19.8509375 46.44703125 -20.4284375 46.40578125 -21.0234375 46.36328125 C-24.57015924 44.98400057 -25.52780336 42.79896668 -27.2734375 39.48828125 C-28.5498228 34.78677569 -28.65324227 30.85125666 -26.2734375 26.48828125 C-25.2734375 25.48828125 -25.2734375 25.48828125 -22.7109375 25.42578125 C-21.504375 25.45671875 -21.504375 25.45671875 -20.2734375 25.48828125 C-20.22445312 24.31910156 -20.17546875 23.14992187 -20.125 21.9453125 C-20.04993579 20.39711321 -19.97438955 18.84893724 -19.8984375 17.30078125 C-19.85203125 16.14739258 -19.85203125 16.14739258 -19.8046875 14.97070312 C-19.52416107 9.52381498 -18.95513881 5.43274839 -15.2734375 1.17578125 C-10.48638804 -1.51693407 -5.29581942 -1.19201434 0 0 Z " fill="#FEBFB2" transform="translate(101.2734375,135.51171875)"/>
<path d="M0 0 C19.8 0.495 19.8 0.495 40 1 C40 36.64 40 72.28 40 109 C46.27 109 52.54 109 59 109 C59 109.33 59 109.66 59 110 C39.53 110 20.06 110 0 110 C0 73.7 0 37.4 0 0 Z " fill="#855ACB" transform="translate(414,373)"/>
<path d="M0 0 C13.2 0 26.4 0 40 0 C40 32.67 40 65.34 40 99 C26.8 99 13.6 99 0 99 C0 66.33 0 33.66 0 0 Z " fill="#FEC21A" transform="translate(202,384)"/>
<path d="M0 0 C1.05448082 -0.0010952 1.05448082 -0.0010952 2.13026428 -0.00221252 C4.44140249 0.00125604 6.75049566 0.04007686 9.0612793 0.0793457 C10.66837971 0.08867657 12.27549439 0.09579139 13.88261414 0.1007843 C18.10307399 0.11983294 22.32266714 0.16891421 26.54278564 0.2243042 C30.8528674 0.27554343 35.16308983 0.29830825 39.47338867 0.32348633 C47.92365525 0.37703604 56.37321869 0.4623217 64.82299805 0.56762695 C64.82299805 4.85762695 64.82299805 9.14762695 64.82299805 13.56762695 C43.70299805 13.56762695 22.58299805 13.56762695 0.82299805 13.56762695 C0.82299805 73.29762695 0.82299805 133.02762695 0.82299805 194.56762695 C-1.48700195 192.58762695 -3.79700195 190.60762695 -6.17700195 188.56762695 C-7.8574913 187.55681816 -7.8574913 187.55681816 -9.57192993 186.52558899 C-13.8285715 181.69233139 -12.96280876 176.45874663 -12.8581543 170.24023438 C-12.85646095 168.87005691 -12.85741362 167.49987401 -12.86080933 166.12969971 C-12.86252912 162.41682547 -12.82728403 158.70511698 -12.78536558 154.99251342 C-12.74782771 151.11016631 -12.74433086 147.22779172 -12.73721313 143.34529114 C-12.7185731 135.99638699 -12.66934806 128.64801915 -12.6091162 121.29935104 C-12.54202437 112.93187647 -12.50905544 104.56437613 -12.47894359 96.1966995 C-12.41624778 78.98669857 -12.31072977 61.77721949 -12.17700195 44.56762695 C-14.15700195 44.56762695 -16.13700195 44.56762695 -18.17700195 44.56762695 C-18.50700195 42.91762695 -18.83700195 41.26762695 -19.17700195 39.56762695 C-14.42700195 38.44262695 -14.42700195 38.44262695 -12.17700195 39.56762695 C-12.20318604 38.5638501 -12.22937012 37.56007324 -12.25634766 36.52587891 C-12.34708363 32.78945343 -12.40433457 29.0531246 -12.45166016 25.31591797 C-12.47675154 23.70084234 -12.51083321 22.08587969 -12.55419922 20.47119141 C-12.61509481 18.14497989 -12.64326319 15.82027336 -12.6652832 13.4934082 C-12.69108963 12.77550613 -12.71689606 12.05760406 -12.7434845 11.31794739 C-12.74553026 7.63260582 -12.36601869 5.81172566 -10.09008789 2.87255859 C-6.44478194 -0.01173017 -4.60709661 -0.04034235 0 0 Z " fill="#131C46" transform="translate(182.177001953125,41.432373046875)"/>
<path d="M0 0 C8.1099096 6.58333838 12.1844181 13.73190416 13.7421875 24.02734375 C14.69374479 34.99908767 12.17398332 44.94863207 8 55 C7.34 55.66 6.68 56.32 6 57 C5.34 56.34 4.68 55.68 4 55 C1.41645782 54.83312552 1.41645782 54.83312552 -1 55 C-1.05607422 53.15535156 -1.05607422 53.15535156 -1.11328125 51.2734375 C-1.17897028 49.64059599 -1.24541659 48.00778482 -1.3125 46.375 C-1.33505859 45.56675781 -1.35761719 44.75851563 -1.38085938 43.92578125 C-1.60272255 38.96411383 -2.15120085 35.23734427 -5 31 C-7.94470462 28.85448453 -10.47924646 28.75304934 -14.0625 28.8125 C-14.91972656 28.81894531 -15.77695313 28.82539063 -16.66015625 28.83203125 C-19.15477968 28.91409966 -19.15477968 28.91409966 -22 30 C-24.80214466 30.09701927 -27.57359348 30.13919632 -30.375 30.125 C-31.13039062 30.12886719 -31.88578125 30.13273437 -32.6640625 30.13671875 C-36.59669374 30.12984352 -40.14890537 29.86682714 -44 29 C-48.89602849 28.53334728 -52.71763998 28.26722285 -57.0625 30.75 C-59.89427893 34.03851746 -60.10455063 37.09101269 -60.31640625 41.328125 C-60.35830078 42.12734375 -60.40019531 42.9265625 -60.44335938 43.75 C-60.48267578 44.575 -60.52199219 45.4 -60.5625 46.25 C-60.60568359 47.09046875 -60.64886719 47.9309375 -60.69335938 48.796875 C-60.79908543 50.86440671 -60.90001295 52.93218281 -61 55 C-63.64 55 -66.28 55 -69 55 C-74.65418627 43.26001018 -78.51877219 32.27931354 -75.27734375 19.05078125 C-73.41028447 13.99384742 -71.18255622 10.52215261 -67 7 C-66.34 6.34 -65.68 5.68 -65 5 C-62.375 5.375 -62.375 5.375 -60 6 C-59.54625 5.29875 -59.0925 4.5975 -58.625 3.875 C-43.18889453 -13.03121075 -17.86356071 -12.15600214 0 0 Z " fill="#333333" transform="translate(143,107)"/>
<path d="M0 0 C13.53 0 27.06 0 41 0 C41 26.07 41 52.14 41 79 C17.57 79 -5.86 79 -30 79 C-30 78.67 -30 78.34 -30 78 C-20.1 78 -10.2 78 0 78 C0 52.26 0 26.52 0 0 Z " fill="#F757AF" transform="translate(272,404)"/>
<path d="M0 0 C0.94488281 -0.01417969 1.88976562 -0.02835937 2.86328125 -0.04296875 C5.83156882 0.19925665 7.99617165 0.94723393 10.6875 2.1875 C10.74808594 2.91195313 10.80867188 3.63640625 10.87109375 4.3828125 C11.30233433 9.35866533 11.75797641 14.27430391 12.6875 19.1875 C8.42133684 20.32514351 5.12263689 21.1875 0.6875 21.1875 C0.84831055 21.74977295 1.00912109 22.3120459 1.17480469 22.89135742 C2.10180833 27.04300943 1.91416833 31.26238634 1.9375 35.5 C1.958125 36.42490234 1.97875 37.34980469 2 38.30273438 C2.03277099 44.06633289 1.37050269 48.06861329 -1.3125 53.1875 C-6.44816928 52.56641126 -11.29030457 51.48443221 -16.25 50 C-16.9821875 49.78585449 -17.714375 49.57170898 -18.46875 49.35107422 C-22.99894488 47.99221002 -27.376309 46.411646 -31.75976562 44.6394043 C-38.35770839 41.98155081 -43.28270593 40.41279083 -50.3125 42.1875 C-51.89620785 42.54579163 -53.48086172 42.89992577 -55.06640625 43.25 C-55.86506104 43.42660156 -56.66371582 43.60320312 -57.48657227 43.78515625 C-58.39040649 43.98431641 -58.39040649 43.98431641 -59.3125 44.1875 C-60.60572032 41.29235806 -61.89679741 38.39626516 -63.1875 35.5 C-63.73470703 34.27506836 -63.73470703 34.27506836 -64.29296875 33.02539062 C-69.80082136 20.65775796 -69.80082136 20.65775796 -69.3125 14.1875 C-67.3125 12.1875 -67.3125 12.1875 -64.6875 12.0625 C-63.90375 12.10375 -63.12 12.145 -62.3125 12.1875 C-62.3125 11.5275 -62.3125 10.8675 -62.3125 10.1875 C-61.53463135 10.09251221 -60.7567627 9.99752441 -59.95532227 9.8996582 C-40.47896805 7.49102284 -19.116361 0.12933938 0 0 Z " fill="#FDBEB3" transform="translate(148.3125,283.8125)"/>
<path d="M0 0 C4.29 0 8.58 0 13 0 C13.03738281 1.25554688 13.07476562 2.51109375 13.11328125 3.8046875 C13.46492477 21.28592709 13.46492477 21.28592709 22 36 C30.70792604 42.96956003 38.11756327 44.2980674 49.06396484 44.31884766 C50.27428375 44.32889328 51.48460266 44.3389389 52.7315979 44.34928894 C56.03695959 44.37482131 59.34215084 44.39171252 62.64757109 44.40471697 C66.1069444 44.42038538 69.56623158 44.4471637 73.02554321 44.4727478 C79.57018166 44.51947008 86.11483642 44.55624579 92.65955603 44.58942068 C100.11305286 44.62768847 107.56646304 44.67708637 115.01988673 44.72740483 C130.34652947 44.8306272 145.67322001 44.91952421 161 45 C161 48.96 161 52.92 161 57 C108.2 57 55.4 57 1 57 C-0.14927198 39.76092023 -0.14927198 39.76092023 -0.09765625 31.34765625 C-0.0962413 30.43664658 -0.09482635 29.5256369 -0.09336853 28.58702087 C-0.08787811 25.74547697 -0.07534878 22.9040191 -0.0625 20.0625 C-0.05747076 18.10742303 -0.05291039 16.1523448 -0.04882812 14.19726562 C-0.03794504 9.46481182 -0.02076043 4.73242036 0 0 Z " fill="#52C0A0" transform="translate(247,13)"/>
<path d="M0 0 C6.23944316 4.20584687 10.27170992 9.93776699 12.32421875 17.21484375 C13.35955144 25.70457177 11.83313842 32.92202273 7.09375 40.12109375 C2.23985574 46.07461165 -4.15765488 50.2227108 -11.9296875 51.05078125 C-21.91123379 51.38913875 -28.93277102 48.42884888 -36.36328125 41.77734375 C-41.84425852 33.98983809 -43.92449403 26.19192992 -42.36328125 16.77734375 C-39.64034033 8.22635386 -34.15000579 1.47836535 -26.17578125 -2.66015625 C-16.81376738 -6.29388706 -8.60856508 -4.78253615 0 0 Z " fill="#E2D2F7" transform="translate(247.36328125,109.22265625)"/>
<path d="M0 0 C7.73833688 4.47215573 13.15435491 11.39686085 15.625 20 C16.8624151 28.11350582 14.53830064 35.56818326 9.9375 42.25 C4.69151041 48.76853162 -2.19656216 52.26040799 -10.49609375 53.25390625 C-18.42996844 53.68016295 -24.49248546 50.74189241 -30.625 45.875 C-36.54302108 40.30022414 -39.61288241 34.15732592 -39.9375 26 C-39.59420986 18.58111866 -37.28682972 10.92420854 -32.09375 5.3828125 C-22.637663 -2.22503931 -11.34670653 -5.03725002 0 0 Z " fill="#E2D2F7" transform="translate(244.375,200)"/>
<path d="M0 0 C36.63 0 73.26 0 111 0 C111 4.95 111 9.9 111 15 C109.90042969 15.14695312 108.80085938 15.29390625 107.66796875 15.4453125 C95.74978976 17.1936181 84.65457166 20.28069687 76.4375 29.8125 C75.963125 30.204375 75.48875 30.59625 75 31 C72.8125 30.6875 72.8125 30.6875 71 30 C69.35 31.98 67.7 33.96 66 36 C61.92570494 34.46897163 58.11604404 32.55813827 54.28515625 30.5078125 C53.31888809 29.99439049 53.31888809 29.99439049 52.33309937 29.47059631 C50.24144722 28.35810042 48.15189708 27.24172461 46.0625 26.125 C44.61926689 25.35579143 43.17598859 24.58666764 41.73266602 23.81762695 C13.15221531 8.57355754 13.15221531 8.57355754 0 1 C0 0.67 0 0.34 0 0 Z " fill="#F858B0" transform="translate(7,83)"/>
<path d="M0 0 C1.06637695 0.00676758 1.06637695 0.00676758 2.15429688 0.01367188 C2.87294922 0.01560547 3.59160156 0.01753906 4.33203125 0.01953125 C10.18433304 0.06651672 15.96586989 0.44894325 21.77929688 1.13867188 C23.10785715 4.79691718 22.42808702 6.95740686 21.12695312 10.56054688 C20.76279297 11.58535156 20.39863281 12.61015625 20.0234375 13.66601562 C19.63349609 14.72949219 19.24355469 15.79296875 18.84179688 16.88867188 C18.45572266 17.96761719 18.06964844 19.0465625 17.671875 20.15820312 C16.71717147 22.82194383 15.75269044 25.48171605 14.77929688 28.13867188 C13.45929688 28.13867188 12.13929688 28.13867188 10.77929688 28.13867188 C11.18947398 23.62672373 11.83973637 19.64211901 13.32226562 15.35351562 C13.59449951 14.55937256 13.8667334 13.76522949 14.1472168 12.94702148 C14.46009644 12.05188843 14.46009644 12.05188843 14.77929688 11.13867188 C11.98458208 13.03003979 9.19367942 14.92694912 6.40429688 16.82617188 C5.55536865 17.40399414 4.70644043 17.98181641 3.83178711 18.57714844 C-3.02902634 23.27062185 -9.77160852 28.1116831 -16.43115234 33.08666992 C-17.48520264 33.86264526 -17.48520264 33.86264526 -18.56054688 34.65429688 C-19.172771 35.11094727 -19.78499512 35.56759766 -20.41577148 36.03808594 C-22.40764116 37.25266033 -23.90005004 37.87222974 -26.22070312 38.13867188 C-28.53052331 36.63942183 -30.50669631 35.15506449 -32.59570312 33.38867188 C-33.84544052 32.36881874 -35.09544844 31.34929703 -36.34570312 30.33007812 C-36.98507812 29.80172363 -37.62445313 29.27336914 -38.28320312 28.72900391 C-41.92838626 25.73697732 -45.65215972 22.84459862 -49.36816406 19.94140625 C-51.84200436 18.00805701 -54.30641575 16.06853127 -56.73632812 14.08007812 C-57.43242187 13.52191406 -58.12851562 12.96375 -58.84570312 12.38867188 C-59.41546875 11.91945313 -59.98523438 11.45023437 -60.57226562 10.96679688 C-62.1803492 9.98991202 -62.1803492 9.98991202 -64.00976562 10.22460938 C-67.26980898 11.57240115 -70.07723825 13.52542506 -72.97070312 15.51367188 C-73.62756104 15.958479 -74.28441895 16.40328613 -74.96118164 16.86157227 C-77.05228085 18.28066519 -79.13707523 19.70863595 -81.22070312 21.13867188 C-81.88247559 21.59129395 -82.54424805 22.04391602 -83.22607422 22.51025391 C-87.22570413 25.2462183 -91.21688119 27.99425552 -95.20458984 30.74755859 C-99.19744119 33.50261635 -103.19572141 36.24981269 -107.19628906 38.99365234 C-110.67724539 41.38262804 -114.14853352 43.78423848 -117.60742188 46.20507812 C-118.32736328 46.70652344 -119.04730469 47.20796875 -119.7890625 47.72460938 C-121.16427367 48.68282103 -122.53684034 49.6448435 -123.90625 50.61132812 C-131.12618057 55.62869456 -131.12618057 55.62869456 -134.22070312 56.13867188 C-136.65757324 54.69669963 -138.48874184 53.35074802 -140.59570312 51.51367188 C-141.82475414 50.49400121 -143.0539253 49.47447535 -144.28320312 48.45507812 C-144.92128906 47.91512207 -145.559375 47.37516602 -146.21679688 46.81884766 C-149.62293935 43.9629665 -153.11531896 41.21561991 -156.59570312 38.45117188 C-158.80560194 36.68228239 -161.01304781 34.91036165 -163.22070312 33.13867188 C-168.89327525 36.24381816 -174.13612745 39.77467739 -179.40820312 43.51367188 C-181.19721832 44.77415568 -182.98628216 46.03457046 -184.77539062 47.29492188 C-185.68256836 47.93558594 -186.58974609 48.57625 -187.52441406 49.23632812 C-192.4962368 52.74415525 -197.48126879 56.23316938 -202.47143555 59.71484375 C-207.14798426 62.97911055 -211.80720283 66.2656762 -216.45117188 69.57617188 C-218.54096965 71.05540349 -220.63081257 72.53457134 -222.72070312 74.01367188 C-223.70659424 74.72249512 -224.69248535 75.43131836 -225.70825195 76.16162109 C-226.63017334 76.81146973 -227.55209473 77.46131836 -228.50195312 78.13085938 C-229.72495117 79.00266846 -229.72495117 79.00266846 -230.97265625 79.89208984 C-233.22070312 81.13867188 -233.22070312 81.13867188 -237.22070312 81.13867188 C-237.11914062 79.44726562 -237.11914062 79.44726562 -236.22070312 77.13867188 C-234.13071603 75.33477812 -232.10155971 73.77072516 -229.84570312 72.20117188 C-229.18014404 71.72591064 -228.51458496 71.25064941 -227.82885742 70.76098633 C-221.01412474 65.92247119 -214.09674909 61.22841697 -207.18554688 56.52929688 C-202.12758601 53.08464249 -197.10771302 49.58724091 -192.09570312 46.07617188 C-191.27110596 45.5007666 -190.44650879 44.92536133 -189.59692383 44.33251953 C-185.47291961 41.44827656 -181.37767716 38.53278568 -177.32226562 35.55273438 C-176.54641113 34.98820557 -175.77055664 34.42367676 -174.97119141 33.84204102 C-173.50600986 32.77375232 -172.04818576 31.69527475 -170.59912109 30.60522461 C-165.75160557 27.08690528 -165.75160557 27.08690528 -163.24267578 27.33154297 C-160.91677076 28.25999528 -159.37540257 29.40139505 -157.46289062 31.01757812 C-156.75898193 31.60587402 -156.05507324 32.19416992 -155.32983398 32.80029297 C-154.5925708 33.42758301 -153.85530762 34.05487305 -153.09570312 34.70117188 C-151.57400265 35.97643063 -150.0518687 37.25117233 -148.52929688 38.52539062 C-147.79308105 39.14462402 -147.05686523 39.76385742 -146.29833984 40.40185547 C-142.32999042 43.71922771 -138.27688689 46.92960266 -134.22070312 50.13867188 C-130.60131317 48.83467374 -127.83423284 47.28189103 -124.78320312 44.95117188 C-119.13584817 40.75381346 -113.35419523 36.77869738 -107.53320312 32.82617188 C-106.57341553 32.17398682 -105.61362793 31.52180176 -104.62475586 30.84985352 C-102.71335687 29.55122513 -100.80181964 28.25280022 -98.89013672 26.95458984 C-95.20039089 24.4445908 -91.52130463 21.91932281 -87.84570312 19.38867188 C-87.22091064 18.9586084 -86.59611816 18.52854492 -85.95239258 18.08544922 C-84.69962354 17.22294027 -83.44693789 16.36031018 -82.19433594 15.49755859 C-78.53788731 12.98001863 -74.87910762 10.46586837 -71.22070312 7.95117188 C-69.86652739 7.02019549 -68.51235983 6.0892072 -67.15820312 5.15820312 C-66.18882812 4.49175781 -65.21945312 3.8253125 -64.22070312 3.13867188 C-61.48571833 4.43022373 -59.11170677 5.85154957 -56.70898438 7.68554688 C-55.70726196 8.44895386 -55.70726196 8.44895386 -54.68530273 9.2277832 C-53.97510986 9.77587646 -53.26491699 10.32396973 -52.53320312 10.88867188 C-51.79658447 11.45416748 -51.05996582 12.01966309 -50.30102539 12.60229492 C-42.11901135 18.92432736 -34.1535146 25.50823989 -26.22070312 32.13867188 C-21.08402863 30.50749911 -17.17892102 27.37429243 -12.90820312 24.20117188 C-11.31167953 23.03035499 -9.71399737 21.86111648 -8.11523438 20.69335938 C-7.30650879 20.10264648 -6.4977832 19.51193359 -5.66455078 18.90332031 C0.39784957 14.52579486 6.60154845 10.35077308 12.77929688 6.13867188 C7.16929687 5.80867188 1.55929687 5.47867187 -4.22070312 5.13867188 C-5.21070313 3.15867187 -5.21070313 3.15867187 -6.22070312 1.13867188 C-4.49539827 -0.58663298 -2.29831758 0.00670063 0 0 Z " fill="#202950" transform="translate(435.220703125,282.861328125)"/>
<path d="M0 0 C0.33 0.66 0.66 1.32 1 2 C0.30175781 3.77734375 0.30175781 3.77734375 -0.796875 5.9375 C-7.44309743 20.30523729 -7.3931823 37.65638147 -7.5 53.25 C-7.51035278 53.94029297 -7.52070557 54.63058594 -7.53137207 55.34179688 C-7.67469586 67.42997029 -6.1854404 80.45031953 2 90 C10.06140595 96.28789664 18.9857931 95.57461017 28.765625 94.7734375 C30.515547 94.55312358 32.25931079 94.28419416 34 94 C37 98.75 37 98.75 37 101 C6.69111847 111.32259008 6.69111847 111.32259008 -4.25 106.5 C-12.14997102 101.83772202 -15.68131997 95.43109941 -18.2734375 86.83203125 C-23.71010816 65.64070746 -22.79639685 31.3114901 -11.578125 12.24609375 C-8.23654381 7.49013043 -4.9196794 3.21671346 0 0 Z " fill="#6B43BA" transform="translate(52,227)"/>
<path d="M0 0 C3.96 0 7.92 0 12 0 C12 42.57 12 85.14 12 129 C8.04 129 4.08 129 0 129 C0 86.43 0 43.86 0 0 Z " fill="#52C1A1" transform="translate(344,353)"/>
<path d="M0 0 C0 4.95 0 9.9 0 15 C-4.31220631 17.31304918 -8.6246925 19.62557236 -12.9375 21.9375 C-13.57903015 22.2814682 -14.2205603 22.6254364 -14.88153076 22.97982788 C-22.28351816 26.94798609 -29.69196184 30.90272557 -37.125 34.8125 C-41.96432552 37.36273078 -46.77443435 39.95910186 -51.55371094 42.62036133 C-53.05953251 43.45676611 -54.56933188 44.28604923 -56.08300781 45.1081543 C-60.04797032 47.27636096 -63.8559319 49.54195305 -67.59765625 52.078125 C-81.71530388 61.27680268 -94.47032597 61.28074522 -111 60 C-108.08304126 57.70252348 -105.11009549 55.88365705 -101.8359375 54.13671875 C-100.80968262 53.58685303 -99.78342773 53.0369873 -98.72607422 52.47045898 C-97.62021973 51.88208252 -96.51436523 51.29370605 -95.375 50.6875 C-93.61364208 49.74482045 -91.8522867 48.80213612 -90.09109497 47.85914612 C-88.26569507 46.88230093 -86.43955077 45.90685889 -84.61328125 44.93164062 C-79.02665956 41.9469764 -73.45113753 38.94169158 -67.875 35.9375 C-66.26117432 35.06871216 -66.26117432 35.06871216 -64.61474609 34.18237305 C-56.43040174 29.77518175 -48.25534106 25.35102583 -40.0847168 20.91845703 C-34.67046197 17.98271975 -29.25079813 15.05740273 -23.82421875 12.14453125 C-23.22650665 11.82350433 -22.62879456 11.50247742 -22.01296997 11.17172241 C-19.10530892 9.61007174 -16.19690021 8.0498699 -13.28710938 6.4921875 C-11.72766602 5.65494141 -11.72766602 5.65494141 -10.13671875 4.80078125 C-8.75552856 4.06081909 -8.75552856 4.06081909 -7.34643555 3.3059082 C-1.40643111 0 -1.40643111 0 0 0 Z " fill="#EF049F" transform="translate(118,19)"/>
<path d="M0 0 C3.96 0 7.92 0 12 0 C12 36.3 12 72.6 12 110 C8.04 110 4.08 110 0 110 C0 73.7 0 37.4 0 0 Z " fill="#6A42BA" transform="translate(414,373)"/>
<path d="M0 0 C4.38889325 0.66498383 7.9811485 2.18757677 12 4 C12.02753831 5.5207267 12.04663375 7.04160674 12.0625 8.5625 C12.07410156 9.40941406 12.08570312 10.25632812 12.09765625 11.12890625 C12 14 12 14 11.52685547 17.17822266 C10.9827456 21.12516239 10.67477015 25.04416735 10.47265625 29.01953125 C10.43133072 29.82179642 10.39000519 30.62406158 10.34742737 31.45063782 C9.76355003 43.84267261 9.64970567 56.25181823 9.46777344 68.65478516 C9.41663838 72.08825685 9.36144342 75.52166336 9.30664062 78.95507812 C9.20078399 85.63666611 9.09881609 92.31830437 9 99 C7.02090602 99.02686553 5.04171029 99.04633375 3.0625 99.0625 C1.96035156 99.07410156 0.85820313 99.08570313 -0.27734375 99.09765625 C-3 99 -3 99 -4 98 C-4.10962559 96.24217921 -4.14910338 94.47994476 -4.16113281 92.71875 C-4.17061447 91.58302048 -4.18009613 90.44729095 -4.18986511 89.27714539 C-4.19424088 88.03068741 -4.19861664 86.78422943 -4.203125 85.5 C-4.20995804 84.2128157 -4.21679108 82.92563141 -4.22383118 81.59944153 C-4.24304408 77.39962652 -4.24724242 73.19985282 -4.25 69 C-4.251031 68.29280697 -4.252062 67.58561394 -4.25312424 66.85699081 C-4.3273732 12.98211959 -4.3273732 12.98211959 0 0 Z " fill="#0B1227" transform="translate(50,397)"/>
<path d="M0 0 C3.96 0 7.92 0 12 0 C12 32.67 12 65.34 12 99 C8.04 99 4.08 99 0 99 C0 66.33 0 33.66 0 0 Z " fill="#FEAF00" transform="translate(202,384)"/>
<path d="M0 0 C3.96 0 7.92 0 12 0 C12 25.74 12 51.48 12 78 C8.04 78 4.08 78 0 78 C0 52.26 0 26.52 0 0 Z " fill="#EE009F" transform="translate(273,405)"/>
<path d="M0 0 C0 0.33 0 0.66 0 1 C-0.90621094 1.09796875 -1.81242187 1.1959375 -2.74609375 1.296875 C-14.46943457 2.73593059 -23.12365325 5.79227495 -32.0625 13.6875 C-35 16 -35 16 -37.5625 16.4375 C-41.30939484 17.30216804 -42.99186501 19.92547609 -45 23 C-49.98742683 32.61860889 -49.05896149 40.69109008 -47 51 C-46.67 51.99 -46.34 52.98 -46 54 C-45.87218214 56.67394964 -45.95608129 59.32095857 -46 62 C-48.64 62 -51.28 62 -54 62 C-59.65418627 50.26001018 -63.51877219 39.27931354 -60.27734375 26.05078125 C-58.41028447 20.99384742 -56.18255622 17.52215261 -52 14 C-51.34 13.34 -50.68 12.68 -50 12 C-47.375 12.375 -47.375 12.375 -45 13 C-44.54625 12.29875 -44.0925 11.5975 -43.625 10.875 C-32.56162269 -1.24203229 -15.25935078 -4.52128912 0 0 Z " fill="#242223" transform="translate(128,100)"/>
<path d="M0 0 C0.82177734 0.32484375 0.82177734 0.32484375 1.66015625 0.65625 C12.30605508 4.3952974 22.64065485 4.32211089 33 0 C33.13615919 3.00155373 33.2346398 5.996821 33.3125 9 C33.35439453 9.83917969 33.39628906 10.67835938 33.43945312 11.54296875 C33.56147196 17.83914054 32.23752407 22.23641404 28 27 C23.2529743 30.39910482 18.89105374 31.85688054 13 31 C8.25514658 29.12808525 4.52227957 26.48405257 2 22 C0.11652569 14.73517052 -0.29755777 7.47200628 0 0 Z " fill="#F7A296" transform="translate(95,203)"/>
<path d="M0 0 C54.45 0 108.9 0 165 0 C164.67 1.32 164.34 2.64 164 4 C110.21 4 56.42 4 1 4 C0.67 2.68 0.34 1.36 0 0 Z " fill="#E2D2F7" transform="translate(292,203)"/>
<path d="M0 0 C53.79 0 107.58 0 163 0 C163.33 1.32 163.66 2.64 164 4 C109.55 4 55.1 4 -1 4 C-0.67 2.68 -0.34 1.36 0 0 Z " fill="#E2D2F7" transform="translate(293,151)"/>
<path d="M0 0 C53.79 0 107.58 0 163 0 C163 1.32 163 2.64 163 4 C109.21 4 55.42 4 0 4 C0 2.68 0 1.36 0 0 Z " fill="#E2D2F7" transform="translate(293,244)"/>
<path d="M0 0 C53.79 0 107.58 0 163 0 C163 1.32 163 2.64 163 4 C109.21 4 55.42 4 0 4 C0 2.68 0 1.36 0 0 Z " fill="#E2D2F7" transform="translate(293,110)"/>
<path d="M0 0 C2.12508244 3.18762365 2.5020163 5.26512223 3 9 C-1.26616316 10.13764351 -4.56486311 11 -9 11 C-9.33 11.66 -9.66 12.32 -10 13 C-11.71484375 13.67578125 -11.71484375 13.67578125 -13.9375 14.3125 C-17.45071507 15.41142035 -20.61160114 16.73531116 -23.875 18.4375 C-28.20272943 20.67482926 -32.56320266 22.36980962 -37.16015625 23.96875 C-40.10081506 25.0366096 -42.9446026 26.25076979 -45.8125 27.5 C-61.187113 34 -61.187113 34 -69 34 C-69.99 31.69 -70.98 29.38 -72 27 C-66.34984126 24.75918279 -60.66144148 23.00070418 -54.81347656 21.34936523 C-35.75146043 15.94773882 -17.80859403 8.62690458 0 0 Z " fill="#F6A298" transform="translate(158,294)"/>
<path d="M0 0 C0.95354874 -0.00137466 1.90709747 -0.00274933 2.88954163 -0.00416565 C4.46370598 0.00122726 4.46370598 0.00122726 6.06967163 0.00672913 C7.17211716 0.0065831 8.27456268 0.00643707 9.41041565 0.00628662 C13.06817568 0.0069854 16.7258853 0.01477619 20.38363647 0.02259827 C22.91426567 0.02446257 25.44489522 0.02588641 27.9755249 0.02688599 C33.96430853 0.03031895 39.9530704 0.03820696 45.9418453 0.04823548 C52.75917177 0.05940418 59.5764991 0.06490898 66.39383245 0.06993091 C80.41908971 0.08038977 94.44433085 0.0979845 108.46957397 0.12025452 C108.46957397 1.44025452 108.46957397 2.76025452 108.46957397 4.12025452 C93.77074906 4.14359408 79.07192659 4.1612389 64.37308693 4.17206669 C57.54847215 4.17722739 50.72386887 4.18426581 43.89926147 4.19569397 C37.31813965 4.20670917 30.73702666 4.21253228 24.15589523 4.21513176 C21.63998603 4.21698522 19.12407751 4.22060433 16.60817337 4.22598457 C13.09532484 4.23320074 9.58252633 4.23424521 6.06967163 4.23377991 C5.02022873 4.23737518 3.97078583 4.24097046 2.88954163 4.24467468 C1.93599289 4.24330002 0.98244415 4.24192535 0 4.24050903 C-1.24718591 4.24189172 -1.24718591 4.24189172 -2.51956749 4.24330235 C-4.53042603 4.12025452 -4.53042603 4.12025452 -6.53042603 3.12025452 C-6.53042603 2.46025452 -6.53042603 1.80025452 -6.53042603 1.12025452 C-4.13671263 -0.07660218 -2.67221342 -0.00296254 0 0 Z " fill="#FEFAFC" transform="translate(9.530426025390625,78.87974548339844)"/>
<path d="M0 0 C1.98 0.495 1.98 0.495 4 1 C4 8.59 4 16.18 4 24 C7.96 24 11.92 24 16 24 C16 25.32 16 26.64 16 28 C13.35448944 28.19386492 10.70882217 28.38038267 8.0625 28.5625 C7.30775391 28.61857422 6.55300781 28.67464844 5.77539062 28.73242188 C3.85254042 28.86176157 1.92610452 28.93516912 0 29 C-1.80279191 27.19720809 -1.13036605 24.45952299 -1.1328125 22.03125 C-1.13410156 20.82082031 -1.13539062 19.61039062 -1.13671875 18.36328125 C-1.13285156 17.08839844 -1.12898438 15.81351562 -1.125 14.5 C-1.12886719 13.22511719 -1.13273437 11.95023437 -1.13671875 10.63671875 C-1.13542969 9.42628906 -1.13414063 8.21585937 -1.1328125 6.96875 C-1.13168457 5.84919922 -1.13055664 4.72964844 -1.12939453 3.57617188 C-1 1 -1 1 0 0 Z " fill="#6D44BB" transform="translate(70,268)"/>
<path d="M0 0 C1.25159912 0.00523682 2.50319824 0.01047363 3.79272461 0.01586914 C4.78942421 0.01799156 4.78942421 0.01799156 5.80625916 0.02015686 C7.93590735 0.02577021 10.06545175 0.03832485 12.19506836 0.05102539 C13.63582205 0.05603868 15.07657739 0.06060188 16.51733398 0.06469727 C20.05577938 0.07574394 23.59416375 0.09301747 27.13256836 0.11352539 C27.13256836 1.76352539 27.13256836 3.41352539 27.13256836 5.11352539 C17.23256836 5.11352539 7.33256836 5.11352539 -2.86743164 5.11352539 C-3.19743164 3.79352539 -3.52743164 2.47352539 -3.86743164 1.11352539 C-2.86743164 0.11352539 -2.86743164 0.11352539 0 0 Z " fill="#FEE7F4" transform="translate(76.867431640625,55.886474609375)"/>
<path d="M0 0 C1.32 0 2.64 0 4 0 C5.15782465 2.34890274 6.30121171 4.70320082 7.4375 7.0625 C7.76298828 7.71927734 8.08847656 8.37605469 8.42382812 9.05273438 C10.5122926 13.42343838 11.55424135 17.17199436 12 22 C10.68 22.33 9.36 22.66 8 23 C6.677356 20.46317484 5.36682639 17.92122349 4.0625 15.375 C3.68931641 14.66214844 3.31613281 13.94929688 2.93164062 13.21484375 C0.86599129 9.15798289 -0.66592017 5.62025299 -1 1 C-0.67 0.67 -0.34 0.34 0 0 Z " fill="#C2ADE5" transform="translate(493,256)"/>
<path d="M0 0 C1.65 0 3.3 0 5 0 C4.57200914 8.27449001 1.95555804 15.33299888 -1 23 C-2.65 23 -4.3 23 -6 23 C-5.38334864 17.60607261 -4.12077204 12.71604717 -2.4375 7.5625 C-2.20353516 6.83095703 -1.96957031 6.09941406 -1.72851562 5.34570312 C-1.15732778 3.56219821 -0.57936877 1.78086417 0 0 Z " fill="#C3ADE5" transform="translate(500,407)"/>
<path d="M0 0 C7.92 0 15.84 0 24 0 C24.33 1.32 24.66 2.64 25 4 C24 5 24 5 21.77514648 5.11352539 C20.81680908 5.10828857 19.85847168 5.10305176 18.87109375 5.09765625 C17.31938477 5.09282227 17.31938477 5.09282227 15.73632812 5.08789062 C14.64771484 5.07951172 13.55910156 5.07113281 12.4375 5.0625 C10.7987793 5.05573242 10.7987793 5.05573242 9.12695312 5.04882812 C6.41791505 5.03699826 3.70898401 5.02051543 1 5 C0.67 3.35 0.34 1.7 0 0 Z " fill="#C3ACE5" transform="translate(124,79)"/>
<path d="M0 0 C0.99 0 1.98 0 3 0 C3.3690205 16.8929385 3.3690205 16.8929385 1 24 C-0.65 24 -2.3 24 -4 24 C-3.52087184 15.75569133 -2.02214499 7.99955473 0 0 Z " fill="#C2ACE5" transform="translate(509,369)"/>
<path d="M0 0 C2.0625 0.4375 2.0625 0.4375 4 1 C4.84191782 3.9248633 5.11819313 6.50741656 5.09765625 9.546875 C5.09282227 10.81337891 5.09282227 10.81337891 5.08789062 12.10546875 C5.07951172 12.97816406 5.07113281 13.85085938 5.0625 14.75 C5.05798828 15.63816406 5.05347656 16.52632813 5.04882812 17.44140625 C5.037074 19.62767329 5.02064249 21.81380179 5 24 C4.01 23.67 3.02 23.34 2 23 C1.49133331 20.64741656 0.9929375 18.29338596 0.5 15.9375 C0.35691406 15.28072266 0.21382813 14.62394531 0.06640625 13.94726562 C-0.83818727 9.57506361 -1.22881818 5.49055681 -1 1 C-0.67 0.67 -0.34 0.34 0 0 Z " fill="#C2ACE5" transform="translate(507,292)"/>
<path d="M0 0 C1.32 0 2.64 0 4 0 C3.67 6.27 3.34 12.54 3 19 C2.01 19.33 1.02 19.66 0 20 C-0.66 19.67 -1.32 19.34 -2 19 C-2.24794402 12.4294834 -1.32388229 6.43028541 0 0 Z " fill="#6D44BB" transform="translate(157,266)"/>
<path d="M0 0 C7.59 0 15.18 0 23 0 C19.06428868 3.93571132 19.06428868 3.93571132 16.12060547 4.11352539 C15.37697754 4.10828857 14.63334961 4.10305176 13.8671875 4.09765625 C13.06152344 4.09443359 12.25585938 4.09121094 11.42578125 4.08789062 C10.58402344 4.07951172 9.74226563 4.07113281 8.875 4.0625 C8.02550781 4.05798828 7.17601563 4.05347656 6.30078125 4.04882812 C4.20049091 4.03702874 2.1002367 4.01909306 0 4 C0 2.68 0 1.36 0 0 Z " fill="#FDFBFC" transform="translate(73,102)"/>
<path d="M0 0 C1.32 0.33 2.64 0.66 4 1 C3.50269348 5.97306516 2.44697666 9.63799813 0 14 C-0.66 14 -1.32 14 -2 14 C-2.05410687 12.22950311 -2.09284119 10.45853151 -2.125 8.6875 C-2.14820313 7.70136719 -2.17140625 6.71523438 -2.1953125 5.69921875 C-2 3 -2 3 0 0 Z " fill="#C1ABE5" transform="translate(488,443)"/>
<path d="M0 0 C4.95 0 9.9 0 15 0 C11.10645628 2.92015779 9.70929401 3.90389196 5 4 C3.35 2.68 1.7 1.36 0 0 Z " fill="#F009A2" transform="translate(9,84)"/>
<path d="M0 0 C2.00720923 0.28674418 4.0085944 0.61866701 6 1 C6 2.65 6 4.3 6 6 C4.02 6 2.04 6 0 6 C-0.38218767 4.34385343 -0.71395102 2.67542976 -1 1 C-0.67 0.67 -0.34 0.34 0 0 Z " fill="#C3ADE5" transform="translate(164,80)"/>
<path d="M0 0 C0.33 0.66 0.66 1.32 1 2 C-1.08576691 5.02666491 -3.21103658 7.10304278 -6.1875 9.25 C-6.90292969 9.77078125 -7.61835937 10.2915625 -8.35546875 10.828125 C-8.89816406 11.21484375 -9.44085938 11.6015625 -10 12 C-7.58689754 6.97092364 -4.65041033 3.15563558 0 0 Z " fill="#7647C3" transform="translate(52,227)"/>
<path d="M0 0 C0.33 0 0.66 0 1 0 C1 7.92 1 15.84 1 24 C-0.92753182 20.14493635 -1.2330787 19.2360277 -0.9765625 15.234375 C-0.925 14.34492188 -0.8734375 13.45546875 -0.8203125 12.5390625 C-0.75585938 11.61867188 -0.69140625 10.69828125 -0.625 9.75 C-0.56828125 8.81414062 -0.5115625 7.87828125 -0.453125 6.9140625 C-0.31197212 4.60856552 -0.1605965 2.30421072 0 0 Z " fill="#C2AAE3" transform="translate(511,331)"/>
</svg>
