<?xml version="1.0" encoding="UTF-8"?>
<svg version="1.1" xmlns="http://www.w3.org/2000/svg" width="512" height="512">
<path d="M0 0 C3.3997801 3.03023879 6.31407068 6.31928204 9 10 C9 10.66 9 11.32 9 12 C10.8871875 11.87625 10.8871875 11.87625 12.8125 11.75 C23.38586434 11.81618694 32.30026011 17.0786164 40 24 C50.02903631 35.05240736 52.12902204 48.71309744 52.17700195 63.10302734 C52.18357315 63.97570755 52.19014435 64.84838776 52.19691467 65.74751282 C52.21648492 68.61032216 52.22827105 71.47307956 52.23828125 74.3359375 C52.24235678 75.32008259 52.2464323 76.30422768 52.25063133 77.31819534 C52.27141849 82.52332595 52.28575418 87.72843074 52.29516602 92.93359375 C52.30624061 98.28871729 52.340674 103.64342654 52.38033772 108.99840355 C52.40655372 113.13700094 52.41486207 117.27550001 52.41844749 121.41417313 C52.42329716 123.3876082 52.43486455 125.36103937 52.45348549 127.33439255 C52.55473525 138.77097579 52.55925549 148.00914158 46.125 157.875 C41.23136422 162.76863578 35.82528795 165.94374577 28.8125 166.046875 C27.884375 166.03140625 26.95625 166.0159375 26 166 C26.04640625 166.66902344 26.0928125 167.33804688 26.140625 168.02734375 C26.95086531 189.58552341 17.52439523 208.86328874 3.54296875 224.80078125 C-5.72081806 234.60710316 -17.20123222 242.49211542 -30 247 C-30.99 247 -31.98 247 -33 247 C-34.45287512 259.13700469 -34.45287512 259.13700469 -30.41162109 270.20751953 C-26.20627442 274.32634915 -21.33611394 277.43168416 -16.33886719 280.50390625 C-14.18712781 281.88030071 -12.25132894 283.33805767 -10.2890625 284.96875 C-2.20548351 291.61493816 4.78616406 293.41532934 15.04589844 294.70800781 C32.19892779 297.27110415 48.468873 308.539415 59 322 C59.00586624 320.88215118 59.01173248 319.76430237 59.01777649 318.61257935 C59.07512717 308.04936313 59.14795301 297.48635033 59.23571491 286.92334175 C59.28033673 281.49350612 59.31961084 276.0637441 59.34643555 270.63378906 C59.37255026 265.38815057 59.41301023 260.14279662 59.46318626 254.89733505 C59.47979985 252.90163604 59.49134828 250.90588787 59.49761391 248.91012955 C59.50731515 246.10271005 59.53544554 243.29600954 59.56762695 240.48876953 C59.56619186 239.67380508 59.56475677 238.85884064 59.5632782 238.0191803 C59.68911596 230.19646845 61.17907515 222.08160788 66.5625 216.125 C67.16191406 215.42632812 67.76132812 214.72765625 68.37890625 214.0078125 C78.17080505 206.50701371 89.2670261 207.42966315 100.99438477 207.48242188 C103.02064516 207.47699572 105.0469016 207.46987029 107.07315063 207.46118164 C112.55449203 207.44300539 118.03553099 207.44999202 123.51687741 207.46269798 C129.26353321 207.47285379 135.01016382 207.46342527 140.75682068 207.45715332 C150.40457794 207.44988503 160.05221255 207.45944381 169.69995117 207.47851562 C180.84269903 207.50028888 191.98515415 207.49322629 203.12789494 207.47121 C212.70865045 207.45304011 222.289318 207.45050529 231.87008518 207.46096468 C237.58628094 207.46719004 243.30233923 207.46806138 249.01852608 207.45481873 C254.39244498 207.44323757 259.7659875 207.45132758 265.13986588 207.47439575 C267.10824522 207.47967044 269.07665642 207.47819038 271.04502296 207.46934509 C273.73926509 207.45835699 276.43231333 207.47219202 279.1264801 207.49206543 C279.89886963 207.48314254 280.67125916 207.47421966 281.46705443 207.46502638 C288.46824491 207.56468224 294.32599268 209.81217583 299.75 214.25 C304.53566302 220.09914369 308.1144085 225.35749254 308.13422108 233.08748817 C308.13867892 233.89743315 308.14313676 234.70737813 308.14772969 235.5418669 C308.14745315 236.86820806 308.14745315 236.86820806 308.14717102 238.22134399 C308.15084771 239.16509018 308.1545244 240.10883637 308.1583125 241.08118093 C308.1693478 244.25155449 308.17319294 247.42189527 308.17700195 250.59228516 C308.18326674 252.86233626 308.18991355 255.13238635 308.19691467 257.4024353 C308.21795627 264.8646371 308.22831738 272.32683911 308.23828125 279.7890625 C308.24232881 282.35815822 308.24644573 284.92725383 308.25063133 287.49634933 C308.26750031 298.18340882 308.28213477 308.87046491 308.28938007 319.55753517 C308.29128986 322.32953518 308.29321021 325.10153518 308.29516602 327.87353516 C308.29564976 328.56247267 308.2961335 329.25141019 308.2966319 329.9612246 C308.3049279 341.11549073 308.33025833 352.26964947 308.36274669 363.42386873 C308.39585482 374.88463853 308.41349973 386.34532827 308.41702431 397.80615079 C308.41937442 404.23734102 308.42833009 410.66836149 308.45348549 417.09950638 C308.47677744 423.15207426 308.48099469 429.20436073 308.47072411 435.25696182 C308.47022891 437.4748783 308.4765445 439.69280868 308.49028015 441.91068268 C308.50802431 444.94637502 308.50088001 447.98106021 308.48774719 451.01675415 C308.50420106 452.32301882 308.50420106 452.32301882 308.52098733 453.65567267 C308.4379089 461.64887888 306.21712682 468.81250014 300.875 474.875 C291.10009809 483.54197391 279.36986892 482.57306441 267.09741211 482.51757812 C265.08100378 482.52300434 263.06459942 482.5301298 261.04820251 482.53881836 C255.59371927 482.55699392 250.13953997 482.55000827 244.68505168 482.53730202 C238.96642306 482.52714585 233.24781975 482.53657483 227.52919006 482.54284668 C217.92851102 482.55011487 208.32795524 482.54055647 198.72729492 482.52148438 C187.63907815 482.49971111 176.55115555 482.50677376 165.46294588 482.52879 C155.92889899 482.54696016 146.39494048 482.54949458 136.86088187 482.53903532 C131.17263154 482.53281011 125.48451936 482.5319382 119.796278 482.54518127 C114.44862324 482.55676282 109.10134672 482.54867172 103.75373268 482.52560425 C101.79502871 482.52032977 99.83629273 482.52180926 97.87760162 482.53065491 C95.19649469 482.54164386 92.51658728 482.52780701 89.83555603 482.50793457 C88.68280816 482.5213189 88.68280816 482.5213189 87.50677246 482.53497362 C79.412407 482.41920708 72.44990261 479.15637826 66.50390625 473.70703125 C61.22728243 467.71772058 59.86237816 460.83625807 59.90234375 453.04296875 C59.90556641 451.93115234 59.90878906 450.81933594 59.91210938 449.67382812 C59.92048828 448.52333984 59.92886719 447.37285156 59.9375 446.1875 C59.94201172 445.01767578 59.94652344 443.84785156 59.95117188 442.64257812 C59.96293071 439.76166375 59.98023146 436.8808672 60 434 C59.52199007 434.35379982 59.04398014 434.70759964 58.55148506 435.07212067 C49.41438351 440.74542151 39.34307197 439.6867397 28.97998047 439.61523438 C26.84372518 439.61873878 24.7074725 439.62440096 22.57122803 439.63204956 C16.79030116 439.64625926 11.00985213 439.62927409 5.228971 439.60576439 C-0.82911123 439.58561253 -6.88717446 439.59153712 -12.94528198 439.59387207 C-23.11513114 439.59381855 -33.28479417 439.5740926 -43.45458984 439.54199219 C-55.20512189 439.50508211 -66.95541037 439.49632 -78.70599282 439.5032897 C-90.02225853 439.50959837 -101.3384409 439.49883488 -112.65468979 439.47932434 C-117.46550562 439.47115887 -122.27627881 439.46843922 -127.08710098 439.47001648 C-132.75235048 439.47089648 -138.4173691 439.45664777 -144.08255768 439.43078995 C-146.15939337 439.42363859 -148.23625364 439.42153955 -150.31309891 439.42490768 C-153.15202567 439.42863304 -155.99028259 439.41383821 -158.82913208 439.39440918 C-159.64723488 439.39973711 -160.46533768 439.40506503 -161.30823147 439.41055441 C-168.56845342 439.32506532 -175.05596722 437.58886416 -180.6171875 432.58984375 C-186.19642492 426.17529677 -188.11369961 419.63612394 -188.16113281 411.31054688 C-188.16609772 410.64648834 -188.17106262 409.98242981 -188.17617798 409.29824829 C-188.19075804 407.10507151 -188.19759767 404.91196726 -188.203125 402.71875 C-188.20595238 401.96511673 -188.20877975 401.21148346 -188.21169281 400.43501282 C-188.22667545 396.4400701 -188.23590837 392.44516334 -188.24023438 388.45019531 C-188.24569116 384.35295884 -188.26966207 380.25605939 -188.29820633 376.15892792 C-188.31698161 372.98444718 -188.32204634 369.81004483 -188.32357025 366.63551331 C-188.32656821 365.12706172 -188.33449821 363.61861054 -188.34775543 362.11021423 C-188.4845982 345.33086008 -185.12607029 328.38897005 -173.046875 315.85546875 C-161.46960925 305.36080991 -145.25511369 294.55453242 -129.10546875 293.87890625 C-117.84237877 293.18470322 -110.72223256 286.53336487 -102.26660156 279.72314453 C-100.21232916 278.16141956 -98.17237029 276.85810035 -95.9296875 275.58984375 C-92.28046721 273.44187577 -89.5488045 271.47801091 -87 268 C-85.2544697 261.15173432 -85.54676457 254.00243907 -86 247 C-86.66644531 246.90847656 -87.33289063 246.81695312 -88.01953125 246.72265625 C-98.71002801 244.13059609 -109.01152432 237.34885327 -117 230 C-117.82886719 229.26265625 -118.65773438 228.5253125 -119.51171875 227.765625 C-134.07446912 214.11722803 -143.90910732 194.34607438 -145.24609375 174.3125 C-145.24937763 171.52776564 -145.18938567 168.77765648 -145 166 C-145.56847656 165.97421875 -146.13695312 165.9484375 -146.72265625 165.921875 C-153.93749168 165.39190378 -158.13800671 163.46264539 -163.6875 158.6875 C-169.74405396 151.64880215 -171.14859494 145.5486693 -171.16113281 136.43041992 C-171.16609772 135.56635529 -171.17106262 134.70229065 -171.17617798 133.81204224 C-171.19078619 130.95150959 -171.19760286 128.09103259 -171.203125 125.23046875 C-171.20888185 123.23187764 -171.21463952 121.23328654 -171.22039795 119.23469543 C-171.2309071 115.03740177 -171.23674892 110.84012723 -171.24023438 106.64282227 C-171.24568913 101.3016024 -171.26965241 95.96064133 -171.29820633 90.61950207 C-171.31697458 86.48498335 -171.32204601 82.35052487 -171.32357025 78.21596718 C-171.32657039 76.24947014 -171.334508 74.28297349 -171.34775543 72.31651878 C-171.45485439 55.18175446 -171.18764729 37.0400636 -158.8515625 23.66015625 C-151.12937006 16.73624953 -141.87503363 11.88631394 -131.375 11.8125 C-130.26125 11.874375 -129.1475 11.93625 -128 12 C-127.7215625 10.9790625 -127.7215625 10.9790625 -127.4375 9.9375 C-123.80817132 2.52104575 -117.21217986 -1.49763855 -110 -5 C-109.28972656 -5.35964844 -108.57945313 -5.71929687 -107.84765625 -6.08984375 C-78.72986067 -20.04321776 -26.61874002 -19.79342206 0 0 Z " fill="#A8715D" transform="translate(196,22)"/>
<path d="M0 0 C2.02626039 -0.00542616 4.05251684 -0.01255158 6.07876587 -0.02124023 C11.56010726 -0.03941648 17.04114622 -0.03242985 22.52249265 -0.01972389 C28.26914844 -0.00956808 34.01577905 -0.0189966 39.76243591 -0.02526855 C49.41019318 -0.03253685 59.05782778 -0.02297807 68.70556641 -0.00390625 C79.84831426 0.01786701 90.99076939 0.01080441 102.13351017 -0.01121187 C111.71426568 -0.02938176 121.29493324 -0.03191658 130.87570041 -0.0214572 C136.59189617 -0.01523183 142.30795447 -0.01436049 148.02414131 -0.02760315 C153.39806022 -0.0391843 158.77160273 -0.03109429 164.14548111 -0.00802612 C166.11386046 -0.00275143 168.08227166 -0.0042315 170.0506382 -0.01307678 C172.74488032 -0.02406489 175.43792856 -0.01022985 178.13209534 0.00964355 C178.90448486 0.00072067 179.67687439 -0.00820222 180.47266966 -0.0173955 C187.47386014 0.08226036 193.33160791 2.32975395 198.75561523 6.76757812 C203.54127826 12.61672182 207.12002373 17.87507067 207.13983631 25.6050663 C207.14429416 26.41501128 207.148752 27.22495626 207.15334493 28.05944502 C207.15316057 28.94367247 207.1529762 29.82789991 207.15278625 30.73892212 C207.15646294 31.68266831 207.16013963 32.6264145 207.16392773 33.59875906 C207.17496304 36.76913261 207.17880817 39.93947339 207.18261719 43.10986328 C207.18888197 45.37991439 207.19552878 47.64996447 207.20252991 49.92001343 C207.2235715 57.38221523 207.23393261 64.84441724 207.24389648 72.30664062 C207.24794405 74.87573635 207.25206097 77.44483196 207.25624657 80.01392746 C207.27311554 90.70098694 207.28775 101.38804303 207.29499531 112.0751133 C207.29690509 114.8471133 207.29882544 117.6191133 207.30078125 120.39111328 C207.30126499 121.0800508 207.30174873 121.76898831 207.30224713 122.47880273 C207.31054313 133.63306885 207.33587357 144.78722759 207.36836193 155.94144686 C207.40147005 167.40221666 207.41911497 178.8629064 207.42263955 190.32372892 C207.42498966 196.75491915 207.43394533 203.18593961 207.45910072 209.6170845 C207.48239268 215.66965238 207.48660993 221.72193885 207.47633934 227.77453995 C207.47584414 229.99245642 207.48215974 232.2103868 207.49589539 234.4282608 C207.51363955 237.46395315 207.50649525 240.49863833 207.49336243 243.53433228 C207.50433167 244.40517539 207.51530092 245.2760185 207.52660257 246.17325079 C207.44352413 254.16645701 205.22274205 261.33007827 199.88061523 267.39257812 C190.10571332 276.05955203 178.37548416 275.09064254 166.10302734 275.03515625 C164.08661902 275.04058247 162.07021466 275.04770792 160.05381775 275.05639648 C154.59933451 275.07457204 149.14515521 275.0675864 143.69066691 275.05488014 C137.9720383 275.04472398 132.25343498 275.05415295 126.5348053 275.0604248 C116.93412625 275.06769299 107.33357047 275.05813459 97.73291016 275.0390625 C86.64469338 275.01728923 75.55677078 275.02435189 64.46856111 275.04636812 C54.93451422 275.06453828 45.40055572 275.0670727 35.8664971 275.05661345 C30.17824678 275.05038823 24.4901346 275.04951633 18.80189323 275.0627594 C13.45423848 275.07434095 8.10696195 275.06624984 2.75934792 275.04318237 C0.80064394 275.03790789 -1.15809204 275.03938739 -3.11678314 275.04823303 C-5.79789008 275.05922198 -8.47779749 275.04538514 -11.15882874 275.0255127 C-11.92732731 275.03443558 -12.69582589 275.04335847 -13.48761231 275.05255175 C-21.58197776 274.9367852 -28.54448216 271.67395639 -34.49047852 266.22460938 C-40.65836189 259.22366124 -41.14373992 251.23357558 -41.13482666 242.32783508 C-41.13779778 241.39956868 -41.1407689 240.47130227 -41.14383006 239.51490659 C-41.15250497 236.40291362 -41.1540243 233.29095918 -41.15551758 230.17895508 C-41.16014662 227.94816506 -41.1651714 225.71737583 -41.17056274 223.48658752 C-41.18368081 217.42442233 -41.1901306 211.3622682 -41.1945734 205.30009103 C-41.19750521 201.51175236 -41.20161023 197.72341672 -41.20607758 193.93507957 C-41.21818495 183.43756044 -41.22856738 172.94004309 -41.23195267 162.44251728 C-41.23217223 161.77109314 -41.2323918 161.099669 -41.23261802 160.40789868 C-41.2328363 159.73490563 -41.23305457 159.06191258 -41.23327947 158.3685258 C-41.23372293 157.00487983 -41.23416949 155.64123386 -41.23461914 154.27758789 C-41.23484057 153.60117833 -41.235062 152.92476878 -41.23529014 152.22786196 C-41.23923592 141.27414237 -41.2566843 130.32048939 -41.27997866 119.36679552 C-41.30372477 108.10940433 -41.31589832 96.85204535 -41.31732059 85.59462517 C-41.31836806 79.27861862 -41.32426372 72.96270605 -41.3421402 66.64672279 C-41.35863484 60.70333767 -41.3607695 54.76011702 -41.35200119 48.81671715 C-41.35123156 46.6391188 -41.35556376 44.46151155 -41.36545944 42.28393555 C-41.37820727 39.30317566 -41.37228655 36.32299586 -41.36187744 33.34223938 C-41.37396205 32.06034358 -41.37396205 32.06034358 -41.38629079 30.7525509 C-41.32198379 22.83800494 -39.88585929 14.67724722 -34.43188477 8.64257812 C-33.8324707 7.94390625 -33.23305664 7.24523437 -32.61547852 6.52539062 C-22.82357971 -0.97540816 -11.72735866 -0.05275873 0 0 Z " fill="#E0EEFE" transform="translate(296.994384765625,229.482421875)"/>
<path d="M0 0 C3.3997801 3.03023879 6.31407068 6.31928204 9 10 C9 10.66 9 11.32 9 12 C10.8871875 11.87625 10.8871875 11.87625 12.8125 11.75 C23.38586434 11.81618694 32.30026011 17.0786164 40 24 C51.21154136 36.35557619 52.16561646 51.37661554 52.09765625 67.25 C52.09553383 69.13078247 52.09553383 69.13078247 52.09336853 71.04956055 C52.08874081 74.35717967 52.07978103 77.66474863 52.06866455 80.97235107 C52.05837176 84.35786327 52.05385417 87.74338286 52.04882812 91.12890625 C52.03783447 97.75262354 52.02112293 104.37630768 52 111 C51.33291016 110.10667969 51.33291016 110.10667969 50.65234375 109.1953125 C46.25468815 102.97371088 46.25468815 102.97371088 40 99 C34.50699478 98.34206344 29.58561011 98.29213834 24.5 100.5625 C21.48041434 103.50659602 19.88177943 106.23644113 18 110 C17.67 110 17.34 110 17 110 C16.85304687 109.18917969 16.70609375 108.37835938 16.5546875 107.54296875 C13.54141615 92.66710618 6.44215863 81.23963404 -5.875 72.1875 C-14.3614123 66.32017535 -14.3614123 66.32017535 -24.06640625 64.109375 C-26.71455909 65.32913025 -28.13373812 67.07248192 -30.0625 69.25 C-36.28945499 75.73512062 -44.70176005 80.02175259 -53.7890625 80.23828125 C-55.73429161 80.26888335 -57.67962417 80.2933777 -59.625 80.3125 C-61.06552734 80.35600586 -61.06552734 80.35600586 -62.53515625 80.40039062 C-70.92157787 80.47435499 -77.53735752 78.32180008 -84.1875 73.125 C-84.83847656 72.62097656 -85.48945312 72.11695312 -86.16015625 71.59765625 C-87.97352417 70.02299069 -89.52674352 68.35171699 -91.125 66.5625 C-93.70773094 63.65263703 -93.70773094 63.65263703 -96.796875 64.16015625 C-110.43771407 67.73671771 -122.49503342 77.82950631 -129.5625 89.875 C-133.09171642 96.24207021 -134.85833551 102.84081223 -136 110 C-136.91072266 108.84757812 -136.91072266 108.84757812 -137.83984375 107.671875 C-143.03839323 101.1769639 -143.03839323 101.1769639 -150.671875 98.69140625 C-157.86455553 98.34590874 -157.86455553 98.34590874 -164.0625 101.5625 C-167.11856585 104.68565022 -168.6033571 107.89222677 -170 112 C-170.33 112 -170.66 112 -171 112 C-171.07017298 104.69686536 -171.12314691 97.39380592 -171.15543652 90.09039974 C-171.17095066 86.69743193 -171.19192002 83.30469832 -171.22631836 79.91186523 C-171.62460377 37.51399331 -171.62460377 37.51399331 -158.8515625 23.66015625 C-151.12937006 16.73624953 -141.87503363 11.88631394 -131.375 11.8125 C-130.26125 11.874375 -129.1475 11.93625 -128 12 C-127.7215625 10.9790625 -127.7215625 10.9790625 -127.4375 9.9375 C-123.80817132 2.52104575 -117.21217986 -1.49763855 -110 -5 C-109.28972656 -5.35964844 -108.57945313 -5.71929687 -107.84765625 -6.08984375 C-78.72986067 -20.04321776 -26.61874002 -19.79342206 0 0 Z " fill="#5E3B33" transform="translate(196,22)"/>
<path d="M0 0 C-0.16081055 1.15975342 -0.32162109 2.31950684 -0.48730469 3.5144043 C-5.85885159 46.67811274 5.31490303 90.56207164 32.04785156 124.96533203 C41.77662083 137.19209832 41.77662083 137.19209832 55 145 C55 145.33 55 145.66 55 146 C41.57828318 146.06957391 28.15660941 146.12284897 14.73474884 146.15543652 C8.50213746 146.17107852 2.26964965 146.19229036 -3.96289062 146.22631836 C-9.97995719 146.25896358 -15.99690504 146.27686404 -22.01405334 146.28463173 C-24.30731576 146.29016593 -26.60057182 146.30097286 -28.89378357 146.31719017 C-32.11097144 146.33903264 -35.32767153 146.34196402 -38.54492188 146.34057617 C-39.48863647 146.351362 -40.43235107 146.36214783 -41.40466309 146.3732605 C-49.07270213 146.33757149 -55.7008374 144.90809288 -61.6171875 139.58984375 C-67.19642492 133.17529677 -69.11369961 126.63612394 -69.16113281 118.31054688 C-69.16609772 117.64648834 -69.17106262 116.98242981 -69.17617798 116.29824829 C-69.19075804 114.10507151 -69.19759767 111.91196726 -69.203125 109.71875 C-69.20595238 108.96511673 -69.20877975 108.21148346 -69.21169281 107.43501282 C-69.22667545 103.4400701 -69.23590837 99.44516334 -69.24023438 95.45019531 C-69.24569116 91.35295884 -69.26966207 87.25605939 -69.29820633 83.15892792 C-69.31698161 79.98444718 -69.32204634 76.81004483 -69.32357025 73.63551331 C-69.32656821 72.12706172 -69.33449821 70.61861054 -69.34775543 69.11021423 C-69.4845982 52.33086008 -66.12607029 35.38897005 -54.046875 22.85546875 C-39.31885379 9.50468616 -20.35098366 -0.63596824 0 0 Z " fill="#35718A" transform="translate(77,315)"/>
<path d="M0 0 C18.32212299 0.34510848 34.77946474 6.73742404 48.9375 18.375 C49.45723389 18.79668457 49.97696777 19.21836914 50.51245117 19.65283203 C56.1695334 24.53770658 61.16752222 30.40319482 61.7484436 38.07954407 C61.77763307 39.94904218 61.7746327 41.81923548 61.74462891 43.6887207 C61.75193024 44.71748825 61.75923157 45.7462558 61.76675415 46.80619812 C61.78286446 50.1800805 61.75584349 53.55201153 61.7265625 56.92578125 C61.72552445 59.27988178 61.72656314 61.63398406 61.72958374 63.98808289 C61.72940477 68.90809189 61.70863806 73.82744215 61.67236328 78.74731445 C61.62686443 85.05706622 61.62592796 91.3658617 61.63939857 97.67573261 C61.64607451 102.53045678 61.63282717 107.38496229 61.61314011 112.239645 C61.60543886 114.56688481 61.60313855 116.89414892 61.6063118 119.22139931 C61.60705224 122.4674908 61.58184485 125.71234598 61.54931641 128.95825195 C61.55427124 129.92090973 61.55922607 130.8835675 61.56433105 131.87539673 C61.46148001 138.29481534 61.46148001 138.29481534 59.40316772 141.44010925 C52.64968188 145.82378167 47.48288996 146.42982746 39.56665039 146.34057617 C38.5415033 146.34101425 37.5163562 146.34145233 36.46014404 146.34190369 C33.08911756 146.33982229 29.7185953 146.31652136 26.34765625 146.29296875 C24.00353772 146.2873705 21.65941566 146.28310148 19.31529236 146.28010559 C13.15854122 146.26867492 7.00200385 146.23922277 0.84533691 146.20599365 C-5.44227202 146.17525459 -11.72991564 146.16159204 -18.01757812 146.14648438 C-30.34514578 146.11435158 -42.67255508 146.06317653 -55 146 C-53 144 -53 144 -50.1875 142.6875 C-46.69637902 140.83925948 -44.68704615 138.88365928 -42 136 C-41.26716797 135.33097656 -41.26716797 135.33097656 -40.51953125 134.6484375 C-19.99069355 115.63122443 -6.28896382 84.99696367 -1 58 C-0.74077759 56.78957031 -0.74077759 56.78957031 -0.47631836 55.5546875 C1.16755228 47.09841283 1.27374383 38.84042193 1.20581055 30.26318359 C1.18747671 27.87196194 1.18530222 25.48112871 1.18554688 23.08984375 C1.16712071 15.32729307 0.97008212 7.71409305 0 0 Z " fill="#35718A" transform="translate(196,315)"/>
<path d="M0 0 C2.97552812 1.39194763 5.52749115 3.01567676 8.16015625 4.9765625 C8.94914307 5.56074951 9.73812988 6.14493652 10.55102539 6.74682617 C12.24525696 8.01383535 13.93843061 9.28226023 15.63061523 10.55200195 C21.01770949 14.59329571 21.01770949 14.59329571 26.625 18.31640625 C27.594375 18.93386719 28.56375 19.55132812 29.5625 20.1875 C30.38878906 20.67605469 31.21507812 21.16460937 32.06640625 21.66796875 C38.27461696 29.15544712 36.44236496 42.80555225 36.4375 52.125 C36.43810425 53.31236252 36.43810425 53.31236252 36.4387207 54.52371216 C36.338834 88.7465315 25.05908419 127.64978069 0.35473633 152.68017578 C-0.42232666 153.44571777 -1.19938965 154.21125977 -2 155 C-2.07516846 154.11256104 -2.15033691 153.22512207 -2.2277832 152.31079102 C-2.52150956 148.84890508 -2.81604093 145.38708957 -3.11117554 141.92532349 C-3.24536944 140.35037085 -3.37934168 138.7753993 -3.51309204 137.20040894 C-4.26273713 128.38015994 -5.03096389 119.56250122 -5.8671875 110.75 C-6.00610576 109.27400737 -6.14502181 107.79801454 -6.28393555 106.32202148 C-6.54494146 103.55267459 -6.81312547 100.78414704 -7.08520508 98.01586914 C-7.43170413 94.34567494 -7.73314079 90.67678418 -8 87 C-8.08604492 85.9157373 -8.17208984 84.83147461 -8.26074219 83.71435547 C-8.59873222 76.33102151 -7.0885449 72.00178677 -2.875 66 C-1.90006231 64.57195811 -0.93836778 63.13475603 0.0078125 61.6875 C0.43723145 61.07261719 0.86665039 60.45773437 1.30908203 59.82421875 C2.24203351 57.9595371 2.24203351 57.9595371 1.2421875 55.91308594 C-2.63536684 49.94128645 -8.07923444 44.86163549 -13.125 39.875 C-15.8059969 37.21553721 -18.44472643 34.53104071 -21 31.75 C-21.5775 31.12609375 -22.155 30.5021875 -22.75 29.859375 C-24 28 -24 28 -24 24 C-22.30780129 21.95901033 -20.65117606 20.18578489 -18.75 18.359375 C-17.95094238 17.56880707 -17.95094238 17.56880707 -17.13574219 16.76226807 C-15.43298606 15.08189366 -13.71685057 13.41595959 -12 11.75 C-10.84284093 10.61290353 -9.68657927 9.47489306 -8.53125 8.3359375 C-5.6978023 5.54658087 -2.85227568 2.77009576 0 0 Z " fill="#FDFDFD" transform="translate(162,290)"/>
<path d="M0 0 C3.90851199 1.58431453 6.52367356 4.26635095 9.421875 7.2265625 C9.92672424 7.73424164 10.43157349 8.24192078 10.95172119 8.76498413 C12.55592096 10.38033842 14.15300856 12.00252209 15.75 13.625 C16.83938107 14.72441698 17.9292199 15.82338059 19.01953125 16.921875 C21.68501885 19.6093602 24.34415143 22.30299021 27 25 C25.69645797 27.85452822 24.29052944 29.98134532 22.12890625 32.25 C21.55930176 32.85320068 20.98969727 33.45640137 20.40283203 34.07788086 C19.79552246 34.71218018 19.18821289 35.34647949 18.5625 36 C17.3003001 37.33418039 16.0385882 38.66882261 14.77734375 40.00390625 C14.14554199 40.6705127 13.51374023 41.33711914 12.86279297 42.02392578 C10.08731247 44.96819042 7.35338388 47.9496392 4.625 50.9375 C4.15521729 51.45119141 3.68543457 51.96488281 3.20141602 52.49414062 C2.13362777 53.66216692 1.06670204 54.83098164 0 56 C1.69576713 61.96196021 4.79893561 66.35292567 8.3203125 71.390625 C12.36255265 80.07674104 9.55323923 91.31258243 8.6875 100.6328125 C8.5525878 102.1206413 8.41807311 103.60850619 8.28393555 105.09640503 C7.93278335 108.97973805 7.57629465 112.8625626 7.21862793 116.74530029 C6.85341556 120.72052781 6.49334127 124.69622047 6.1328125 128.671875 C5.42685485 136.44837644 4.71524929 144.22434706 4 152 C3.01 152 2.02 152 1 152 C-11.100008 139.43375316 -19.3045059 122.29046635 -25 106 C-25.25765137 105.27731934 -25.51530273 104.55463867 -25.78076172 103.81005859 C-32.12938417 85.77567967 -34.26002326 68.91375586 -34.3125 49.875 C-34.31626648 49.10824951 -34.32003296 48.34149902 -34.32391357 47.55151367 C-34.3763151 26.50300288 -34.3763151 26.50300288 -30.2644043 22.171875 C-27.98603065 20.31269325 -25.6419854 18.68151134 -23.1875 17.0625 C-21.46528943 15.86451146 -19.7439396 14.66528462 -18.0234375 13.46484375 C-17.17362305 12.88331543 -16.32380859 12.30178711 -15.44824219 11.70263672 C-11.97941929 9.29023436 -8.64061935 6.72644742 -5.3125 4.125 C-4.27738281 3.32320313 -3.24226563 2.52140625 -2.17578125 1.6953125 C-1.45777344 1.13585937 -0.73976562 0.57640625 0 0 Z " fill="#FDFDFE" transform="translate(109,290)"/>
<path d="M0 0 C11.55 0 23.1 0 35 0 C35.78739305 7.93017282 36.57314812 15.86026183 37.34475708 23.79194641 C37.70466306 27.48719707 38.06718447 31.18214406 38.43652344 34.87646484 C38.79352629 38.44849306 39.14269657 42.02121501 39.48690796 45.59449768 C39.68113369 47.59081493 39.88303981 49.58638032 40.08520508 51.58190918 C40.7217667 58.25940212 41.17275296 64.92514813 41.30859375 71.63085938 C41.33880615 72.9164978 41.36901855 74.20213623 41.40014648 75.5267334 C40.83081781 80.46849933 38.73350548 82.99212456 35.16015625 86.30078125 C34.09087891 87.14189453 34.09087891 87.14189453 33 88 C32.44183594 88.44730469 31.88367188 88.89460938 31.30859375 89.35546875 C26.22693669 93.03071419 21.71007402 94.21142028 15.57421875 94.4609375 C8.11168001 93.12470143 3.05013855 88.60620755 -2 83.25 C-2.87591797 82.34701172 -2.87591797 82.34701172 -3.76953125 81.42578125 C-5.18914672 79.95962101 -6.59596419 78.48108656 -8 77 C-7.505 76.01 -7.505 76.01 -7 75 C-6.74016718 72.92150008 -6.53362472 70.83626239 -6.3515625 68.74951172 C-6.26597076 67.78811531 -6.26597076 67.78811531 -6.1786499 66.80729675 C-5.99032378 64.68174096 -5.8077124 62.55573257 -5.625 60.4296875 C-5.4946999 58.94951948 -5.36399756 57.46938683 -5.23291016 55.98928833 C-4.88786601 52.08326724 -4.54745648 48.17685674 -4.20825195 44.27032471 C-3.66648743 38.0389212 -3.11807608 31.80810085 -2.56903076 25.57733536 C-2.3786224 23.40844918 -2.1903732 21.23938398 -2.00244141 19.07028198 C-1.8844927 17.72246854 -1.76649393 16.37465948 -1.6484375 15.02685547 C-1.54708496 13.86040497 -1.44573242 12.69395447 -1.34130859 11.49215698 C-0.96615643 7.65372373 -0.47836756 3.82694048 0 0 Z " fill="#CD4D61" transform="translate(119,367)"/>
<path d="M0 0 C3.90851199 1.58431453 6.52367356 4.26635095 9.421875 7.2265625 C9.92672424 7.73424164 10.43157349 8.24192078 10.95172119 8.76498413 C12.55592096 10.38033842 14.15300856 12.00252209 15.75 13.625 C16.83938107 14.72441698 17.9292199 15.82338059 19.01953125 16.921875 C21.68501885 19.6093602 24.34415143 22.30299021 27 25 C25.71579891 27.79999806 24.35456081 29.91524918 22.234375 32.14453125 C21.68072266 32.73218262 21.12707031 33.31983398 20.55664062 33.92529297 C19.66235352 34.85946045 19.66235352 34.85946045 18.75 35.8125 C17.4837389 37.14392657 16.21813357 38.47597707 14.953125 39.80859375 C14.30150391 40.49421387 13.64988281 41.17983398 12.97851562 41.88623047 C11.00871042 43.99069412 9.08551889 46.12959703 7.171875 48.28515625 C6.55602539 48.97053467 5.94017578 49.65591309 5.30566406 50.36206055 C4.1250343 51.6782169 2.9546034 53.00361255 1.79589844 54.33911133 C-0.95377389 57.37333134 -2.35501543 58.82691928 -6.40625 59.9140625 C-7.2621875 59.94242187 -8.118125 59.97078125 -9 60 C-14.51813151 52.63073811 -19.77304045 45.07721337 -25 37.5 C-25.68328369 36.52015137 -26.36656738 35.54030273 -27.07055664 34.53076172 C-28.0256311 33.13881592 -28.0256311 33.13881592 -29 31.71875 C-29.86625 30.46481445 -29.86625 30.46481445 -30.75 29.18554688 C-32 27 -32 27 -32 24 C-30.4621582 22.53295898 -30.4621582 22.53295898 -28.30078125 20.99609375 C-27.50905518 20.42455566 -26.7173291 19.85301758 -25.90161133 19.26416016 C-25.04720459 18.6613623 -24.19279785 18.05856445 -23.3125 17.4375 C-21.57210098 16.18472615 -19.83252179 14.93081261 -18.09375 13.67578125 C-16.80017578 12.74693115 -16.80017578 12.74693115 -15.48046875 11.79931641 C-12.04134083 9.30459468 -8.66897665 6.72938706 -5.3125 4.125 C-4.27738281 3.32320313 -3.24226563 2.52140625 -2.17578125 1.6953125 C-1.45777344 1.13585937 -0.73976563 0.57640625 0 0 Z " fill="#E1EEFE" transform="translate(109,290)"/>
<path d="M0 0 C2.97552812 1.39194763 5.52749115 3.01567676 8.16015625 4.9765625 C8.9493042 5.56163574 9.73845215 6.14670898 10.55151367 6.74951172 C11.38013916 7.36842285 12.20876465 7.98733398 13.0625 8.625 C14.76804119 9.8908783 16.4737696 11.1565044 18.1796875 12.421875 C19.00436523 13.03482422 19.82904297 13.64777344 20.67871094 14.27929688 C25.09487894 17.55287198 29.54649472 20.77746359 34 24 C33.35700635 27.73671481 31.68170057 30.27208644 29.578125 33.39453125 C28.88203125 34.43287109 28.1859375 35.47121094 27.46875 36.54101562 C26.7365625 37.62060547 26.004375 38.70019531 25.25 39.8125 C24.53328125 40.88048828 23.8165625 41.94847656 23.078125 43.04882812 C21.68574325 45.11820432 20.28561465 47.18239385 18.87695312 49.24072266 C17.743299 50.90728859 16.62702067 52.58612825 15.54492188 54.28662109 C13.74074688 57.05146986 12.49829194 58.7826599 9.4296875 60.12109375 C6.32565178 59.96639101 5.36517652 59.18648479 3.125 57.0625 C2.43535156 56.41152344 1.74570313 55.76054687 1.03515625 55.08984375 C-1.47257356 52.51472773 -3.82893258 49.84308183 -6.15234375 47.1015625 C-8.1780441 44.79748895 -10.31422567 42.65248842 -12.5 40.5 C-15.40929247 37.61066837 -18.28876152 34.70779301 -21.0625 31.6875 C-21.63097656 31.07261719 -22.19945312 30.45773437 -22.78515625 29.82421875 C-24 28 -24 28 -24 24 C-22.30780129 21.95901033 -20.65117606 20.18578489 -18.75 18.359375 C-17.95094238 17.56880707 -17.95094238 17.56880707 -17.13574219 16.76226807 C-15.43298606 15.08189366 -13.71685057 13.41595959 -12 11.75 C-10.84284093 10.61290353 -9.68657927 9.47489306 -8.53125 8.3359375 C-5.6978023 5.54658087 -2.85227568 2.77009576 0 0 Z " fill="#E1EEFE" transform="translate(162,290)"/>
<path d="M0 0 C4.00031288 3.94777594 7.8590799 8.01079049 11.6875 12.125 C12.29674316 12.77863525 12.90598633 13.43227051 13.53369141 14.10571289 C18.73529244 19.69562553 23.88485073 25.33090599 29 31 C26.69240742 38.4551878 23.85045835 46.55660007 18 52 C12.60540381 54.71932343 6.51104904 54.35723091 0.625 54.125 C-0.5567128 54.11273376 -0.5567128 54.11273376 -1.76229858 54.10021973 C-8.11123541 53.9918286 -14.34003296 53.81834985 -19.72998047 50.13378906 C-23.95939228 45.49007969 -27.34518322 39.33294334 -28 33 C-26.49707329 28.9857013 -23.59369892 26.18716168 -20.6875 23.125 C-20.16567139 22.56707764 -19.64384277 22.00915527 -19.10620117 21.43432617 C-17.40800952 19.61920902 -15.70402594 17.80963955 -14 16 C-12.18424238 14.06387412 -10.37058123 12.12585318 -8.55981445 10.18505859 C-7.40978603 8.95259835 -6.25733949 7.72238934 -5.10229492 6.49462891 C-2.21969604 3.48945864 -2.21969604 3.48945864 0 0 Z " fill="#A53D51" transform="translate(136,315)"/>
<path d="M0 0 C0.90138702 -0.0071553 1.80277405 -0.01431061 2.73147583 -0.02168274 C5.70488476 -0.03856355 8.67678483 -0.01917224 11.65014648 0.00219727 C13.71850204 0.00136858 15.78685754 -0.00109077 17.85520935 -0.00511169 C22.18704076 -0.00796918 26.51835497 0.00672835 30.85009766 0.03417969 C36.4044224 0.0682834 41.9578236 0.06223656 47.51219273 0.04351711 C51.78187264 0.03295303 56.05133734 0.04187926 60.32099724 0.05690193 C62.36913349 0.0620871 64.41729218 0.0615979 66.46542549 0.05535698 C69.32640116 0.04991116 72.18605044 0.07025887 75.046875 0.09765625 C76.31794853 0.08786743 76.31794853 0.08786743 77.61470032 0.07788086 C81.37890977 0.13922587 83.34612801 0.19626634 86.47666931 2.41835022 C88.25219557 5.06923658 88.52196408 7.37347252 88.68530273 10.53344727 C87.50380981 13.94453167 84.98787683 15.86523537 81.95874023 17.63110352 C78.99383356 18.32861353 76.13081213 18.30590988 73.09521484 18.26220703 C72.2245488 18.26936234 71.35388275 18.27651764 70.45683289 18.28388977 C67.59104264 18.30074031 64.72682464 18.28139743 61.86108398 18.26000977 C59.86381399 18.26083872 57.86654407 18.26329913 55.86927795 18.26731873 C51.68884685 18.27017413 47.5089523 18.25549909 43.32861328 18.22802734 C37.97282248 18.1939231 32.61798952 18.19997266 27.26215267 18.21868992 C23.13997933 18.2292622 19.01802857 18.22032034 14.89587593 18.2053051 C12.92113468 18.20012601 10.94637016 18.20060177 8.971632 18.20685005 C6.21153703 18.21230585 3.45281013 18.1919165 0.69287109 18.16455078 C-0.12129272 18.17107666 -0.93545654 18.17760254 -1.77429199 18.18432617 C-5.72257846 18.11782534 -7.61273539 17.90521192 -11.02464294 15.72276306 C-13.41927088 13.23902578 -13.96065626 12.23562979 -14.41625977 8.81860352 C-14.04125977 5.63110352 -14.04125977 5.63110352 -12.082901 2.97132874 C-7.96249125 -0.19889617 -5.06164169 -0.07000787 0 0 Z " fill="#9FBCCF" transform="translate(381.041259765625,392.368896484375)"/>
<path d="M0 0 C0.87066605 -0.00554901 1.74133209 -0.01109802 2.63838196 -0.01681519 C5.5041989 -0.02858543 8.36842553 -0.00436514 11.23413086 0.02148438 C13.2313988 0.0231961 15.22866899 0.02312916 17.22593689 0.0213623 C21.40637787 0.023014 25.58628159 0.04168622 29.76660156 0.07324219 C35.12228285 0.11294482 40.47726162 0.11728347 45.83306217 0.10977936 C49.95521977 0.10670867 54.07721972 0.11883331 58.19933891 0.13591003 C60.17407683 0.14293544 62.14883261 0.14606512 64.12358284 0.1452179 C66.88349789 0.14701748 69.64257396 0.16841226 72.40234375 0.1953125 C73.62358948 0.1909166 73.62358948 0.1909166 74.86950684 0.18643188 C79.45119715 0.25526427 82.50558327 0.73669781 86.13647461 3.61523438 C87.70583055 6.75394625 87.48848564 9.15379259 87.13647461 12.61523438 C85.16282829 15.32034067 83.5815103 17.27217597 80.21836662 18.07060242 C77.86074293 18.2528249 75.5514623 18.26798072 73.18701172 18.23046875 C72.29537827 18.23601776 71.40374481 18.24156677 70.48509216 18.24728394 C67.54411724 18.25907439 64.604685 18.23481305 61.66381836 18.20898438 C59.61788503 18.2072732 57.57194951 18.20733903 55.52601624 18.20910645 C51.24125147 18.2074536 46.95701016 18.18876017 42.67236328 18.15722656 C37.17867624 18.1175242 31.68567399 18.11318446 26.19187069 18.12068939 C21.96852844 18.12375778 17.74534033 18.11164361 13.5220356 18.09455872 C11.49623138 18.08752538 9.47040969 18.08440459 7.44459343 18.08525085 C4.61492156 18.08345443 1.78607265 18.06208662 -1.04345703 18.03515625 C-1.88148865 18.03808685 -2.71952026 18.04101746 -3.58294678 18.04403687 C-6.93995592 17.99470674 -9.39994271 17.87407716 -12.36351013 16.21936035 C-14.22572489 14.2278959 -14.63022132 12.93210852 -14.98852539 10.24023438 C-15.11485352 9.49 -15.24118164 8.73976563 -15.37133789 7.96679688 C-14.71064188 4.90726613 -13.1273376 3.59657329 -10.72632027 1.68678284 C-7.30625497 -0.28056513 -3.85817124 -0.06300871 0 0 Z " fill="#9EBBCE" transform="translate(381.863525390625,289.384765625)"/>
<path d="M0 0 C0.89002716 -0.0087616 1.78005432 -0.01752319 2.697052 -0.02655029 C5.63316895 -0.04852083 8.56777453 -0.03399989 11.50390625 -0.01708984 C13.5474476 -0.02045865 15.59098699 -0.02531181 17.63452148 -0.03158569 C21.91507057 -0.03895385 26.19509759 -0.0282531 30.47558594 -0.00488281 C35.9604396 0.02360465 41.44406999 0.00720041 46.92887878 -0.02274513 C51.14800216 -0.04081947 55.36683588 -0.03505939 59.58596802 -0.02210617 C61.60816594 -0.01877255 63.63039024 -0.02285768 65.65255737 -0.03450394 C68.48001685 -0.0472147 71.30550011 -0.0278326 74.1328125 0 C75.38446701 -0.01518173 75.38446701 -0.01518173 76.66140747 -0.03067017 C80.92018646 0.0469325 82.59860181 0.2883229 86.08959961 2.9647522 C88.06640625 5.64697266 88.06640625 5.64697266 88.62890625 9.20947266 C87.98769436 13.12798977 87.17141406 14.27255492 84.06640625 16.64697266 C80.81381738 18.27326709 77.23207116 17.81234384 73.65698242 17.82397461 C72.35185951 17.83383141 72.35185951 17.83383141 71.02037048 17.84388733 C68.13337117 17.86364085 65.24642391 17.87528728 62.359375 17.88525391 C61.37451929 17.88932943 60.38966358 17.89340496 59.37496376 17.89760399 C54.162657 17.91847316 48.95037663 17.9327714 43.73803711 17.94213867 C38.35086101 17.95320689 32.96409753 17.98760922 27.57706738 18.02731037 C23.43780238 18.05343966 19.29863626 18.06182722 15.15929604 18.06542015 C13.17335535 18.07029539 11.18741936 18.08193596 9.20155907 18.10045815 C6.42204347 18.12477187 3.64360276 18.12389885 0.86401367 18.11694336 C0.04356567 18.12975342 -0.77688232 18.14256348 -1.62219238 18.15576172 C-5.59331258 18.11953908 -7.48627557 17.9321286 -10.92094421 15.74259949 C-13.30923018 13.25584953 -13.85326297 12.24945351 -14.30859375 8.83447266 C-13.93359375 5.64697266 -13.93359375 5.64697266 -11.96850586 2.9881897 C-7.87791262 -0.16740962 -5.02926167 -0.06100158 0 0 Z " fill="#9EBBCE" transform="translate(380.93359375,443.35302734375)"/>
<path d="M0 0 C1.30271347 -0.01226624 1.30271347 -0.01226624 2.63174438 -0.02478027 C5.51392931 -0.04964942 8.3960649 -0.06615487 11.27832031 -0.08056641 C12.26192787 -0.08589008 13.24553543 -0.09121376 14.25894928 -0.09669876 C19.4659192 -0.12343796 24.67286509 -0.14280971 29.87988281 -0.15722656 C35.25808789 -0.17386918 40.63567956 -0.21864168 46.0136528 -0.26959801 C50.14866844 -0.30325818 54.28353834 -0.31480271 58.41867828 -0.32045364 C60.40102064 -0.32717035 62.38335328 -0.34240327 64.36556244 -0.36634445 C67.14265351 -0.39797019 69.91808856 -0.39803664 72.6953125 -0.390625 C73.51216522 -0.40703033 74.32901794 -0.42343567 75.17062378 -0.44033813 C79.23665487 -0.39598748 81.86169702 -0.02758301 85.12432861 2.5105896 C87.60644531 5.19287109 87.60644531 5.19287109 88.23144531 8.69287109 C87.48817782 12.85516903 86.70959868 14.33157244 83.60644531 17.19287109 C80.64094257 17.93797117 77.73949341 17.87621227 74.69458008 17.83984375 C73.34512802 17.85298615 73.34512802 17.85298615 71.96841431 17.86639404 C68.99440279 17.88840136 66.02187822 17.87382927 63.04785156 17.85693359 C60.98046076 17.86030164 58.91307189 17.86515416 56.84568787 17.87142944 C52.51208653 17.87880284 48.17900043 17.86808108 43.84545898 17.84472656 C38.29220025 17.81625666 32.74015062 17.83262896 27.18693638 17.86258888 C22.91719976 17.88066426 18.64774935 17.87490234 14.37800407 17.86194992 C12.33068638 17.85861567 10.28334267 17.86270366 8.23605537 17.87434769 C5.37257302 17.88705812 2.5110422 17.86767575 -0.35229492 17.83984375 C-1.19765305 17.8499649 -2.04301117 17.86008606 -2.91398621 17.87051392 C-7.22328107 17.79297873 -8.90658576 17.57103476 -12.42347717 14.8399353 C-14.39355469 12.19287109 -14.39355469 12.19287109 -14.95605469 9.19287109 C-14.26997812 5.53379605 -12.96621155 3.84119434 -10.39355469 1.19287109 C-7.14522784 -0.43129233 -3.57075071 0.01843896 0 0 Z " fill="#9FBCCE" transform="translate(381.3935546875,340.80712890625)"/>
<path d="M0 0 C1.75029762 0.31082872 3.50022694 0.62373179 5.25 0.9375 C6.71179688 1.19853516 6.71179688 1.19853516 8.203125 1.46484375 C11 2 11 2 12.86230469 2.52075195 C23.66262131 4.94206551 37.39047139 4.01132867 47.890625 0.65625 C50 0 50 0 53 0 C54.69992378 7.18501118 55.5409112 13.92182334 53 21 C49.69440388 26.25896248 45.1994152 30.58882936 40.75 34.875 C40.16912628 35.44000214 39.58825256 36.00500427 38.98977661 36.58712769 C37.30165289 38.20653755 35.59074884 39.79418619 33.859375 41.3671875 C33.06988716 42.09529884 33.06988716 42.09529884 32.26445007 42.83811951 C28.64586768 45.9750987 28.64586768 45.9750987 25.98632812 46.07763672 C20.58138647 43.14530972 16.17097286 38.47719956 11.75 34.25 C10.91263306 33.45215088 10.91263306 33.45215088 10.05834961 32.63818359 C3.6233849 26.36976205 -1.35517273 21.23029508 -1.67871094 11.80371094 C-1.42049759 7.7527245 -0.89183749 3.9637222 0 0 Z " fill="#925D4D" transform="translate(110,269)"/>
<path d="M0 0 C4.45090235 0.79480399 5.56107672 2.24523823 8.5 5.625 C15.24498353 12.60761167 23.78542799 16.81927261 33.5625 17.1875 C43.88986201 16.68800667 53.06831732 12.54069401 60.078125 4.90625 C60.56796875 4.3596875 61.0578125 3.813125 61.5625 3.25 C64.5 0.625 64.5 0.625 68.0625 -0.0625 C72.44906301 0.8148126 73.93704983 1.97473763 76.5 5.625 C77.375 8.8125 77.375 8.8125 76.5 12.625 C68.64586644 23.94789278 55.9959064 31.92581872 42.5 34.625 C25.88705008 35.68540106 11.53505464 32.10905281 -1.1875 21 C-5.07939855 17.3762827 -8.10758293 13.9795024 -9 8.625 C-8.0990479 3.21928739 -5.28768906 0.94423019 0 0 Z " fill="#925C4C" transform="translate(102.5,204.375)"/>
<path d="M0 0 C3.94800307 0.96968496 5.37555013 1.4633582 7.5625 4.875 C8.43543458 11.42612082 8.43543458 11.42612082 6.43991089 14.73825073 C4.79688549 16.66525583 3.06877362 18.4254809 1.24609375 20.18359375 C0.2721743 21.16187889 0.2721743 21.16187889 -0.72142029 22.15992737 C-2.0947846 23.52998125 -3.47803236 24.89019027 -4.87036133 26.2409668 C-6.99355671 28.30623251 -9.07689253 30.40629263 -11.15820312 32.51367188 C-12.50039085 33.84338364 -13.84472406 35.170934 -15.19140625 36.49609375 C-15.81149063 37.12204941 -16.43157501 37.74800507 -17.07044983 38.39292908 C-21.01661964 42.17227864 -23.7363497 43.82253945 -29.4375 43.875 C-31.625 42.72265625 -31.625 42.72265625 -33.4375 40.9375 C-34.0975 40.29039062 -34.7575 39.64328125 -35.4375 38.9765625 C-36.0975 38.28304687 -36.7575 37.58953125 -37.4375 36.875 C-38.4584375 35.86566406 -38.4584375 35.86566406 -39.5 34.8359375 C-42.37768604 31.83061216 -44.22348998 29.78454258 -45.1875 25.6875 C-44.14396942 21.77426032 -42.70905869 20.24165948 -39.4375 17.875 C-33.65530729 16.92882301 -31.07145338 18.59668981 -26.4375 21.875 C-25.55227661 20.98192139 -25.55227661 20.98192139 -24.64916992 20.07080078 C-22.45392693 17.85849352 -20.2564241 15.64846296 -18.05737305 13.43994141 C-16.64001 12.01508931 -15.22526361 10.58763587 -13.81054688 9.16015625 C-12.91787109 8.26425781 -12.02519531 7.36835938 -11.10546875 6.4453125 C-10.28328857 5.61789551 -9.4611084 4.79047852 -8.61401367 3.93798828 C-5.57173722 1.05439479 -4.28749041 -0.15590874 0 0 Z " fill="#4CB592" transform="translate(340.4375,327.125)"/>
<path d="M0 0 C3.25474071 2.16982714 3.87641512 3.41578058 4.6875 7.25 C3.0878319 15.97546235 -6.65688794 22.81368688 -12.81762695 28.94799805 C-14.33078666 30.45572096 -15.83842885 31.96881759 -17.34570312 33.48242188 C-18.30957474 34.44563392 -19.27375584 35.4085364 -20.23828125 36.37109375 C-21.10493408 37.23661865 -21.97158691 38.10214355 -22.86450195 38.99389648 C-25.48850537 41.45890575 -26.54711022 41.92753764 -30.125 42.5 C-35.69113623 41.78178887 -38.19821567 38.93235066 -42 35 C-42.60714844 34.401875 -43.21429688 33.80375 -43.83984375 33.1875 C-46.46772551 30.41740346 -47.85598648 28.65460693 -48.6875 24.875 C-47.73362299 20.88605978 -46.30887334 19.39365306 -43 17 C-37.21780729 16.05382301 -34.63395338 17.72168981 -30 21 C-29.37432129 20.36908447 -28.74864258 19.73816895 -28.10400391 19.08813477 C-25.78390381 16.75100365 -23.46157708 14.41613222 -21.13769531 12.08276367 C-20.13190797 11.07194415 -19.12701952 10.06022938 -18.12304688 9.04760742 C-16.68073517 7.59318144 -15.23523328 6.14199385 -13.7890625 4.69140625 C-12.91975098 3.81685791 -12.05043945 2.94230957 -11.15478516 2.04125977 C-7.31472255 -1.59648819 -5.09778781 -1.14260761 0 0 Z " fill="#4BB592" transform="translate(344,434)"/>
<path d="M0 0 C3.25474071 2.16982714 3.87641512 3.41578058 4.6875 7.25 C3.9864626 11.07384035 3.63832415 11.77735874 1.16796875 14.484375 C0.21579468 15.52996582 0.21579468 15.52996582 -0.75561523 16.59667969 C-1.49626221 17.38977539 -2.23690918 18.18287109 -3 19 C-3.85343994 19.92458008 -4.70687988 20.84916016 -5.58618164 21.80175781 C-7.97842944 24.37670516 -10.4098556 26.91068527 -12.86035156 29.43017578 C-13.87558496 30.48239222 -14.88174488 31.54343452 -15.87890625 32.61279297 C-25.26254913 42.66100846 -25.26254913 42.66100846 -30.8203125 43.03515625 C-35.58496604 42.36855415 -38.34887891 39.8979589 -41.5 36.4375 C-42.02335937 35.92380859 -42.54671875 35.41011719 -43.0859375 34.88085938 C-46.63925094 31.1756556 -47.95000598 28.29936597 -48 23 C-46 19.5625 -46 19.5625 -43 17 C-38.50176303 16.18213873 -36.64960776 16.58897546 -32.77734375 19.0390625 C-31.86082031 19.68617188 -30.94429688 20.33328125 -30 21 C-29.37432129 20.36908447 -28.74864258 19.73816895 -28.10400391 19.08813477 C-25.78390381 16.75100365 -23.46157708 14.41613222 -21.13769531 12.08276367 C-20.13190797 11.07194415 -19.12701952 10.06022938 -18.12304688 9.04760742 C-16.68073517 7.59318144 -15.23523328 6.14199385 -13.7890625 4.69140625 C-12.91975098 3.81685791 -12.05043945 2.94230957 -11.15478516 2.04125977 C-7.31472255 -1.59648819 -5.09778781 -1.14260761 0 0 Z " fill="#4CB592" transform="translate(344,381)"/>
<path d="M0 0 C2.5 1.5 2.5 1.5 4 4 C4.88723153 10.57097718 4.88723153 10.57097718 2.84332275 13.86300659 C1.15146876 15.79017928 -0.62485663 17.55088036 -2.4921875 19.30859375 C-3.1533255 19.96078384 -3.8144635 20.61297394 -4.49563599 21.28492737 C-6.60401692 23.35529188 -8.73881485 25.39587678 -10.875 27.4375 C-12.30515367 28.83608474 -13.73356048 30.23645816 -15.16015625 31.63867188 C-17.76958118 34.18968143 -20.38274928 36.73626234 -23.01904297 39.25952148 C-23.54754852 39.76611801 -24.07605408 40.27271454 -24.62057495 40.79466248 C-26.64619469 42.56464301 -28.02136663 43.00349411 -30.69921875 43.44140625 C-35.47904349 42.80221075 -37.55915579 40.32439083 -40.8125 36.9375 C-41.68938477 36.09541992 -41.68938477 36.09541992 -42.58398438 35.23632812 C-46.38026126 31.38726407 -47.96617604 28.62154134 -48 23 C-46.03959524 19.24255754 -44.72680706 18.23312679 -40.6875 16.9375 C-37.06693023 16.99886559 -36.18080055 17.22653634 -33.26953125 19.00390625 C-31.65111328 19.99197266 -31.65111328 19.99197266 -30 21 C-29.40461426 20.39937744 -28.80922852 19.79875488 -28.19580078 19.17993164 C-25.98752141 16.95461906 -23.77700557 14.73155962 -21.56494141 12.51000977 C-20.60765619 11.54769305 -19.65127006 10.58448108 -18.69580078 9.62036133 C-17.32300212 8.23544555 -15.94670528 6.85400009 -14.5703125 5.47265625 C-13.32918701 4.22367554 -13.32918701 4.22367554 -12.06298828 2.94946289 C-8.4276915 -0.48578501 -4.84014423 -0.66001967 0 0 Z " fill="#4CB592" transform="translate(344,275)"/>
</svg>
