<?xml version="1.0" encoding="UTF-8"?>
<svg version="1.1" xmlns="http://www.w3.org/2000/svg" width="512" height="512">
<path d="M0 0 C13.06477712 3.7811002 24.93985388 10.41828734 31.9453125 22.5234375 C36.92319327 32.91541568 39.1722795 42.6266421 39.05615234 54.12182617 C39.05994904 55.33351471 39.06374573 56.54520325 39.06765747 57.79360962 C39.07374155 61.07725484 39.06219012 64.36021693 39.04175138 67.64378524 C39.02396444 71.11198733 39.02770977 74.58017771 39.0284729 78.04841614 C39.02660789 83.87424807 39.00936149 89.69986997 38.98193359 95.52563477 C38.95056556 102.21196802 38.93993547 108.89807126 38.9414047 115.58447284 C38.94276837 122.76588575 38.92880929 129.94721279 38.91051149 137.12859941 C38.90629769 139.16832397 38.90483585 141.20803419 38.90403366 143.24776268 C38.86649123 176.05252519 36.65617667 203.11277251 12.5703125 227.2734375 C11.87099609 227.86012207 11.17167969 228.44680664 10.45117188 229.05126953 C8.0137005 231.93105463 8.03423283 233.61350067 7.9609375 237.3515625 C7.92871094 238.51171875 7.89648438 239.671875 7.86328125 240.8671875 C7.84910156 242.07375 7.83492187 243.2803125 7.8203125 244.5234375 C7.79066406 245.74546875 7.76101562 246.9675 7.73046875 248.2265625 C7.65978848 251.24225394 7.60708075 254.257173 7.5703125 257.2734375 C8.49553711 257.25249023 9.42076172 257.23154297 10.37402344 257.20996094 C45.60464891 256.51847785 45.60464891 256.51847785 61.5703125 261.2734375 C62.67149414 261.59489746 62.67149414 261.59489746 63.79492188 261.92285156 C93.40217666 270.83616622 117.65174807 290.30835686 132.59228516 317.40820312 C140.11318478 331.75160629 142.02866874 346.83440184 141.94262695 362.79394531 C141.9450615 364.3986586 141.94878721 366.00337036 141.95368958 367.608078 C141.96300244 371.91931219 141.95376001 376.23031559 141.94035745 380.54153156 C141.92895953 385.06624149 141.93315625 389.59094144 141.93510437 394.11566162 C141.93598364 401.69742568 141.92497507 409.27909969 141.90649414 416.86083984 C141.88524035 425.63048775 141.8818382 434.40000473 141.8880561 443.1696732 C141.89374127 451.62085147 141.88812003 460.0719836 141.87688255 468.52315521 C141.87223465 472.11643068 141.87136341 475.70967796 141.8734684 479.30295563 C141.87534618 483.52199008 141.8672871 487.74089033 141.851408 491.95989418 C141.84715324 493.51034045 141.84632256 495.0608003 141.84909821 496.61124992 C141.85230291 498.72065765 141.84328282 500.82965988 141.83100891 502.93902588 C141.82895604 504.12101688 141.82690317 505.30300789 141.82478809 506.5208168 C141.5703125 509.2734375 141.5703125 509.2734375 139.5703125 511.2734375 C136.99023819 511.52413583 136.99023819 511.52413583 133.64508057 511.52511978 C131.73902353 511.53294302 131.73902353 511.53294302 129.7944603 511.54092431 C128.37111099 511.53659952 126.94776224 511.53208617 125.52441406 511.52740479 C124.02268446 511.52970712 122.52095599 511.5328821 121.01922989 511.53685927 C116.87740658 511.54524724 112.73567483 511.54106396 108.59385109 511.53488684 C104.13299549 511.53037962 99.67215613 511.53733747 95.21130371 511.54284668 C86.46649886 511.55176091 77.72172825 511.54980966 68.97692204 511.5440214 C61.87267334 511.53951287 54.76843428 511.53888849 47.66418457 511.54106903 C46.6548015 511.5413755 45.64541844 511.54168196 44.60544801 511.54199772 C42.55519453 511.54263714 40.50494106 511.54328556 38.4546876 511.5439429 C19.20911671 511.54965214 -0.03643516 511.543079 -19.28200293 511.53234217 C-35.8117094 511.52340612 -52.34138778 511.52495799 -68.87109375 511.53417969 C-88.04568571 511.54487185 -107.22026098 511.54910276 -126.3948555 511.54295516 C-128.43775685 511.54231803 -130.48065821 511.54168929 -132.52355957 511.54106903 C-133.52882431 511.54076048 -134.53408905 511.54045193 -135.56981635 511.54013403 C-142.66922896 511.53840392 -149.76863102 511.54132897 -156.86804199 511.54602814 C-165.51454655 511.55162528 -174.16101477 511.5501452 -182.80751514 511.53946665 C-187.22287815 511.53419415 -191.63818048 511.53217988 -196.05354309 511.53876495 C-200.08999977 511.54469408 -204.12633913 511.54149998 -208.16278505 511.53080985 C-209.62842965 511.52856284 -211.09408403 511.52974094 -212.55972242 511.53456143 C-214.54129349 511.54058236 -216.52289204 511.53325293 -218.50445557 511.52511978 C-219.60835758 511.52479508 -220.7122596 511.52447037 -221.84961319 511.52413583 C-224.4296875 511.2734375 -224.4296875 511.2734375 -226.4296875 509.2734375 C-226.68695641 506.52919674 -226.68695641 506.52919674 -226.69711304 502.95921326 C-226.70164415 502.30387999 -226.70617526 501.64854673 -226.71084368 500.97335488 C-226.72355264 498.76658971 -226.72186308 496.56006931 -226.72021484 494.35327148 C-226.72619684 492.77466513 -226.73300162 491.19606171 -226.74057007 489.61746216 C-226.75829012 485.31697398 -226.76292851 481.01656534 -226.76420164 476.71604419 C-226.76562264 474.0240113 -226.76989168 471.33199865 -226.77519608 468.63997078 C-226.7937298 459.23172855 -226.80186422 449.82354308 -226.80029297 440.4152832 C-226.79909691 431.67679094 -226.82008478 422.93854783 -226.8517803 414.20011848 C-226.878069 406.68139162 -226.88865473 399.16274532 -226.88738215 391.64397293 C-226.88687536 387.16144424 -226.89239767 382.67913589 -226.91373825 378.19665337 C-226.93332864 373.96533813 -226.9331056 369.73444823 -226.91870499 365.50311661 C-226.91663989 363.96380671 -226.92117747 362.42446877 -226.9334259 360.88520622 C-227.13624582 333.5901504 -216.60559945 309.71316178 -197.55078125 290.26953125 C-174.63885521 267.81684832 -143.37867264 256.8885217 -111.6796875 257.0234375 C-107.59509856 257.07376042 -103.51281337 257.15350836 -99.4296875 257.2734375 C-97.97446201 241.57752256 -97.97446201 241.57752256 -102.8515625 227.3671875 C-105.31756849 224.87279933 -108.09520623 222.76587449 -110.86816406 220.625 C-121.83445312 211.13322761 -128.60357672 191.73216335 -129.62093735 177.62067032 C-129.70208187 174.64093252 -129.72280175 171.66688045 -129.72021484 168.68603516 C-129.72693207 167.56122238 -129.73364929 166.43640961 -129.74057007 165.2775116 C-129.75947709 161.58079542 -129.76347038 157.88426144 -129.765625 154.1875 C-129.77205717 151.6035454 -129.77878584 149.01959152 -129.78579712 146.43563843 C-129.79775107 141.02738444 -129.80156583 135.61920206 -129.80029297 130.2109375 C-129.79909198 123.98456763 -129.82019764 117.75854461 -129.8517803 111.53226244 C-129.8812144 105.51211835 -129.88826561 99.49216083 -129.88707352 93.47193527 C-129.88942542 90.92437701 -129.89822561 88.37681586 -129.91373825 85.82930374 C-129.93344618 82.25912317 -129.92754075 78.68982524 -129.91552734 75.11962891 C-129.92676636 74.07927994 -129.93800537 73.03893097 -129.94958496 71.96705627 C-129.84413499 59.56579804 -124.87931835 48.38009936 -116.55078125 39.203125 C-109.94761662 33.04017135 -101.46419218 28.10808799 -92.25048828 28.17578125 C-91.43508575 28.17908447 -90.61968323 28.1823877 -89.77957153 28.18579102 C-88.90356293 28.19408936 -88.02755432 28.2023877 -87.125 28.2109375 C-86.20943329 28.21472412 -85.29386658 28.21851074 -84.35055542 28.22241211 C-80.44621164 28.2386638 -76.54197406 28.26649642 -72.63769531 28.29394531 C-46.98304832 29.51838343 -46.98304832 29.51838343 -23.4296875 21.2734375 C-22.7696875 21.2734375 -22.1096875 21.2734375 -21.4296875 21.2734375 C-20.0485742 16.84708259 -20.12354971 12.27605488 -20 7.67382812 C-19.86770395 4.8983672 -19.7125152 2.74104596 -18.2578125 0.3359375 C-13.10261802 -2.66024391 -5.55446156 -1.17668548 0 0 Z " fill="#F7BB99" transform="translate(228.4296875,0.7265625)"/>
<path d="M0 0 C0.66 0.33 1.32 0.66 2 1 C2 2.32 2 3.64 2 5 C3.34469551 7.20149265 4.70573192 9.19723227 6.25 11.25 C6.69891602 11.86206299 7.14783203 12.47412598 7.61035156 13.10473633 C9.06282461 15.07805323 10.52963066 17.03998996 12 19 C12.47050781 19.63019043 12.94101563 20.26038086 13.42578125 20.90966797 C15.87759146 24.19310113 18.3386978 27.46939453 20.8046875 30.7421875 C25.99776073 37.64592015 31.10072561 44.61652492 36.21777344 51.57666016 C39.71632603 56.33373318 43.22012077 61.0869502 46.7253418 65.83911133 C49.78704676 69.99116829 52.84166113 74.14821487 55.88671875 78.3125 C56.52287109 79.18068359 57.15902344 80.04886719 57.81445312 80.94335938 C59.03531104 82.60978587 60.2541615 84.2776855 61.47070312 85.94726562 C62.02048828 86.69685547 62.57027344 87.44644531 63.13671875 88.21875 C63.61842529 88.87810547 64.10013184 89.53746094 64.59643555 90.21679688 C65.98759878 91.98424447 67.26596275 93.56309957 69 95 C74.33329422 95.05049273 77.0271541 93.61971525 80.68554688 90.05078125 C81.18119141 89.53902344 81.67683594 89.02726562 82.1875 88.5 C87.85223832 82.78487646 87.85223832 82.78487646 92 82 C93.45951119 84.58267413 94.91764881 87.16610741 96.375 89.75 C96.99375 90.84441406 96.99375 90.84441406 97.625 91.9609375 C98.02460938 92.66992188 98.42421875 93.37890625 98.8359375 94.109375 C99.20251465 94.75874023 99.5690918 95.40810547 99.94677734 96.07714844 C102.08334765 99.97785028 103.27662223 102.54337686 103.25 107.0625 C103.25773437 108.34833984 103.25773437 108.34833984 103.265625 109.66015625 C102.95828998 113.5244422 102.25209959 117.23510071 101.53027344 121.04077148 C100.67081565 125.8370366 100.09378924 130.66485907 99.5 135.5 C98.67733354 142.19885543 97.70038636 148.82132589 96.45507812 155.45507812 C95.8281488 158.96103913 95.40607462 162.46134975 95 166 C94.48703044 170.47016328 93.8614388 174.85883744 93.03125 179.28125 C91.96678623 184.9978147 91.20859889 190.72998049 90.5 196.5 C89.66903516 203.26642797 88.70147461 209.96093153 87.40917969 216.65625 C86.59010893 221.34782474 86.33209522 223.99814283 89 228 C91.71022059 228.30224131 94.193122 228.40943939 96.90625 228.38818359 C97.72262939 228.39344055 98.53900879 228.39869751 99.38012695 228.40411377 C102.08694418 228.41735074 104.79317648 228.4085628 107.5 228.3984375 C109.37565219 228.40045718 111.25130363 228.40336772 113.12695312 228.40713501 C117.06127384 228.41156337 120.99539047 228.40511089 124.9296875 228.39111328 C129.98083744 228.37402109 135.03150922 228.38385954 140.0826416 228.40183067 C143.95674259 228.41265472 147.83072962 228.40922853 151.70483398 228.4014473 C153.56762752 228.39944147 155.4304313 228.40191793 157.29321289 228.40888596 C159.89367201 228.41647786 162.49334934 228.4049285 165.09375 228.38818359 C166.25644409 228.39729263 166.25644409 228.39729263 167.44262695 228.40658569 C169.80208905 228.41365149 169.80208905 228.41365149 173 228 C175.4722129 224.29168064 175.11500651 222.81277539 174.75 218.4375 C174.66234375 217.28121094 174.5746875 216.12492188 174.484375 214.93359375 C174.12057128 211.97915547 173.65531585 209.18860349 173.046875 206.28515625 C171.64725946 199.55126557 170.93293489 192.74893074 170.14453125 185.921875 C169.47721197 180.32500366 168.61365741 174.85130353 167.45507812 169.3359375 C166.62362213 165.06803462 166.23025801 160.75567569 165.7890625 156.43359375 C165.37914177 152.65242842 164.81847026 148.96916991 164.03515625 145.24609375 C162.81957841 139.39126704 162.12791672 133.49862262 161.4375 127.5625 C161.18903794 125.43846794 160.93786262 123.314751 160.68359375 121.19140625 C160.57587646 120.26529541 160.46815918 119.33918457 160.35717773 118.38500977 C160.04904319 115.86007492 160.04904319 115.86007492 159 113 C157.23568904 102.88704234 161.58111746 95.1956713 167 87 C167.99 86.34 168.98 85.68 170 85 C170.69867188 85.63808594 171.39734375 86.27617187 172.1171875 86.93359375 C173.02726563 87.75988281 173.93734375 88.58617187 174.875 89.4375 C175.77992188 90.26121094 176.68484375 91.08492188 177.6171875 91.93359375 C180.32534356 94.2821422 181.31690435 94.92358275 184.86328125 95.3203125 C188.84408529 94.91380449 189.66243976 93.91288678 192.1875 90.875 C192.9609375 89.95589844 193.734375 89.03679687 194.53125 88.08984375 C197.56114536 84.29768041 200.58512643 80.50204743 203.5612793 76.66748047 C207.2863223 71.87035817 211.12376077 67.17549638 215 62.5 C219.25455162 57.36277564 223.46041989 52.19738883 227.5625 46.9375 C233.04757625 39.90426552 238.66865348 32.98630869 244.30761719 26.07617188 C246.05434018 23.93333685 247.79726706 21.78746688 249.5390625 19.640625 C250.40845459 18.56917236 250.40845459 18.56917236 251.29541016 17.47607422 C252.39682562 16.1184716 253.49807432 14.76073368 254.59912109 13.40283203 C257.70464416 9.57782138 260.83782649 5.77833232 264 2 C285.06528939 11.58526395 301.46069325 32.73610357 310 53.75 C314.10028886 65.98500105 315.44149208 77.68902949 315.37231445 90.52050781 C315.374749 92.1252211 315.37847471 93.72993286 315.38337708 95.3346405 C315.39268994 99.64587469 315.38344751 103.95687809 315.37004495 108.26809406 C315.35864703 112.79280399 315.36284375 117.31750394 315.36479187 121.84222412 C315.36567114 129.42398818 315.35466257 137.00566219 315.33618164 144.58740234 C315.31492785 153.35705025 315.3115257 162.12656723 315.3177436 170.8962357 C315.32342877 179.34741397 315.31780753 187.7985461 315.30657005 196.24971771 C315.30192215 199.84299318 315.30105091 203.43624046 315.3031559 207.02951813 C315.30503368 211.24855258 315.2969746 215.46745283 315.2810955 219.68645668 C315.27684074 221.23690295 315.27601006 222.7873628 315.27878571 224.33781242 C315.28199041 226.44722015 315.27297032 228.55622238 315.26069641 230.66558838 C315.25864354 231.84757938 315.25659067 233.02957039 315.25447559 234.2473793 C315 237 315 237 313 239 C310.41992569 239.25069833 310.41992569 239.25069833 307.07476807 239.25168228 C305.16871103 239.25950552 305.16871103 239.25950552 303.2241478 239.26748681 C301.80079849 239.26316202 300.37744974 239.25864867 298.95410156 239.25396729 C297.45237196 239.25626962 295.95064349 239.2594446 294.44891739 239.26342177 C290.30709408 239.27180974 286.16536233 239.26762646 282.02353859 239.26144934 C277.56268299 239.25694212 273.10184363 239.26389997 268.64099121 239.26940918 C259.89618636 239.27832341 251.15141575 239.27637216 242.40660954 239.2705839 C235.30236084 239.26607537 228.19812178 239.26545099 221.09387207 239.26763153 C220.084489 239.267938 219.07510594 239.26824446 218.03513551 239.26856022 C215.98488203 239.26919964 213.93462856 239.26984806 211.8843751 239.2705054 C192.63880421 239.27621464 173.39325234 239.2696415 154.14768457 239.25890467 C137.6179781 239.24996862 121.08829972 239.25152049 104.55859375 239.26074219 C85.38400179 239.27143435 66.20942652 239.27566526 47.034832 239.26951766 C44.99193065 239.26888053 42.94902929 239.26825179 40.90612793 239.26763153 C39.90086319 239.26732298 38.89559845 239.26701443 37.85987115 239.26669653 C30.76045854 239.26496642 23.66105648 239.26789147 16.56164551 239.27259064 C7.91514095 239.27818778 -0.73132727 239.2767077 -9.37782764 239.26602915 C-13.79319065 239.26075665 -18.20849298 239.25874238 -22.62385559 239.26532745 C-26.66031227 239.27125658 -30.69665163 239.26806248 -34.73309755 239.25737235 C-36.19874215 239.25512534 -37.66439653 239.25630344 -39.13003492 239.26112393 C-41.11160599 239.26714486 -43.09320454 239.25981543 -45.07476807 239.25168228 C-46.17867008 239.25135758 -47.2825721 239.25103287 -48.41992569 239.25069833 C-51 239 -51 239 -53 237 C-53.25726891 234.25575924 -53.25726891 234.25575924 -53.26742554 230.68577576 C-53.27195665 230.03044249 -53.27648776 229.37510923 -53.28115618 228.69991738 C-53.29386514 226.49315221 -53.29217558 224.28663181 -53.29052734 222.07983398 C-53.29650934 220.50122763 -53.30331412 218.92262421 -53.31088257 217.34402466 C-53.32860262 213.04353648 -53.33324101 208.74312784 -53.33451414 204.44260669 C-53.33593514 201.7505738 -53.34020418 199.05856115 -53.34550858 196.36653328 C-53.3640423 186.95829105 -53.37217672 177.55010558 -53.37060547 168.1418457 C-53.36940941 159.40335344 -53.39039728 150.66511033 -53.4220928 141.92668098 C-53.4483815 134.40795412 -53.45896723 126.88930782 -53.45769465 119.37053543 C-53.45718786 114.88800674 -53.46271017 110.40569839 -53.48405075 105.92321587 C-53.50364114 101.69190063 -53.5034181 97.46101073 -53.48901749 93.22967911 C-53.48695239 91.69036921 -53.49148997 90.15103127 -53.5037384 88.61176872 C-53.70665686 61.3034527 -43.16278344 37.4984813 -24.15234375 18.01171875 C-17.04002544 11.03338446 -8.73298509 4.7784258 0 0 Z " fill="#F3E5D8" transform="translate(55,273)"/>
<path d="M0 0 C7 4 7 4 10.18359375 5.96484375 C28.73131674 17.20926165 50.08382425 21.08126476 71.5 16.8125 C82.83480574 13.92849617 92.33904095 9.53353321 102 3 C104.475 1.515 104.475 1.515 107 0 C107 8.58 107 17.16 107 26 C109.22234375 25.95359375 111.4446875 25.9071875 113.734375 25.859375 C145.45649693 25.33589861 145.45649693 25.33589861 161 30 C161.75007324 30.22494141 162.50014648 30.44988281 163.27294922 30.68164062 C172.63039271 33.58422724 181.38673123 37.31995801 190 42 C188.70891619 44.76655418 187.2935196 47.04962067 185.34765625 49.3984375 C184.82437744 50.03515381 184.30109863 50.67187012 183.76196289 51.32788086 C183.20114014 52.00343018 182.64031738 52.67897949 182.0625 53.375 C180.87403445 54.82082144 179.68654991 56.26744978 178.5 57.71484375 C177.90703125 58.43784668 177.3140625 59.16084961 176.703125 59.90576172 C174.28102109 62.88408846 171.91915943 65.90732027 169.5625 68.9375 C164.88000199 74.94344387 160.0491648 80.81852561 155.19165039 86.68334961 C151.56310874 91.07401898 147.99841283 95.50510105 144.5 100 C139.77606585 106.06847235 134.90817039 112.01011245 130.00463867 117.93408203 C126.12888153 122.61820984 122.30707414 127.33645109 118.55078125 132.1171875 C114.65439246 136.84781571 114.65439246 136.84781571 111.3125 137.625 C106.97127034 136.80590006 105.05050647 134.74282667 101.90234375 131.7578125 C99.77648386 129.79346558 97.55304969 128.35630765 95 127 C93.28708079 129.63958042 91.63386672 132.31083127 90 135 C89.59652344 135.63550781 89.19304687 136.27101563 88.77734375 136.92578125 C84.08825975 145.04344281 85.81921803 153.23131182 87.47412109 162.03198242 C88.49393201 167.78771193 89.14316509 173.59434429 89.85546875 179.39453125 C90.57644941 185.12361409 91.47962405 190.78024065 92.54492188 196.45507812 C93.39601875 201.21464564 93.88640147 206.01006994 94.4375 210.8125 C94.83180034 213.99484526 95.37714467 217.12977067 95.96875 220.28125 C97.21107908 226.95301728 98.02855463 233.66108766 98.85546875 240.39453125 C99.58511423 246.19246687 100.48259781 251.92300694 101.5847168 257.66235352 C102.26721842 261.50418365 102.69376614 264.55173204 100.98071289 268.12780762 C97.99793202 270.94716607 94.88897067 270.55851558 90.99609375 270.51757812 C90.18117462 270.5245874 89.36625549 270.53159668 88.52664185 270.53881836 C85.82991573 270.55643967 83.13423699 270.54476136 80.4375 270.53125 C78.56567177 270.53394373 76.69384491 270.53782516 74.82202148 270.54284668 C70.89781378 270.54874732 66.9739701 270.54016062 63.04980469 270.52148438 C58.01546759 270.49869444 52.9819834 270.5118145 47.94767761 270.53577423 C44.08208775 270.55021696 40.21670065 270.54563325 36.35110474 270.53526306 C34.49471944 270.53259155 32.63831583 270.5358804 30.7819519 270.54518127 C28.18877282 270.55532194 25.59698173 270.53988167 23.00390625 270.51757812 C22.23394318 270.52567505 21.4639801 270.53377197 20.67068481 270.54211426 C17.35730496 270.48922183 15.497155 270.45902719 13.00878906 268.16149902 C11.56688773 265.07198463 11.86936816 262.75094024 12.1875 259.375 C12.33251953 257.65410156 12.33251953 257.65410156 12.48046875 255.8984375 C12.87064543 252.97064556 13.35349103 250.1724514 13.95703125 247.2890625 C15.14281503 241.56185188 15.82942482 235.80673894 16.5 230 C17.26540713 223.37207893 18.17311469 216.86636564 19.54492188 210.3359375 C20.24439863 206.74549028 20.62876619 203.13671642 21 199.5 C21.45678703 195.02517886 22.03818058 190.65050567 22.96484375 186.24609375 C24.18042159 180.39126704 24.87208328 174.49862262 25.5625 168.5625 C25.81096206 166.43846794 26.06213738 164.314751 26.31640625 162.19140625 C26.42412354 161.26529541 26.53184082 160.33918457 26.64282227 159.38500977 C27 157 27 157 28 154 C30.48148065 142.77939184 23.42816314 133.28129277 18 124 C12.30964169 125.79749586 9.03926836 129.64211809 4.9140625 133.78515625 C1.44506839 136.42177778 -0.65808007 137.04006385 -5 137 C-7.08203125 135.62109375 -7.08203125 135.62109375 -8.8125 133.4375 C-9.48410156 132.6021875 -10.15570313 131.766875 -10.84765625 130.90625 C-14.05810394 126.57127164 -17.21454604 122.20471143 -20.3125 117.7890625 C-23.04824695 113.90470415 -25.88781946 110.10425349 -28.75 106.3125 C-34.96450913 98.06798481 -41.08920254 89.75911492 -47.20458984 81.44091797 C-49.60377801 78.17914433 -52.00649072 74.91998023 -54.41064453 71.66186523 C-55.58472853 70.06818898 -56.75632672 68.47267807 -57.92529297 66.87524414 C-60.6978103 63.09061956 -63.49916827 59.34017246 -66.39453125 55.6484375 C-67.18210815 54.6270166 -67.18210815 54.6270166 -67.9855957 53.58496094 C-68.96796301 52.31356891 -69.9645002 51.05295315 -70.97729492 49.80566406 C-72.99690552 47.16629279 -74.0700104 45.68038272 -73.72265625 42.3046875 C-71.35010119 39.13052087 -68.51540439 37.93175497 -64.9375 36.5 C-64.23012695 36.20520752 -63.52275391 35.91041504 -62.79394531 35.60668945 C-57.69406816 33.53970229 -52.51949936 31.7686511 -47.25 30.1875 C-46.60281006 29.99285156 -45.95562012 29.79820312 -45.28881836 29.59765625 C-34.47241265 26.53765453 -23.95769776 25.71806446 -12.75 25.875 C-8.5425 25.91625 -4.335 25.9575 0 26 C0 17.42 0 8.84 0 0 Z " fill="#F6CFAA" transform="translate(129,232)"/>
<path d="M0 0 C2.47653086 2.19638031 4.88300985 4.44906506 7.27734375 6.734375 C8.18033203 7.52521484 8.18033203 7.52521484 9.1015625 8.33203125 C19.96555076 18.2337082 26.62361532 32.03173019 31.27734375 45.734375 C31.63828125 46.79140625 31.99921875 47.8484375 32.37109375 48.9375 C39.22532896 74.19662605 34.09503494 101.52888438 21.46875 123.9453125 C7.27852917 146.42545444 -14.1602459 161.19645885 -39.72265625 167.734375 C-65.35302763 172.62894915 -90.71321157 167.42119362 -112.72265625 153.734375 C-134.10070267 138.79994697 -149.34026833 116.78107589 -154.25537109 90.93286133 C-156.51391383 75.47352569 -156.02365226 58.49401095 -150.72265625 43.734375 C-150.34882813 42.67734375 -149.975 41.6203125 -149.58984375 40.53125 C-140.22465543 16.34301527 -122.35826108 -2.31996296 -98.92578125 -13.05078125 C-95.24785731 -14.65027269 -91.52528726 -15.98990363 -87.72265625 -17.265625 C-86.70945312 -17.6059375 -85.69625 -17.94625 -84.65234375 -18.296875 C-55.65586163 -26.14554685 -22.93368112 -19.08398142 0 0 Z " fill="#FAB645" transform="translate(475.72265625,82.265625)"/>
<path d="M0 0 C13.06477712 3.7811002 24.93985388 10.41828734 31.9453125 22.5234375 C37.38995777 33.93737741 39.16239888 44.25810027 38.99609375 56.84765625 C38.9911517 58.30727182 38.98786468 59.76689382 38.98612976 61.22651672 C38.97855609 64.26133025 38.95820182 67.29566088 38.92700195 70.33032227 C38.88732562 74.1931036 38.86936463 78.05557414 38.85969257 81.91853619 C38.84966018 85.64495018 38.82987032 89.37129186 38.80859375 93.09765625 C38.805198 93.79319799 38.80180225 94.48873974 38.7983036 95.20535851 C38.7526843 102.95041774 38.54822402 110.58498321 37.5703125 118.2734375 C36.71953125 117.9846875 35.86875 117.6959375 34.9921875 117.3984375 C19.52094579 112.65831238 4.53321459 113.4321237 -11.21875 116.51953125 C-20.21007245 118.218587 -29.23581333 118.50616428 -38.3671875 118.5859375 C-40.02137695 118.62944336 -40.02137695 118.62944336 -41.70898438 118.67382812 C-53.08616766 118.76108676 -62.39484322 115.70479735 -70.9296875 108.0234375 C-76.60329825 101.78246568 -80.53236851 95.45860416 -84.1328125 87.8125 C-85.30811074 85.18962878 -85.30811074 85.18962878 -87.4296875 83.2734375 C-94.44783344 83.13307458 -97.54132716 86.62824814 -102.4296875 91.2734375 C-106.96245272 95.69887238 -111.41362638 100.20608073 -115.8671875 104.7109375 C-118.21721361 107.08747122 -120.57048857 109.46071834 -122.92578125 111.83203125 C-123.46424179 112.37879013 -124.00270233 112.92554901 -124.55747986 113.48887634 C-125.82943746 114.76932808 -127.1269548 116.02430968 -128.4296875 117.2734375 C-128.7596875 117.2734375 -129.0896875 117.2734375 -129.4296875 117.2734375 C-129.5316976 109.78454313 -129.60140795 102.29583013 -129.64941406 94.80639648 C-129.66944185 92.26238306 -129.69667214 89.71841515 -129.73144531 87.17456055 C-129.7803518 83.50297767 -129.8027457 79.83200717 -129.8203125 76.16015625 C-129.84095764 75.03574631 -129.86160278 73.91133636 -129.88287354 72.75285339 C-129.88645263 59.95527456 -125.17570236 48.70667633 -116.55078125 39.203125 C-109.94761662 33.04017135 -101.46419218 28.10808799 -92.25048828 28.17578125 C-91.43508575 28.17908447 -90.61968323 28.1823877 -89.77957153 28.18579102 C-88.90356293 28.19408936 -88.02755432 28.2023877 -87.125 28.2109375 C-86.20943329 28.21472412 -85.29386658 28.21851074 -84.35055542 28.22241211 C-80.44621164 28.2386638 -76.54197406 28.26649642 -72.63769531 28.29394531 C-46.98304832 29.51838343 -46.98304832 29.51838343 -23.4296875 21.2734375 C-22.7696875 21.2734375 -22.1096875 21.2734375 -21.4296875 21.2734375 C-20.0485742 16.84708259 -20.12354971 12.27605488 -20 7.67382812 C-19.86770395 4.8983672 -19.7125152 2.74104596 -18.2578125 0.3359375 C-13.10261802 -2.66024391 -5.55446156 -1.17668548 0 0 Z " fill="#644B43" transform="translate(228.4296875,0.7265625)"/>
<path d="M0 0 C6.12561956 4.35861392 11.62532173 9.23132119 17.125 14.3359375 C24.50766765 21.17694203 32.25146088 27.58162676 40 34 C39.40432917 38.4801158 37.62843834 41.70344168 35.4375 45.625 C31.10159069 53.8802164 31.20673807 60.14956281 32.94140625 69.11328125 C34.190365 75.8420536 35.02157443 82.60424895 35.85546875 89.39453125 C36.57644941 95.12361409 37.47962405 100.78024065 38.54492188 106.45507812 C39.39601875 111.21464564 39.88640147 116.01006994 40.4375 120.8125 C40.83180034 123.99484526 41.37714467 127.12977067 41.96875 130.28125 C43.21107908 136.95301728 44.02855463 143.66108766 44.85546875 150.39453125 C45.58511423 156.19246687 46.48259781 161.92300694 47.5847168 167.66235352 C48.26721842 171.50418365 48.69376614 174.55173204 46.98071289 178.12780762 C43.99793202 180.94716607 40.88897067 180.55851558 36.99609375 180.51757812 C35.77371506 180.52809204 35.77371506 180.52809204 34.52664185 180.53881836 C31.82991573 180.55643967 29.13423699 180.54476136 26.4375 180.53125 C24.56567177 180.53394373 22.69384491 180.53782516 20.82202148 180.54284668 C16.89781378 180.54874732 12.9739701 180.54016062 9.04980469 180.52148438 C4.01546759 180.49869444 -1.0180166 180.5118145 -6.05232239 180.53577423 C-9.91791225 180.55021696 -13.78329935 180.54563325 -17.64889526 180.53526306 C-19.50528056 180.53259155 -21.36168417 180.5358804 -23.2180481 180.54518127 C-25.81122718 180.55532194 -28.40301827 180.53988167 -30.99609375 180.51757812 C-31.76605682 180.52567505 -32.5360199 180.53377197 -33.32931519 180.54211426 C-36.64269504 180.48922183 -38.502845 180.45902719 -40.99121094 178.16149902 C-42.43311227 175.07198463 -42.13063184 172.75094024 -41.8125 169.375 C-41.71582031 168.22773438 -41.61914062 167.08046875 -41.51953125 165.8984375 C-41.12935457 162.97064556 -40.64650897 160.1724514 -40.04296875 157.2890625 C-38.85718497 151.56185188 -38.17057518 145.80673894 -37.5 140 C-36.73459287 133.37207893 -35.82688531 126.86636564 -34.45507812 120.3359375 C-33.75560137 116.74549028 -33.37123381 113.13671642 -33 109.5 C-32.54321297 105.02517886 -31.96181942 100.65050567 -31.03515625 96.24609375 C-29.81957841 90.39126704 -29.12791672 84.49862262 -28.4375 78.5625 C-28.18903794 76.43846794 -27.93786262 74.314751 -27.68359375 72.19140625 C-27.52201782 70.80223999 -27.52201782 70.80223999 -27.35717773 69.38500977 C-27 67 -27 67 -26 64 C-23.97830407 54.8584184 -28.05814783 48.20282515 -32.53051758 40.55078125 C-32.98579834 39.761875 -33.4410791 38.97296875 -33.91015625 38.16015625 C-34.33433838 37.45511963 -34.75852051 36.75008301 -35.19555664 36.02368164 C-36.19152418 33.51819608 -36.03243955 32.46682364 -35 30 C-33.00224879 28.05856522 -31.02931928 26.31259548 -28.875 24.5625 C-27.60100349 23.50067035 -26.32758632 22.43814529 -25.0546875 21.375 C-24.39049805 20.82457031 -23.72630859 20.27414062 -23.04199219 19.70703125 C-19.65280563 16.87379448 -16.3290478 13.96591421 -13 11.0625 C-8.70675248 7.32448224 -4.38524636 3.62986093 0 0 Z " fill="#8C4D45" transform="translate(183,322)"/>
<path d="M0 0 C2.47653086 2.19638031 4.88300985 4.44906506 7.27734375 6.734375 C8.18033203 7.52521484 8.18033203 7.52521484 9.1015625 8.33203125 C19.96555076 18.2337082 26.62361532 32.03173019 31.27734375 45.734375 C31.63828125 46.79140625 31.99921875 47.8484375 32.37109375 48.9375 C39.22532896 74.19662605 34.09503494 101.52888438 21.46875 123.9453125 C7.27852917 146.42545444 -14.1602459 161.19645885 -39.72265625 167.734375 C-65.35302763 172.62894915 -90.71321157 167.42119362 -112.72265625 153.734375 C-134.10070267 138.79994697 -149.34026833 116.78107589 -154.25537109 90.93286133 C-156.51391383 75.47352569 -156.02365226 58.49401095 -150.72265625 43.734375 C-150.34882813 42.67734375 -149.975 41.6203125 -149.58984375 40.53125 C-140.22465543 16.34301527 -122.35826108 -2.31996296 -98.92578125 -13.05078125 C-95.24785731 -14.65027269 -91.52528726 -15.98990363 -87.72265625 -17.265625 C-86.70945312 -17.6059375 -85.69625 -17.94625 -84.65234375 -18.296875 C-55.65586163 -26.14554685 -22.93368112 -19.08398142 0 0 Z M-118.91015625 21.921875 C-123.77418058 27.62486862 -127.26155248 34.1282148 -130.72265625 40.734375 C-131.14675781 41.54003906 -131.57085937 42.34570312 -132.0078125 43.17578125 C-139.95509089 59.58404043 -140.36405603 80.62419324 -134.45898438 97.79296875 C-126.38649313 119.07693771 -112.89323995 134.31048822 -92.72265625 144.734375 C-91.97757812 145.15589844 -91.2325 145.57742187 -90.46484375 146.01171875 C-74.88439715 154.107441 -52.98894301 153.4715743 -36.72265625 148.734375 C-16.30991769 141.75980976 0.60314403 128.60125228 10.23876953 109.05371094 C19.25494085 89.86483109 21.45611485 68.62690547 14.58984375 48.234375 C5.93966327 26.35450672 -8.38506793 11.46529621 -29.421875 1.44921875 C-31.83012243 0.42930076 -34.23997721 -0.44467522 -36.72265625 -1.265625 C-37.55023438 -1.56339844 -38.3778125 -1.86117187 -39.23046875 -2.16796875 C-68.36492513 -11.17391894 -98.58705701 0.69639877 -118.91015625 21.921875 Z " fill="#F29551" transform="translate(475.72265625,82.265625)"/>
<path d="M0 0 C2 3 2 3 2 7 C2.804375 7.04125 3.60875 7.0825 4.4375 7.125 C12.25381253 9.04479606 18.49177349 14.44785086 23 21 C26.24151783 26.70060033 27.65604019 33.44883815 27 40 C25.19921875 42.3671875 25.19921875 42.3671875 23 44 C19.875 43.9375 19.875 43.9375 17 43 C14.9072981 39.86094716 14.43585844 37.83746906 13.6875 34.1875 C12.39068962 28.77102432 11.07782519 25.77944773 7 22 C5.68 21.34 4.36 20.68 3 20 C2.67 32.87 2.34 45.74 2 59 C4.97 59.66 7.94 60.32 11 61 C17.13704324 64.19126249 22.38381678 69.19286418 25.109375 75.61328125 C28.25345774 86.09850058 27.88395 95.13125147 23 105 C19.19523401 111.21284572 14.71780564 116.00073728 8 119 C4.5 119.8125 4.5 119.8125 2 120 C1.896875 120.94875 1.79375 121.8975 1.6875 122.875 C1 126 1 126 -2 128 C-5.0625 127.8125 -5.0625 127.8125 -8 127 C-10 124 -10 124 -10 120 C-10.928125 120 -11.85625 120 -12.8125 120 C-19.72313764 118.97464116 -25.77229885 113.83766694 -29.96875 108.4921875 C-34.14886409 101.7917105 -36.90866904 95.02657654 -36 87 C-34.375 84.5 -34.375 84.5 -32 83 C-28.875 83.0625 -28.875 83.0625 -26 84 C-23.99418211 87.00872684 -23.67550608 88.29641848 -23.1875 91.75 C-22.24742495 96.71070372 -20.76298586 100.53839745 -17 104 C-14.69 105.32 -12.38 106.64 -10 108 C-10 94.8 -10 81.6 -10 68 C-13.3 67.01 -16.6 66.02 -20 65 C-26.62421979 61.83270732 -30.83503365 57.59685758 -34 51 C-34.36480469 50.24203125 -34.72960937 49.4840625 -35.10546875 48.703125 C-37.73603623 40.75398659 -36.88025283 30.72227965 -33.32421875 23.2109375 C-29.14936241 16.24052838 -23.08345661 9.54390755 -14.9375 7.4765625 C-13 7.1875 -13 7.1875 -10 7 C-10.061875 6.236875 -10.12375 5.47375 -10.1875 4.6875 C-10 2 -10 2 -8.9375 0.125 C-5.79705307 -1.69848531 -3.4014687 -0.8658284 0 0 Z " fill="#FA9629" transform="translate(420,93)"/>
<path d="M0 0 C6.12561956 4.35861392 11.62532173 9.23132119 17.125 14.3359375 C24.50766765 21.17694203 32.25146088 27.58162676 40 34 C39.41537809 37.57641765 38.46797175 40.40536462 36.78515625 43.609375 C36.34623047 44.44597656 35.90730469 45.28257812 35.45507812 46.14453125 C34.76575195 47.43423828 34.76575195 47.43423828 34.0625 48.75 C33.60681641 49.62527344 33.15113281 50.50054687 32.68164062 51.40234375 C29.25631754 57.87184123 29.25631754 57.87184123 27 59 C25.47955064 59.10991241 23.9544871 59.15905711 22.43017578 59.17700195 C21.00827438 59.19625481 21.00827438 59.19625481 19.55764771 59.21589661 C18.53057709 59.22328354 17.50350647 59.23067047 16.4453125 59.23828125 C15.39221893 59.246353 14.33912537 59.25442474 13.25411987 59.26274109 C11.02310842 59.27658695 8.79207573 59.28730685 6.56103516 59.29516602 C3.14575222 59.31239531 -0.26856701 59.35627966 -3.68359375 59.40039062 C-5.8489512 59.41051586 -8.01431689 59.41903249 -10.1796875 59.42578125 C-11.20270966 59.44328934 -12.22573181 59.46079742 -13.27975464 59.47883606 C-20.33715532 59.45719901 -20.33715532 59.45719901 -23.49926758 57.27612305 C-26.22152127 53.14734947 -28.52555584 48.88355746 -30.8125 44.5 C-31.32748047 43.54996094 -31.84246094 42.59992188 -32.37304688 41.62109375 C-32.85451172 40.70457031 -33.33597656 39.78804688 -33.83203125 38.84375 C-34.27264893 38.01037109 -34.7132666 37.17699219 -35.16723633 36.31835938 C-36.1257702 33.64986401 -36.11249802 32.58247556 -35 30 C-33.00224879 28.05856522 -31.02931928 26.31259548 -28.875 24.5625 C-27.60100349 23.50067035 -26.32758632 22.43814529 -25.0546875 21.375 C-24.39049805 20.82457031 -23.72630859 20.27414062 -23.04199219 19.70703125 C-19.65280563 16.87379448 -16.3290478 13.96591421 -13 11.0625 C-8.70675248 7.32448224 -4.38524636 3.62986093 0 0 Z " fill="#88271A" transform="translate(183,322)"/>
<path d="M0 0 C33 0 66 0 100 0 C93.24906779 7.87608758 93.24906779 7.87608758 90.15234375 10.76171875 C89.47147705 11.39940186 88.79061035 12.03708496 88.08911133 12.6940918 C87.37907959 13.3519165 86.66904785 14.00974121 85.9375 14.6875 C85.18944092 15.38593018 84.44138184 16.08436035 83.6706543 16.80395508 C81.45117917 18.87374412 79.22669376 20.93798135 77 23 C76.39639648 23.55945313 75.79279297 24.11890625 75.17089844 24.6953125 C72.5269802 27.14389763 69.87864834 29.58760907 67.2265625 32.02734375 C63.53622347 35.42342498 59.86160325 38.83637248 56.1875 42.25 C55.56979736 42.82387451 54.95209473 43.39774902 54.31567383 43.98901367 C52.87696785 45.32584982 51.43846078 46.66290002 50 48 C46.44519997 46.49158187 44.20440378 44.42366339 41.515625 41.67578125 C40.23558594 40.37930664 40.23558594 40.37930664 38.9296875 39.05664062 C38.04539063 38.15107422 37.16109375 37.24550781 36.25 36.3125 C30.98492201 30.94196422 25.73242261 25.6774656 20.01855469 20.78491211 C16.01059438 17.24086302 12.27250755 13.41594 8.5 9.625 C7.67757812 8.80644531 6.85515625 7.98789062 6.0078125 7.14453125 C5.23179687 6.36722656 4.45578125 5.58992188 3.65625 4.7890625 C2.95306641 4.08475098 2.24988281 3.38043945 1.52539062 2.65478516 C0 1 0 1 0 0 Z " fill="#F4E5D8" transform="translate(134,258)"/>
<path d="M0 0 C7 4 7 4 10.18359375 5.96484375 C28.73131674 17.20926165 50.08382425 21.08126476 71.5 16.8125 C82.83480574 13.92849617 92.33904095 9.53353321 102 3 C103.65 2.01 105.3 1.02 107 0 C107 8.58 107 17.16 107 26 C71.69 26 36.38 26 0 26 C0 17.42 0 8.84 0 0 Z " fill="#F2C6AE" transform="translate(129,232)"/>
<path d="M0 0 C2.24358905 1.65388012 2.9270416 2.54120979 3.36914349 5.32131481 C3.36637811 6.24034242 3.36361273 7.15937002 3.36076355 8.10624695 C3.36488754 9.1621402 3.36901154 10.21803345 3.3732605 11.30592346 C3.36247467 12.46397995 3.35168884 13.62203644 3.34057617 14.81518555 C3.34101425 16.03481995 3.34145233 17.25445435 3.34190369 18.51104736 C3.34017042 21.85602168 3.32511444 25.20044211 3.30418181 28.54531837 C3.28544141 32.04067847 3.28366666 35.53604577 3.28010559 39.03144836 C3.27077734 45.65066403 3.24615311 52.26973124 3.21605712 58.8888815 C3.18253729 66.42445784 3.1660332 73.96004122 3.15097082 81.49567354 C3.11960415 96.99720405 3.06622507 112.49857706 3 128 C-0.63 128 -4.26 128 -8 128 C-8.06940668 111.75385302 -8.12296314 95.50776703 -8.15543652 79.26150799 C-8.17091433 71.71831405 -8.1920212 64.17521385 -8.22631836 56.63208008 C-8.25619287 50.05851439 -8.27556835 43.48501657 -8.28226548 36.91138488 C-8.28618109 33.42973131 -8.29540197 29.94827194 -8.31719017 26.46668053 C-8.34129937 22.58281146 -8.34197125 18.69913347 -8.34057617 14.81518555 C-8.351362 13.65712906 -8.36214783 12.49907257 -8.3732605 11.30592346 C-8.36913651 10.25003021 -8.36501251 9.19413696 -8.36076355 8.10624695 C-8.36352893 7.18721934 -8.36629431 6.26819174 -8.36914349 5.32131481 C-7.59225336 0.43593384 -4.60898226 -0.69134734 0 0 Z " fill="#F6CFAA" transform="translate(316,384)"/>
<path d="M0 0 C2.5 0.4375 2.5 0.4375 4.13370228 2.14056015 C5.76201393 4.87798249 5.87038475 6.45745525 5.86076355 9.6260376 C5.86488754 10.67489136 5.86901154 11.72374512 5.8732605 12.80438232 C5.86247467 13.9494928 5.85168884 15.09460327 5.84057617 16.27441406 C5.84101425 17.48444092 5.84145233 18.69446777 5.84190369 19.94116211 C5.84017235 23.25508939 5.82513249 26.56845529 5.80418181 29.88228321 C5.7854216 33.34694068 5.7836651 36.81160572 5.78010559 40.27630615 C5.77078317 46.83528215 5.74616682 53.39410804 5.71605712 59.95301795 C5.68251917 67.42090389 5.66602864 74.88879701 5.65097082 82.35673952 C5.61961735 97.7170823 5.56624848 113.07726589 5.5 128.4375 C1.87 128.4375 -1.76 128.4375 -5.5 128.4375 C-5.56940668 112.19135302 -5.62296314 95.94526703 -5.65543652 79.69900799 C-5.67091433 72.15581405 -5.6920212 64.61271385 -5.72631836 57.06958008 C-5.75619287 50.49601439 -5.77556835 43.92251657 -5.78226548 37.34888488 C-5.78618109 33.86723131 -5.79540197 30.38577194 -5.81719017 26.90418053 C-5.84129937 23.02031146 -5.84197125 19.13663347 -5.84057617 15.25268555 C-5.851362 14.09462906 -5.86214783 12.93657257 -5.8732605 11.74342346 C-5.86913651 10.68753021 -5.86501251 9.63163696 -5.86076355 8.54374695 C-5.86352893 7.62471934 -5.86629431 6.70569174 -5.86914349 5.75881481 C-5.27315967 2.01104162 -3.67503409 0.64313097 0 0 Z " fill="#F6CFAA" transform="translate(58.5,383.5625)"/>
<path d="M0 0 C0 11.88 0 23.76 0 36 C-5.57261637 34.88547673 -9.25462177 33.40556858 -12.65234375 28.72265625 C-15.2616241 23.45115363 -14.86449587 17.26768566 -13.37890625 11.65234375 C-11.21210247 6.6542497 -5.89922322 0 0 0 Z " fill="#FBB645" transform="translate(410,112)"/>
<path d="M0 0 C8.19087137 3.51037344 8.19087137 3.51037344 12 9 C13.92487693 14.94627588 13.98685663 21.60109566 11.375 27.3125 C8.69447866 32.02487559 5.21142321 35.26285893 0 37 C0 24.79 0 12.58 0 0 Z " fill="#FBB645" transform="translate(422,164)"/>
</svg>
