<?xml version="1.0" encoding="UTF-8"?>
<svg version="1.1" xmlns="http://www.w3.org/2000/svg" width="512" height="512">
<path d="M0 0 C1.85334961 -0.0299707 1.85334961 -0.0299707 3.74414062 -0.06054688 C14.87518676 -0.05453983 14.87518676 -0.05453983 19.6875 4.4375 C23.73725275 9.03451664 24.82026775 11.33018363 24.6875 17.4375 C25.28175781 17.39109375 25.87601563 17.3446875 26.48828125 17.296875 C36.62455509 16.85548205 44.87113233 19.93491204 52.62109375 26.46484375 C60.77961807 34.25322708 65.73780958 42.91983608 66.06391907 54.39553833 C66.08794313 57.97427227 66.02221397 61.54743312 65.9375 65.125 C65.91738608 66.61651223 65.89914403 68.10805093 65.8828125 69.59960938 C65.83924581 73.21280002 65.7704952 76.82497439 65.6875 80.4375 C66.45529785 80.40398437 67.2230957 80.37046875 68.01416016 80.3359375 C70.6875 80.4375 70.6875 80.4375 73.4609375 82.0625 C77.56249196 86.63050575 76.3995065 93.71827279 76.3125 99.4375 C76.33183594 100.70851563 76.35117187 101.97953125 76.37109375 103.2890625 C76.32299163 112.42846616 76.32299163 112.42846616 73.57421875 116.79296875 C70.05265388 118.7991647 67.90343714 118.95345642 63.875 118.75 C62.71355469 118.70488281 61.55210937 118.65976563 60.35546875 118.61328125 C59.47503906 118.55527344 58.59460938 118.49726563 57.6875 118.4375 C57.73390625 119.36949219 57.7803125 120.30148438 57.828125 121.26171875 C58.08704141 130.4070162 57.09387014 137.8200603 53.6875 146.4375 C53.36007812 147.29859375 53.03265625 148.1596875 52.6953125 149.046875 C48.34961244 159.00709266 39.14794779 169.03152983 29.6875 174.4375 C29.0275 174.4375 28.3675 174.4375 27.6875 174.4375 C27.6875 184.3375 27.6875 194.2375 27.6875 204.4375 C30.3275 204.7675 32.9675 205.0975 35.6875 205.4375 C37.84321368 205.91020743 39.98998691 206.42580535 42.125 206.98461914 C43.33406006 207.29907486 44.54312012 207.61353058 45.78881836 207.93751526 C47.08854738 208.2819271 48.38810366 208.62699139 49.6875 208.97265625 C50.35524445 209.14930754 51.02298889 209.32595882 51.71096802 209.50796318 C55.25179087 210.44491983 58.79087712 211.38812783 62.32861328 212.33666992 C65.21754693 213.11024445 68.10898228 213.87301008 71.00341797 214.62573242 C118.00375824 226.85800505 118.00375824 226.85800505 131.6875 248.4375 C138.44561093 261.1265166 139.98977352 271.64634691 139.99389648 285.79248047 C140.00152615 287.45229461 140.00995503 289.11210524 140.01911926 290.77191162 C140.040988 295.26370854 140.04985254 299.75543742 140.05494571 304.24728155 C140.05859747 307.05755378 140.06484169 309.8678084 140.0719471 312.67807388 C140.0964124 322.49323555 140.10948775 332.30834456 140.11303711 342.12353516 C140.11667297 351.25541585 140.14657945 360.3869606 140.18844169 369.51873863 C140.22318548 377.37462917 140.23858623 385.23040853 140.23928314 393.08637536 C140.24007438 397.77152932 140.24874283 402.45634046 140.27728081 407.14141464 C140.30353268 411.54931227 140.30562726 415.95658444 140.28962517 420.36452484 C140.28781649 421.97612756 140.29444868 423.58776687 140.31044388 425.19929123 C140.39542877 434.32234283 139.88180217 441.57986626 134.6875 449.4375 C134.130625 450.345 133.57375 451.2525 133 452.1875 C126.8714531 458.1504105 116.43512299 464.4375 107.6875 464.4375 C107.6875 473.6775 107.6875 482.9175 107.6875 492.4375 C35.0875 492.4375 -37.5125 492.4375 -112.3125 492.4375 C-112.3125 483.1975 -112.3125 473.9575 -112.3125 464.4375 C-113.9625 464.1075 -115.6125 463.7775 -117.3125 463.4375 C-129.78682638 458.82710569 -137.03355694 454.50452411 -143.3125 442.4375 C-144.45887522 438.99837435 -144.44710351 436.33928811 -144.45967102 432.71035767 C-144.46334771 432.02276285 -144.4670244 431.33516803 -144.4708125 430.626737 C-144.48184658 428.31706844 -144.48569281 426.00744488 -144.48950195 423.69775391 C-144.49576716 422.04354713 -144.50241401 420.38934176 -144.50941467 418.73513794 C-144.53046276 413.29478944 -144.54082245 407.85444065 -144.55078125 402.4140625 C-144.55482949 400.53875082 -144.55894643 398.66343928 -144.56313133 396.7881279 C-144.58219004 387.97122933 -144.59641579 379.15433913 -144.6047433 370.33742392 C-144.614498 360.17803431 -144.64076835 350.01886361 -144.68124419 339.85955107 C-144.71148457 331.99777951 -144.72621994 324.13607037 -144.72952431 316.27424181 C-144.73186712 311.5839297 -144.74072585 306.89385125 -144.76598549 302.20360184 C-144.78940807 297.78270995 -144.79344296 293.36220315 -144.78322411 288.94126511 C-144.78273195 287.32770246 -144.78895677 285.71411996 -144.80278015 284.10061646 C-144.9481413 266.11154501 -140.24457565 250.96049802 -127.65234375 237.71875 C-116.26461894 226.61619359 -102.63032981 221.86275 -87.52734375 217.9140625 C-86.05311348 217.51995649 -84.57912382 217.12494943 -83.10536194 216.72909546 C-80.04745177 215.91030881 -76.98764666 215.09923027 -73.92602539 214.29443359 C-70.00572336 213.26371495 -66.08959198 212.21808795 -62.174613 211.16735268 C-59.14485816 210.35507126 -56.11369319 209.54816876 -53.08200264 208.74314499 C-51.63643708 208.35909329 -50.19116509 207.9739348 -48.74619865 207.58763504 C-46.73567385 207.05151142 -44.72350754 206.52208265 -42.71069336 205.99462891 C-41.56853867 205.69295807 -40.42638397 205.39128723 -39.24961853 205.08047485 C-36.3125 204.4375 -36.3125 204.4375 -32.3125 204.4375 C-32.3125 194.5375 -32.3125 184.6375 -32.3125 174.4375 C-33.9625 173.7775 -35.6125 173.1175 -37.3125 172.4375 C-50.02014124 162.77397217 -59.76748423 149.43474197 -62.3125 133.4375 C-62.62065994 128.43679065 -62.4948489 123.4419643 -62.3125 118.4375 C-63.19292969 118.49550781 -64.07335937 118.55351562 -64.98046875 118.61328125 C-66.72263672 118.68095703 -66.72263672 118.68095703 -68.5 118.75 C-69.64855469 118.80800781 -70.79710937 118.86601562 -71.98046875 118.92578125 C-75.3125 118.4375 -75.3125 118.4375 -78.19921875 116.79296875 C-81.6363564 111.33548032 -81.03347105 105.74599698 -80.9375 99.4375 C-80.95683594 98.16648437 -80.97617188 96.89546875 -80.99609375 95.5859375 C-80.94165717 85.24298779 -80.94165717 85.24298779 -78.0859375 82.0625 C-75.0681515 80.29433243 -73.71068631 80.28916364 -70.3125 80.4375 C-70.3439209 79.45692627 -70.3439209 79.45692627 -70.37597656 78.45654297 C-71.00000761 55.99537474 -68.00898048 38.6643098 -52.81640625 21.00390625 C-38.35683618 6.18341088 -20.32191773 -0.11846375 0 0 Z " fill="#80D6FB" transform="translate(258.3125,9.5625)"/>
<path d="M0 0 C66 0 132 0 200 0 C200 46.2 200 92.4 200 140 C203.3 140 206.6 140 210 140 C210 149.9 210 159.8 210 170 C137.4 170 64.8 170 -10 170 C-10 160.1 -10 150.2 -10 140 C-6.7 140 -3.4 140 0 140 C0 93.8 0 47.6 0 0 Z " fill="#6D82B6" transform="translate(156,332)"/>
<path d="M0 0 C1.85334961 -0.0299707 1.85334961 -0.0299707 3.74414062 -0.06054688 C14.87518676 -0.05453983 14.87518676 -0.05453983 19.6875 4.4375 C23.73725275 9.03451664 24.82026775 11.33018363 24.6875 17.4375 C25.28175781 17.39109375 25.87601562 17.3446875 26.48828125 17.296875 C36.62455509 16.85548205 44.87113233 19.93491204 52.62109375 26.46484375 C60.77961807 34.25322708 65.73780958 42.91983608 66.06391907 54.39553833 C66.08794313 57.97427227 66.02221397 61.54743312 65.9375 65.125 C65.91738608 66.61651223 65.89914403 68.10805093 65.8828125 69.59960938 C65.83924581 73.21280002 65.7704952 76.82497439 65.6875 80.4375 C66.45529785 80.40398437 67.2230957 80.37046875 68.01416016 80.3359375 C70.6875 80.4375 70.6875 80.4375 73.4609375 82.0625 C77.56249196 86.63050575 76.3995065 93.71827279 76.3125 99.4375 C76.33183594 100.70851563 76.35117187 101.97953125 76.37109375 103.2890625 C76.32299163 112.42846616 76.32299163 112.42846616 73.57421875 116.79296875 C70.05265388 118.7991647 67.90343714 118.95345642 63.875 118.75 C62.71355469 118.70488281 61.55210937 118.65976563 60.35546875 118.61328125 C59.47503906 118.55527344 58.59460938 118.49726563 57.6875 118.4375 C57.73390625 119.36949219 57.7803125 120.30148438 57.828125 121.26171875 C58.08704141 130.4070162 57.09387014 137.8200603 53.6875 146.4375 C53.36007812 147.29859375 53.03265625 148.1596875 52.6953125 149.046875 C48.34961244 159.00709266 39.14794779 169.03152983 29.6875 174.4375 C29.0275 174.4375 28.3675 174.4375 27.6875 174.4375 C27.6875 184.3375 27.6875 194.2375 27.6875 204.4375 C30.3275 204.7675 32.9675 205.0975 35.6875 205.4375 C37.69871474 205.91319172 39.70125377 206.42895421 41.6875 207 C43.110625 207.40412109 43.110625 207.40412109 44.5625 207.81640625 C45.614375 208.12384766 45.614375 208.12384766 46.6875 208.4375 C47.69072619 219.47298811 42.50997214 229.12622568 35.6875 237.4375 C27.76646345 246.83439005 16.8514774 252.76678503 4.6875 254.4375 C-11.44253428 255.48646811 -24.03963368 252.18521381 -36.6015625 241.48828125 C-43.85600351 234.57346763 -50.60130446 225.05745217 -51.55859375 214.80078125 C-51.56192605 212.67810447 -51.44916294 210.55577549 -51.3125 208.4375 C-48.89740559 207.76463788 -46.48069644 207.09903988 -44.0625 206.4375 C-43.38058594 206.24671875 -42.69867188 206.0559375 -41.99609375 205.859375 C-38.60649088 204.93792956 -35.85471024 204.4375 -32.3125 204.4375 C-32.3125 194.5375 -32.3125 184.6375 -32.3125 174.4375 C-33.9625 173.7775 -35.6125 173.1175 -37.3125 172.4375 C-50.02014124 162.77397217 -59.76748423 149.43474197 -62.3125 133.4375 C-62.62065994 128.43679065 -62.4948489 123.4419643 -62.3125 118.4375 C-63.19292969 118.49550781 -64.07335937 118.55351562 -64.98046875 118.61328125 C-66.72263672 118.68095703 -66.72263672 118.68095703 -68.5 118.75 C-69.64855469 118.80800781 -70.79710937 118.86601562 -71.98046875 118.92578125 C-75.3125 118.4375 -75.3125 118.4375 -78.19921875 116.79296875 C-81.6363564 111.33548032 -81.03347105 105.74599698 -80.9375 99.4375 C-80.95683594 98.16648437 -80.97617188 96.89546875 -80.99609375 95.5859375 C-80.94165717 85.24298779 -80.94165717 85.24298779 -78.0859375 82.0625 C-75.0681515 80.29433243 -73.71068631 80.28916364 -70.3125 80.4375 C-70.33344727 79.78378418 -70.35439453 79.13006836 -70.37597656 78.45654297 C-71.00000761 55.99537474 -68.00898048 38.6643098 -52.81640625 21.00390625 C-38.35683618 6.18341088 -20.32191773 -0.11846375 0 0 Z " fill="#FED2B3" transform="translate(258.3125,9.5625)"/>
<path d="M0 0 C51.48 0 102.96 0 156 0 C156 42.9 156 85.8 156 130 C110.125 129.625 110.125 129.625 95.75048828 129.39697266 C91.42109721 129.39678974 91.42109721 129.39678974 87.09176636 129.41513062 C85.19403987 129.41439923 83.29618506 129.38661934 81.3991394 129.33578491 C65.76057822 128.94704928 57.23239286 132.68999977 45.79786873 143.35730934 C43.38356893 145.56322553 40.83485634 147.4712256 38.19140625 149.39453125 C37.40572266 149.97654297 36.62003906 150.55855469 35.81054688 151.15820312 C35.06869141 151.70412109 34.32683594 152.25003906 33.5625 152.8125 C32.76263672 153.40869141 31.96277344 154.00488281 31.13867188 154.61914062 C29.98915039 155.46702148 29.98915039 155.46702148 28.81640625 156.33203125 C27.81782593 157.07030151 27.81782593 157.07030151 26.79907227 157.82348633 C25 159 25 159 22 160 C22 150.1 22 140.2 22 130 C14.74 130 7.48 130 0 130 C0 87.1 0 44.2 0 0 Z " fill="#ECEEF0" transform="translate(346,10)"/>
<path d="M0 0 C1.85334961 -0.0299707 1.85334961 -0.0299707 3.74414062 -0.06054688 C14.87518676 -0.05453983 14.87518676 -0.05453983 19.6875 4.4375 C23.73725275 9.03451664 24.82026775 11.33018363 24.6875 17.4375 C25.28175781 17.39109375 25.87601562 17.3446875 26.48828125 17.296875 C36.62455509 16.85548205 44.87113233 19.93491204 52.62109375 26.46484375 C60.77961807 34.25322708 65.73780958 42.91983608 66.06391907 54.39553833 C66.08794313 57.97427227 66.02221397 61.54743312 65.9375 65.125 C65.91738608 66.61651223 65.89914403 68.10805093 65.8828125 69.59960938 C65.83924581 73.21280002 65.7704952 76.82497439 65.6875 80.4375 C63.0475 80.4375 60.4075 80.4375 57.6875 80.4375 C57.6875 92.3175 57.6875 104.1975 57.6875 116.4375 C55.49304254 113.1458138 54.53556071 109.95862927 53.4375 106.21484375 C52.99061061 104.77466575 52.54131612 103.33523226 52.08984375 101.89648438 C51.38173458 99.63481022 50.68694517 97.37307131 50.03173828 95.09545898 C48.63847562 90.28573287 47.21612184 85.77872215 44.6875 81.4375 C41.95666755 79.97445693 40.05439958 79.68916275 36.97949219 79.55004883 C33.7928831 79.39356962 32.45408653 78.08501322 30.3125 75.8125 C28.55246576 73.90020571 28.55246576 73.90020571 26.6875 72.4375 C22.11905721 72.4375 21.75349984 72.87911479 18.625 75.875 C14.38701178 79.90149553 11.55468452 80.55900455 5.74731445 80.64282227 C3.91575554 80.6727401 3.91575554 80.6727401 2.04719543 80.70326233 C0.72837875 80.71997482 -0.59043793 80.73668732 -1.94921875 80.75390625 C-3.31257244 80.7744826 -4.67591985 80.79547925 -6.03926086 80.81687927 C-9.62471422 80.8720297 -13.21022448 80.92146987 -16.79577637 80.96972656 C-20.45569911 81.01999299 -24.11554042 81.0756001 -27.77539062 81.13085938 C-34.95436462 81.23885984 -42.13338414 81.33793717 -49.3125 81.4375 C-53.2725 92.9875 -57.2325 104.5375 -61.3125 116.4375 C-61.6425 116.4375 -61.9725 116.4375 -62.3125 116.4375 C-62.3125 104.5575 -62.3125 92.6775 -62.3125 80.4375 C-64.9525 80.4375 -67.5925 80.4375 -70.3125 80.4375 C-71.05561641 57.24655176 -68.55983529 39.30464356 -52.81640625 21.00390625 C-38.35683618 6.18341088 -20.32191773 -0.11846375 0 0 Z " fill="#6E83B7" transform="translate(258.3125,9.5625)"/>
<path d="M0 0 C72.6 0 145.2 0 220 0 C220 9.9 220 19.8 220 30 C147.4 30 74.8 30 0 30 C0 20.1 0 10.2 0 0 Z " fill="#466089" transform="translate(146,472)"/>
<path d="M0 0 C13.86 0 27.72 0 42 0 C42.11314834 13.25680796 42.20480174 26.51329301 42.25906086 39.77047539 C42.28510798 45.92691931 42.32041762 52.08301454 42.37719727 58.23925781 C42.43168997 64.1850335 42.46145726 70.13047465 42.47438622 76.07648087 C42.48359504 78.3402139 42.50157771 80.6039295 42.52865028 82.86751938 C42.56516898 86.04863199 42.56993569 89.22837808 42.56762695 92.40966797 C42.59459152 93.80042793 42.59459152 93.80042793 42.62210083 95.21928406 C42.55887904 103.31736967 39.47279192 108.97026502 35.3125 115.75 C29.1839531 121.7129105 18.74762299 128 10 128 C10 127.34 10 126.68 10 126 C6.7 126 3.4 126 0 126 C0 84.42 0 42.84 0 0 Z " fill="#FFD3B2" transform="translate(356,346)"/>
<path d="M0 0 C13.86 0 27.72 0 42 0 C42 41.58 42 83.16 42 126 C38.7 126 35.4 126 32 126 C32 126.66 32 127.32 32 128 C23.32986455 126.62326772 12.98523993 122.58376393 7 116 C-0.12846305 105.46816148 -0.12846305 105.46816148 -0.12025452 98.72895813 C-0.12162918 97.85817627 -0.12300385 96.98739441 -0.12442017 96.09022522 C-0.12082489 95.13788498 -0.11722961 94.18554474 -0.11352539 93.2043457 C-0.11367142 92.19928986 -0.11381744 91.19423401 -0.1139679 90.15872192 C-0.11327029 86.83105321 -0.10548494 83.50344021 -0.09765625 80.17578125 C-0.09579153 77.8707838 -0.09436788 75.56578595 -0.09336853 73.26078796 C-0.08954759 67.18955392 -0.07972089 61.11834374 -0.06866455 55.04711914 C-0.05844135 48.85368167 -0.05386896 42.66024035 -0.04882812 36.46679688 C-0.03809827 24.31118574 -0.02050486 12.15559858 0 0 Z " fill="#FFD3B2" transform="translate(114,346)"/>
<path d="M0 0 C0.22042969 1.14275391 0.22042969 1.14275391 0.4453125 2.30859375 C2.50341038 11.78294087 5.40940917 18.80766191 13.5625 24.4375 C21.1468328 29.18277774 27.85812989 30.07482727 36.65625 28.53515625 C44.24619028 26.55568108 50.28214253 22.86042246 54.8125 16.375 C57.72860953 11.31121521 58.83647612 5.67572624 60 0 C66.57534861 0.62031591 72.66692592 2.14897283 79 4 C80.00322619 15.03548811 74.82247214 24.68872568 68 33 C60.07896345 42.39689005 49.1639774 48.32928503 37 50 C20.86996572 51.04896811 8.27286632 47.74771381 -4.2890625 37.05078125 C-11.54350351 30.13596763 -18.28880446 20.61995217 -19.24609375 10.36328125 C-19.24942605 8.24060447 -19.13666294 6.11827549 -19 4 C-16.58490559 3.32713788 -14.16819644 2.66153988 -11.75 2 C-11.06808594 1.80921875 -10.38617188 1.6184375 -9.68359375 1.421875 C-6.29399088 0.50042956 -3.54221024 0 0 0 Z " fill="#EBEEF0" transform="translate(226,214)"/>
<path d="M0 0 C6.33137503 3.40920194 9.991287 6.87671205 12.25 13.75 C13.3665763 20.97052673 11.48001508 26.47931122 7.375 32.5 C2.96507526 37.16933208 -1.70206678 38.84728286 -8 39.0625 C-12.99999635 38.97218808 -16.75133602 37.78260021 -20.75 34.75 C-26.07786568 28.9935886 -28.14508601 24.22037201 -28.01953125 16.37890625 C-27.48942126 11.20841313 -25.62692225 7.48341512 -21.80859375 3.95703125 C-14.84884641 -1.43901595 -8.4687882 -2.8229294 0 0 Z " fill="#466089" transform="translate(263.75,383.25)"/>
<path d="M0 0 C1.6256807 0.30893932 3.25052748 0.6222695 4.875 0.9375 C5.77992188 1.11152344 6.68484375 1.28554688 7.6171875 1.46484375 C10 2 10 2 12 3 C11.21564893 8.91280039 9.51377101 14.53111391 7.875 20.25 C5.33796073 29.18872997 2.88221714 38.14384529 0.5 47.125 C-2.70822305 59.17477543 -6.27683378 71.100234 -10 83 C-14.611983 84.13905625 -17.48270255 83.50576582 -22 82 C-20.95871974 75.2202357 -19.14977844 68.67941018 -17.375 62.0625 C-17.19737122 61.39660858 -17.01974243 60.73071716 -16.83673096 60.04464722 C-14.26232382 50.40769575 -11.49151389 40.84695835 -8.52075195 31.32421875 C-5.31938699 20.97921277 -2.64350908 10.49917847 0 0 Z " fill="#7185B8" transform="translate(429,33)"/>
<path d="M0 0 C1.08539063 0.42152344 2.17078125 0.84304687 3.2890625 1.27734375 C4.73426204 1.83102409 6.17958091 2.38439305 7.625 2.9375 C8.33785156 3.21529297 9.05070313 3.49308594 9.78515625 3.77929688 C26.90283758 10.29657922 43.66114552 6.96804088 60 0 C60 5.28 60 10.56 60 16 C42.53948319 23.48307863 22.16651243 24.97595449 4.1875 17.875 C2.805625 17.25625 1.42375 16.6375 0 16 C0 10.72 0 5.44 0 0 Z " fill="#FCB98B" transform="translate(226,184)"/>
<path d="M0 0 C13.86 0 27.72 0 42 0 C42 6.6 42 13.2 42 20 C28.14 20 14.28 20 0 20 C0 13.4 0 6.8 0 0 Z " fill="#EDEFF1" transform="translate(356,346)"/>
<path d="M0 0 C13.86 0 27.72 0 42 0 C42 6.6 42 13.2 42 20 C28.14 20 14.28 20 0 20 C0 13.4 0 6.8 0 0 Z " fill="#EDEFF1" transform="translate(114,346)"/>
<path d="M0 0 C3.81684226 1.55500981 6.19195732 4.03595495 9 7 C7.51346494 10.46629835 5.54277649 12.69022036 2.8671875 15.328125 C2.06152344 16.12734375 1.25585938 16.9265625 0.42578125 17.75 C-0.41597656 18.575 -1.25773437 19.4 -2.125 20.25 C-2.97449219 21.09046875 -3.82398438 21.9309375 -4.69921875 22.796875 C-6.79504923 24.86915683 -8.89540713 26.93662393 -11 29 C-9.51346494 32.46629835 -7.54277649 34.69022036 -4.8671875 37.328125 C-3.65869141 38.52695313 -3.65869141 38.52695313 -2.42578125 39.75 C-1.58402344 40.575 -0.74226563 41.4 0.125 42.25 C0.97449219 43.09046875 1.82398438 43.9309375 2.69921875 44.796875 C4.79504923 46.86915683 6.89540713 48.93662393 9 51 C7.26142784 54.76690636 5.09741625 57.21232537 2 60 C1.34 60 0.68 60 0 60 C-1.34204102 58.63671875 -1.34204102 58.63671875 -2.94140625 56.6875 C-7.64135929 51.16015051 -12.78755691 46.10357873 -17.9375 41 C-18.9175531 40.02497614 -19.8973724 39.0497172 -20.87695312 38.07421875 C-23.24902313 35.71383382 -25.6234086 33.35583095 -28 31 C-26.38448553 26.91709903 -23.45360304 24.21566164 -20.37109375 21.2109375 C-19.54654442 20.39419052 -19.54654442 20.39419052 -18.70533752 19.5609436 C-16.95408824 17.82746221 -15.19628312 16.10083449 -13.4375 14.375 C-11.67604189 12.64115848 -9.91606377 10.90587817 -8.15895081 9.16763306 C-7.06658495 8.08752633 -5.97155704 7.01010397 -4.87364197 5.93563843 C-2.08448055 3.23686511 -2.08448055 3.23686511 0 0 Z " fill="#6E83B7" transform="translate(389,45)"/>
<path d="M0 0 C6.74080425 5.52650334 12.8071129 11.69449559 18.9375 17.875 C20.01343727 18.95596274 21.08960731 20.03669383 22.16601562 21.1171875 C24.78003292 23.74212641 27.39088596 26.37018628 30 29 C28.34763349 33.29067546 25.1094793 36.1429553 21.8984375 39.296875 C21.30197418 39.89050842 20.70551086 40.48414185 20.0909729 41.09576416 C18.1903019 42.98526627 16.28278526 44.86768392 14.375 46.75 C13.08287532 48.03209065 11.79120324 49.31463761 10.5 50.59765625 C7.33855521 53.73708432 4.1709539 56.87017801 1 60 C-0.17825358 59.09827532 -1.34231577 58.17798498 -2.5 57.25 C-3.47453125 56.48429687 -3.47453125 56.48429687 -4.46875 55.703125 C-6 54 -6 54 -6 50 C-4.25585938 47.80175781 -4.25585938 47.80175781 -1.84375 45.453125 C-0.55791016 44.18662109 -0.55791016 44.18662109 0.75390625 42.89453125 C1.66011719 42.02183594 2.56632812 41.14914063 3.5 40.25 C4.40621094 39.36183594 5.31242187 38.47367188 6.24609375 37.55859375 C8.48871616 35.36318444 10.74012768 33.17762613 13 31 C11.51346494 27.53370165 9.54277649 25.30977964 6.8671875 22.671875 C6.06152344 21.87265625 5.25585938 21.0734375 4.42578125 20.25 C3.16314453 19.0125 3.16314453 19.0125 1.875 17.75 C0.60076172 16.48929688 0.60076172 16.48929688 -0.69921875 15.203125 C-2.79504923 13.13084317 -4.89540713 11.06337607 -7 9 C-5.27845212 5.23511958 -3.00765886 2.84936103 0 0 Z " fill="#6E83B7" transform="translate(457,45)"/>
</svg>
